<svg width="32" height="32" viewBox="0 0 32 32" fill="none" xmlns="http://www.w3.org/2000/svg">
<g id="lets-icons:done-ring-round-fill">
<path id="Vector" fill-rule="evenodd" clip-rule="evenodd" d="M16 28C18.1679 28.0002 20.2953 27.4131 22.1562 26.3012C24.0171 25.1892 25.5421 23.594 26.5691 21.6848C27.5961 19.7757 28.0867 17.624 27.9889 15.4584C27.891 13.2928 27.2083 11.1941 26.0134 9.38533L16.4734 19.9853C16.0278 20.4806 15.4129 20.791 14.7499 20.8557C14.0868 20.9203 13.4236 20.7345 12.8907 20.3347L8.53338 17.0667C8.25048 16.8545 8.06346 16.5386 8.01345 16.1886C7.96344 15.8385 8.05454 15.4829 8.26671 15.2C8.47889 14.9171 8.79475 14.7301 9.14482 14.6801C9.49489 14.6301 9.85048 14.7212 10.1334 14.9333L14.4907 18.2013L24.2854 7.32C22.8665 5.96548 21.1371 4.97947 19.2487 4.4483C17.3604 3.91712 15.3706 3.85699 13.4536 4.27316C11.5366 4.68933 9.75081 5.56912 8.25268 6.83548C6.75454 8.10185 5.5897 9.71618 4.86015 11.5371C4.1306 13.3581 3.85858 15.3301 4.06791 17.2806C4.27725 19.231 4.96155 21.1004 6.0609 22.7251C7.16025 24.3497 8.64113 25.6801 10.3739 26.5997C12.1066 27.5193 14.0384 28.0001 16 28Z" fill="#E80008"/>
</g>
</svg>
