<svg width="240" height="144" viewBox="0 0 240 144" fill="none" xmlns="http://www.w3.org/2000/svg">
<path d="M238.024 71.4859C237.206 71.4812 236.54 72.1465 236.537 72.9719C236.533 73.7973 237.193 74.4702 238.011 74.4749C238.828 74.4796 239.494 73.8143 239.498 72.9889C239.502 72.1635 238.842 71.4906 238.024 71.4859Z" fill="#FF696E"/>
<path d="M237.943 88.6792C237.125 88.6745 236.459 89.3398 236.456 90.1652C236.452 90.9906 237.112 91.6635 237.93 91.6682C238.747 91.6729 239.413 91.0076 239.417 90.1822C239.421 89.3569 238.761 88.6839 237.943 88.6792Z" fill="#FF696E"/>
<path d="M237.862 105.873C237.044 105.868 236.378 106.533 236.375 107.359C236.371 108.184 237.031 108.857 237.849 108.862C238.666 108.866 239.332 108.201 239.336 107.376C239.34 106.55 238.68 105.877 237.862 105.873Z" fill="#FF696E"/>
<path d="M237.781 123.065C236.963 123.06 236.297 123.726 236.294 124.551C236.29 125.376 236.95 126.049 237.768 126.054C238.585 126.059 239.251 125.393 239.255 124.568C239.259 123.743 238.599 123.07 237.781 123.065Z" fill="#FF696E"/>
<path d="M237.7 140.258C236.882 140.254 236.216 140.919 236.212 141.744C236.209 142.57 236.869 143.243 237.687 143.247C238.504 143.252 239.17 142.587 239.174 141.761C239.177 140.936 238.517 140.263 237.7 140.258Z" fill="#FF696E"/>
<path d="M219.522 71.3863C218.704 71.3816 218.038 72.0469 218.034 72.8723C218.031 73.6977 218.691 74.3706 219.508 74.3753C220.326 74.38 220.992 73.7147 220.996 72.8893C220.999 72.0639 220.339 71.391 219.522 71.3863Z" fill="#FF696E"/>
<path d="M219.44 88.5796C218.623 88.5749 217.957 89.2402 217.953 90.0656C217.95 90.891 218.61 91.5639 219.427 91.5686C220.245 91.5733 220.911 90.908 220.915 90.0826C220.918 89.2572 220.258 88.5843 219.44 88.5796Z" fill="#FF696E"/>
<path d="M219.359 105.773C218.542 105.768 217.876 106.434 217.872 107.259C217.869 108.084 218.528 108.757 219.346 108.762C220.164 108.767 220.83 108.101 220.833 107.276C220.837 106.451 220.177 105.778 219.359 105.773Z" fill="#FF696E"/>
<path d="M219.278 122.965C218.461 122.961 217.795 123.626 217.791 124.451C217.788 125.277 218.448 125.95 219.265 125.954C220.083 125.959 220.749 125.294 220.753 124.468C220.756 123.643 220.096 122.97 219.278 122.965Z" fill="#FF696E"/>
<path d="M219.197 140.159C218.38 140.154 217.714 140.819 217.71 141.645C217.707 142.47 218.366 143.143 219.184 143.148C220.002 143.152 220.668 142.487 220.672 141.662C220.675 140.836 220.015 140.163 219.197 140.159Z" fill="#FF696E"/>
<path d="M201.019 71.2866C200.201 71.2819 199.535 71.9473 199.531 72.7726C199.528 73.598 200.188 74.271 201.006 74.2757C201.823 74.2804 202.489 73.6151 202.493 72.7897C202.496 71.9643 201.836 71.2913 201.019 71.2866Z" fill="#FF696E"/>
<path d="M200.938 88.48C200.12 88.4753 199.454 89.1406 199.45 89.966C199.447 90.7914 200.107 91.4643 200.924 91.469C201.742 91.4737 202.408 90.8084 202.412 89.983C202.415 89.1576 201.755 88.4847 200.938 88.48Z" fill="#FF696E"/>
<path d="M200.857 105.672C200.039 105.668 199.373 106.333 199.369 107.158C199.366 107.984 200.026 108.657 200.843 108.661C201.661 108.666 202.327 108.001 202.331 107.175C202.334 106.35 201.674 105.677 200.857 105.672Z" fill="#FF696E"/>
<path d="M200.776 122.866C199.958 122.861 199.292 123.526 199.288 124.352C199.285 125.177 199.945 125.85 200.762 125.855C201.58 125.859 202.246 125.194 202.25 124.369C202.253 123.543 201.593 122.87 200.776 122.866Z" fill="#FF696E"/>
<path d="M200.695 140.059C199.877 140.054 199.211 140.72 199.207 141.545C199.204 142.371 199.864 143.043 200.681 143.048C201.499 143.053 202.165 142.388 202.169 141.562C202.172 140.737 201.512 140.064 200.695 140.059Z" fill="#FF696E"/>
<path d="M182.516 71.187C181.698 71.1823 181.032 71.8476 181.029 72.673C181.025 73.4984 181.685 74.1714 182.503 74.1761C183.321 74.1808 183.986 73.5155 183.99 72.6901C183.994 71.8647 183.334 71.1917 182.516 71.187Z" fill="#FF696E"/>
<path d="M182.435 88.3804C181.617 88.3757 180.951 89.041 180.948 89.8664C180.944 90.6918 181.604 91.3647 182.422 91.3694C183.24 91.3741 183.906 90.7088 183.909 89.8834C183.913 89.058 183.253 88.3851 182.435 88.3804Z" fill="#FF696E"/>
<path d="M182.354 105.573C181.536 105.568 180.87 106.233 180.867 107.059C180.863 107.884 181.523 108.557 182.341 108.562C183.159 108.567 183.824 107.901 183.828 107.076C183.832 106.25 183.172 105.577 182.354 105.573Z" fill="#FF696E"/>
<path d="M182.273 122.766C181.455 122.761 180.789 123.427 180.786 124.252C180.782 125.078 181.442 125.75 182.26 125.755C183.078 125.76 183.743 125.095 183.747 124.269C183.751 123.444 183.091 122.771 182.273 122.766Z" fill="#FF696E"/>
<path d="M182.192 139.959C181.374 139.955 180.708 140.62 180.705 141.445C180.701 142.271 181.361 142.944 182.179 142.949C182.997 142.953 183.662 142.288 183.666 141.463C183.67 140.637 183.01 139.964 182.192 139.959Z" fill="#FF696E"/>
<path d="M164.014 71.0874C163.196 71.0827 162.53 71.748 162.526 72.5734C162.523 73.3988 163.183 74.0717 164.001 74.0765C164.818 74.0812 165.484 73.4158 165.488 72.5904C165.491 71.7651 164.831 71.0921 164.014 71.0874Z" fill="#FF696E"/>
<path d="M163.933 88.2808C163.115 88.2761 162.449 88.9414 162.445 89.7668C162.442 90.5922 163.102 91.2651 163.919 91.2698C164.737 91.2745 165.403 90.6092 165.407 89.7838C165.41 88.9584 164.75 88.2855 163.933 88.2808Z" fill="#FF696E"/>
<path d="M163.852 105.473C163.034 105.468 162.368 106.134 162.364 106.959C162.361 107.785 163.021 108.457 163.838 108.462C164.656 108.467 165.322 107.802 165.326 106.976C165.329 106.151 164.669 105.478 163.852 105.473Z" fill="#FF696E"/>
<path d="M163.771 122.667C162.953 122.662 162.287 123.327 162.283 124.153C162.28 124.978 162.94 125.651 163.757 125.656C164.575 125.66 165.241 124.995 165.245 124.17C165.248 123.344 164.588 122.671 163.771 122.667Z" fill="#FF696E"/>
<path d="M163.69 139.86C162.872 139.855 162.206 140.52 162.202 141.346C162.199 142.171 162.859 142.844 163.676 142.849C164.494 142.854 165.16 142.188 165.164 141.363C165.167 140.538 164.507 139.865 163.69 139.86Z" fill="#FF696E"/>
<path d="M145.511 70.9878C144.693 70.9831 144.027 71.6484 144.024 72.4738C144.02 73.2992 144.68 73.9721 145.498 73.9768C146.315 73.9815 146.981 73.3162 146.985 72.4908C146.989 71.6654 146.329 70.9925 145.511 70.9878Z" fill="#FF696E"/>
<path d="M145.43 88.1812C144.612 88.1765 143.946 88.8418 143.943 89.6672C143.939 90.4926 144.599 91.1655 145.417 91.1702C146.234 91.1749 146.9 90.5096 146.904 89.6842C146.908 88.8588 146.248 88.1859 145.43 88.1812Z" fill="#FF696E"/>
<path d="M145.349 105.374C144.531 105.369 143.865 106.034 143.862 106.86C143.858 107.685 144.518 108.358 145.336 108.363C146.153 108.367 146.819 107.702 146.823 106.877C146.827 106.051 146.167 105.378 145.349 105.374Z" fill="#FF696E"/>
<path d="M145.268 122.567C144.45 122.562 143.784 123.228 143.781 124.053C143.777 124.878 144.437 125.551 145.255 125.556C146.072 125.561 146.738 124.895 146.742 124.07C146.746 123.245 146.086 122.572 145.268 122.567Z" fill="#FF696E"/>
<path d="M145.187 139.76C144.369 139.756 143.703 140.421 143.7 141.246C143.696 142.072 144.356 142.745 145.174 142.749C145.991 142.754 146.657 142.089 146.661 141.263C146.665 140.438 146.005 139.765 145.187 139.76Z" fill="#FF696E"/>
<path d="M127.008 70.8882C126.19 70.8835 125.525 71.5488 125.521 72.3742C125.517 73.1996 126.177 73.8725 126.995 73.8772C127.813 73.8819 128.479 73.2166 128.482 72.3912C128.486 71.5658 127.826 70.8929 127.008 70.8882Z" fill="#FF696E"/>
<path d="M126.927 88.0816C126.11 88.0769 125.444 88.7422 125.44 89.5676C125.436 90.393 126.096 91.0659 126.914 91.0706C127.732 91.0753 128.398 90.41 128.401 89.5846C128.405 88.7592 127.745 88.0863 126.927 88.0816Z" fill="#FF696E"/>
<path d="M126.846 105.274C126.028 105.269 125.363 105.935 125.359 106.76C125.355 107.585 126.015 108.258 126.833 108.263C127.651 108.268 128.317 107.602 128.32 106.777C128.324 105.952 127.664 105.279 126.846 105.274Z" fill="#FF696E"/>
<path d="M126.765 122.467C125.947 122.463 125.282 123.128 125.278 123.953C125.274 124.779 125.934 125.452 126.752 125.456C127.57 125.461 128.236 124.796 128.239 123.97C128.243 123.145 127.583 122.472 126.765 122.467Z" fill="#FF696E"/>
<path d="M126.684 139.661C125.866 139.656 125.201 140.321 125.197 141.147C125.193 141.972 125.853 142.645 126.671 142.65C127.489 142.654 128.155 141.989 128.158 141.164C128.162 140.338 127.502 139.665 126.684 139.661Z" fill="#FF696E"/>
<path d="M108.506 70.7886C107.688 70.7839 107.022 71.4492 107.019 72.2746C107.015 73.1 107.675 73.7729 108.493 73.7776C109.31 73.7823 109.976 73.117 109.98 72.2916C109.984 71.4662 109.324 70.7933 108.506 70.7886Z" fill="#FF696E"/>
<path d="M108.425 87.982C107.607 87.9773 106.941 88.6426 106.938 89.468C106.934 90.2934 107.594 90.9663 108.412 90.971C109.229 90.9757 109.895 90.3104 109.899 89.485C109.903 88.6596 109.243 87.9867 108.425 87.982Z" fill="#FF696E"/>
<path d="M108.344 105.174C107.526 105.17 106.86 105.835 106.857 106.66C106.853 107.486 107.513 108.159 108.331 108.163C109.148 108.168 109.814 107.503 109.818 106.677C109.821 105.852 109.162 105.179 108.344 105.174Z" fill="#FF696E"/>
<path d="M108.263 122.368C107.445 122.363 106.779 123.028 106.776 123.854C106.772 124.679 107.432 125.352 108.25 125.357C109.067 125.361 109.733 124.696 109.737 123.871C109.741 123.045 109.081 122.372 108.263 122.368Z" fill="#FF696E"/>
<path d="M108.182 139.561C107.364 139.556 106.698 140.222 106.695 141.047C106.691 141.872 107.351 142.545 108.169 142.55C108.986 142.555 109.652 141.889 109.656 141.064C109.66 140.239 109 139.566 108.182 139.561Z" fill="#FF696E"/>
<path d="M90.0032 70.689C89.1855 70.6843 88.5196 71.3496 88.5159 72.175C88.5123 73.0004 89.1723 73.6733 89.99 73.678C90.8078 73.6827 91.4737 73.0174 91.4773 72.192C91.4809 71.3666 90.821 70.6937 90.0032 70.689Z" fill="#FF696E"/>
<path d="M89.9221 87.8823C89.1044 87.8776 88.4385 88.543 88.4349 89.3684C88.4313 90.1937 89.0912 90.8667 89.909 90.8714C90.7267 90.8761 91.3926 90.2108 91.3962 89.3854C91.3999 88.56 90.7399 87.8871 89.9221 87.8823Z" fill="#FF696E"/>
<path d="M89.8412 105.075C89.0235 105.07 88.3576 105.735 88.354 106.561C88.3503 107.386 89.0103 108.059 89.828 108.064C90.6458 108.068 91.3117 107.403 91.3153 106.578C91.3189 105.752 90.659 105.079 89.8412 105.075Z" fill="#FF696E"/>
<path d="M89.7602 122.268C88.9424 122.263 88.2765 122.929 88.2729 123.754C88.2693 124.579 88.9292 125.252 89.747 125.257C90.5647 125.262 91.2306 124.597 91.2342 123.771C91.2379 122.946 90.5779 122.273 89.7602 122.268Z" fill="#FF696E"/>
<path d="M89.6792 139.461C88.8615 139.457 88.1956 140.122 88.192 140.947C88.1883 141.773 88.8483 142.446 89.6661 142.45C90.4838 142.455 91.1497 141.79 91.1533 140.964C91.1569 140.139 90.497 139.466 89.6792 139.461Z" fill="#FF696E"/>
<path d="M71.5004 70.5894C70.6826 70.5847 70.0168 71.25 70.0131 72.0754C70.0095 72.9008 70.6695 73.5737 71.4872 73.5784C72.305 73.5831 72.9708 72.9178 72.9745 72.0924C72.9781 71.267 72.3181 70.5941 71.5004 70.5894Z" fill="#FF696E"/>
<path d="M71.4195 87.7827C70.6017 87.778 69.9358 88.4433 69.9322 89.2687C69.9286 90.0941 70.5885 90.7671 71.4063 90.7718C72.224 90.7765 72.8899 90.1112 72.8935 89.2858C72.8972 88.4604 72.2372 87.7874 71.4195 87.7827Z" fill="#FF696E"/>
<path d="M71.3384 104.975C70.5207 104.97 69.8548 105.636 69.8512 106.461C69.8475 107.287 70.5075 107.959 71.3252 107.964C72.143 107.969 72.8089 107.304 72.8125 106.478C72.8161 105.653 72.1562 104.98 71.3384 104.975Z" fill="#FF696E"/>
<path d="M71.2574 122.168C70.4396 122.164 69.7737 122.829 69.7701 123.654C69.7665 124.48 70.4264 125.153 71.2442 125.158C72.0619 125.162 72.7278 124.497 72.7314 123.672C72.7351 122.846 72.0751 122.173 71.2574 122.168Z" fill="#FF696E"/>
<path d="M71.1764 139.362C70.3587 139.357 69.6928 140.022 69.6892 140.848C69.6855 141.673 70.3455 142.346 71.1633 142.351C71.981 142.356 72.6469 141.69 72.6505 140.865C72.6541 140.039 71.9942 139.367 71.1764 139.362Z" fill="#FF696E"/>
<path d="M52.998 70.4898C52.1802 70.4851 51.5143 71.1504 51.5107 71.9758C51.5071 72.8012 52.167 73.4741 52.9848 73.4788C53.8025 73.4835 54.4684 72.8182 54.472 71.9928C54.4757 71.1674 53.8157 70.4945 52.998 70.4898Z" fill="#FF696E"/>
<path d="M52.917 87.6831C52.0993 87.6784 51.4334 88.3437 51.4298 89.1691C51.4261 89.9945 52.0861 90.6675 52.9039 90.6722C53.7216 90.6769 54.3875 90.0115 54.3911 89.1862C54.3947 88.3608 53.7348 87.6878 52.917 87.6831Z" fill="#FF696E"/>
<path d="M52.836 104.876C52.0182 104.871 51.3523 105.536 51.3487 106.362C51.3451 107.187 52.005 107.86 52.8228 107.865C53.6405 107.869 54.3064 107.204 54.3101 106.379C54.3137 105.553 53.6537 104.88 52.836 104.876Z" fill="#FF696E"/>
<path d="M52.7549 122.069C51.9372 122.064 51.2713 122.729 51.2677 123.555C51.264 124.38 51.924 125.053 52.7417 125.058C53.5595 125.063 54.2254 124.397 54.229 123.572C54.2326 122.746 53.5727 122.074 52.7549 122.069Z" fill="#FF696E"/>
<path d="M52.674 139.262C51.8562 139.258 51.1904 139.923 51.1867 140.748C51.1831 141.574 51.8431 142.247 52.6608 142.251C53.4786 142.256 54.1444 141.591 54.1481 140.765C54.1517 139.94 53.4917 139.267 52.674 139.262Z" fill="#FF696E"/>
<path d="M34.4954 70.3902C33.6776 70.3855 33.0118 71.0508 33.0081 71.8762C33.0045 72.7016 33.6645 73.3745 34.4822 73.3792C35.3 73.3839 35.9658 72.7186 35.9695 71.8932C35.9731 71.0678 35.3131 70.3949 34.4954 70.3902Z" fill="#FF696E"/>
<path d="M34.4143 87.5825C33.5966 87.5778 32.9307 88.2431 32.9271 89.0685C32.9234 89.8939 33.5834 90.5669 34.4012 90.5716C35.2189 90.5763 35.8848 89.911 35.8884 89.0856C35.8921 88.2602 35.2321 87.5872 34.4143 87.5825Z" fill="#FF696E"/>
<path d="M34.3334 104.776C33.5157 104.771 32.8498 105.437 32.8462 106.262C32.8425 107.087 33.5025 107.76 34.3202 107.765C35.138 107.77 35.8039 107.104 35.8075 106.279C35.8111 105.454 35.1512 104.781 34.3334 104.776Z" fill="#FF696E"/>
<path d="M34.2523 121.969C33.4346 121.965 32.7687 122.63 32.7651 123.455C32.7615 124.281 33.4214 124.954 34.2392 124.958C35.0569 124.963 35.7228 124.298 35.7264 123.472C35.7301 122.647 35.0701 121.974 34.2523 121.969Z" fill="#FF696E"/>
<path d="M34.1714 139.163C33.3537 139.158 32.6878 139.823 32.6842 140.649C32.6805 141.474 33.3405 142.147 34.1582 142.152C34.976 142.156 35.6419 141.491 35.6455 140.666C35.6491 139.84 34.9892 139.167 34.1714 139.163Z" fill="#FF696E"/>
<path d="M15.9929 70.2906C15.1752 70.2859 14.5093 70.9512 14.5057 71.7766C14.5021 72.6019 15.162 73.2749 15.9798 73.2796C16.7975 73.2843 17.4634 72.619 17.467 71.7936C17.4707 70.9682 16.8107 70.2953 15.9929 70.2906Z" fill="#FF696E"/>
<path d="M15.912 87.4829C15.0943 87.4782 14.4284 88.1435 14.4248 88.9689C14.4211 89.7943 15.0811 90.4673 15.8988 90.472C16.7166 90.4767 17.3825 89.8114 17.3861 88.986C17.3897 88.1606 16.7298 87.4876 15.912 87.4829Z" fill="#FF696E"/>
<path d="M15.831 104.676C15.0132 104.672 14.3473 105.337 14.3437 106.162C14.3401 106.988 15 107.661 15.8178 107.665C16.6355 107.67 17.3014 107.005 17.305 106.179C17.3087 105.354 16.6487 104.681 15.831 104.676Z" fill="#FF696E"/>
<path d="M15.7499 121.87C14.9322 121.865 14.2663 122.53 14.2627 123.356C14.259 124.181 14.919 124.854 15.7367 124.859C16.5545 124.863 17.2204 124.198 17.224 123.373C17.2276 122.547 16.5677 121.874 15.7499 121.87Z" fill="#FF696E"/>
<path d="M15.669 139.063C14.8512 139.058 14.1854 139.724 14.1817 140.549C14.1781 141.374 14.8381 142.047 15.6558 142.052C16.4736 142.057 17.1394 141.391 17.1431 140.566C17.1467 139.741 16.4867 139.068 15.669 139.063Z" fill="#FF696E"/>
<path d="M238.35 2.28567C237.532 2.28097 236.866 2.94627 236.863 3.77167C236.859 4.59707 237.519 5.26999 238.337 5.27469C239.154 5.27939 239.82 4.61409 239.824 3.78869C239.828 2.9633 239.168 2.29037 238.35 2.28567Z" fill="#FF696E"/>
<path d="M238.269 19.479C237.451 19.4743 236.785 20.1396 236.782 20.965C236.778 21.7904 237.438 22.4634 238.256 22.4681C239.074 22.4728 239.739 21.8074 239.743 20.9821C239.747 20.1567 239.087 19.4837 238.269 19.479Z" fill="#FF696E"/>
<path d="M238.188 36.6724C237.37 36.6677 236.704 37.333 236.701 38.1584C236.697 38.9838 237.357 39.6567 238.175 39.6614C238.992 39.6661 239.658 39.0008 239.662 38.1754C239.666 37.35 239.006 36.6771 238.188 36.6724Z" fill="#FF696E"/>
<path d="M238.107 53.8648C237.289 53.8601 236.623 54.5254 236.62 55.3508C236.616 56.1762 237.276 56.8491 238.094 56.8538C238.912 56.8585 239.577 56.1932 239.581 55.3678C239.585 54.5424 238.925 53.8695 238.107 53.8648Z" fill="#FF696E"/>
<path d="M238.026 71.0581C237.208 71.0534 236.542 71.7187 236.539 72.5441C236.535 73.3695 237.195 74.0425 238.013 74.0472C238.83 74.0519 239.496 73.3865 239.5 72.5612C239.504 71.7358 238.844 71.0628 238.026 71.0581Z" fill="#FF696E"/>
<path d="M219.848 2.18606C219.03 2.18136 218.364 2.84667 218.36 3.67206C218.357 4.49746 219.017 5.17038 219.834 5.17508C220.652 5.17978 221.318 4.51448 221.322 3.68908C221.325 2.86369 220.665 2.19076 219.848 2.18606Z" fill="#FF696E"/>
<path d="M219.767 19.3794C218.949 19.3747 218.283 20.04 218.279 20.8654C218.276 21.6908 218.936 22.3637 219.753 22.3684C220.571 22.3731 221.237 21.7078 221.241 20.8824C221.244 20.057 220.584 19.3841 219.767 19.3794Z" fill="#FF696E"/>
<path d="M219.685 36.5728C218.868 36.5681 218.202 37.2334 218.198 38.0588C218.195 38.8842 218.855 39.5571 219.672 39.5618C220.49 39.5665 221.156 38.9012 221.16 38.0758C221.163 37.2504 220.503 36.5775 219.685 36.5728Z" fill="#FF696E"/>
<path d="M219.605 53.7652C218.787 53.7605 218.121 54.4258 218.117 55.2512C218.114 56.0766 218.774 56.7495 219.591 56.7542C220.409 56.7589 221.075 56.0936 221.079 55.2682C221.082 54.4428 220.422 53.7699 219.605 53.7652Z" fill="#FF696E"/>
<path d="M219.523 70.9585C218.706 70.9538 218.04 71.6191 218.036 72.4445C218.033 73.2699 218.693 73.9428 219.51 73.9475C220.328 73.9522 220.994 73.2869 220.998 72.4615C221.001 71.6361 220.341 70.9632 219.523 70.9585Z" fill="#FF696E"/>
<path d="M201.345 2.08645C200.527 2.08175 199.861 2.74706 199.858 3.57245C199.854 4.39785 200.514 5.07077 201.332 5.07547C202.149 5.08017 202.815 4.41487 202.819 3.58947C202.822 2.76408 202.163 2.09115 201.345 2.08645Z" fill="#FF696E"/>
<path d="M201.264 19.2798C200.446 19.2751 199.78 19.9404 199.776 20.7658C199.773 21.5912 200.433 22.2641 201.251 22.2688C202.068 22.2735 202.734 21.6082 202.738 20.7828C202.741 19.9574 202.081 19.2845 201.264 19.2798Z" fill="#FF696E"/>
<path d="M201.183 36.4722C200.365 36.4675 199.699 37.1328 199.695 37.9582C199.692 38.7836 200.352 39.4565 201.169 39.4612C201.987 39.4659 202.653 38.8006 202.657 37.9752C202.66 37.1498 202 36.4769 201.183 36.4722Z" fill="#FF696E"/>
<path d="M201.102 53.6656C200.284 53.6609 199.618 54.3262 199.614 55.1516C199.611 55.9769 200.271 56.6499 201.089 56.6546C201.906 56.6593 202.572 55.994 202.576 55.1686C202.579 54.3432 201.919 53.6703 201.102 53.6656Z" fill="#FF696E"/>
<path d="M201.021 70.8589C200.203 70.8542 199.537 71.5195 199.533 72.3449C199.53 73.1703 200.19 73.8432 201.007 73.8479C201.825 73.8526 202.491 73.1873 202.495 72.3619C202.498 71.5365 201.838 70.8636 201.021 70.8589Z" fill="#FF696E"/>
<path d="M182.842 1.98684C182.024 1.98214 181.358 2.64745 181.355 3.47284C181.351 4.29824 182.011 4.97116 182.829 4.97586C183.647 4.98056 184.313 4.31526 184.316 3.48986C184.32 2.66447 183.66 1.99154 182.842 1.98684Z" fill="#FF696E"/>
<path d="M182.761 19.1802C181.943 19.1755 181.278 19.8408 181.274 20.6662C181.27 21.4916 181.93 22.1645 182.748 22.1692C183.566 22.1739 184.232 21.5086 184.235 20.6832C184.239 19.8578 183.579 19.1849 182.761 19.1802Z" fill="#FF696E"/>
<path d="M182.68 36.3726C181.862 36.3679 181.196 37.0332 181.193 37.8586C181.189 38.684 181.849 39.3569 182.667 39.3616C183.485 39.3663 184.151 38.701 184.154 37.8756C184.158 37.0502 183.498 36.3773 182.68 36.3726Z" fill="#FF696E"/>
<path d="M182.599 53.5659C181.781 53.5612 181.115 54.2265 181.112 55.0519C181.108 55.8773 181.768 56.5503 182.586 56.555C183.404 56.5597 184.069 55.8944 184.073 55.069C184.077 54.2436 183.417 53.5706 182.599 53.5659Z" fill="#FF696E"/>
<path d="M182.518 70.7593C181.7 70.7546 181.034 71.4199 181.031 72.2453C181.027 73.0707 181.687 73.7436 182.505 73.7483C183.323 73.753 183.989 73.0877 183.992 72.2623C183.996 71.4369 183.336 70.764 182.518 70.7593Z" fill="#FF696E"/>
<path d="M164.34 1.88723C163.522 1.88253 162.856 2.54784 162.852 3.37323C162.849 4.19863 163.509 4.87155 164.326 4.87625C165.144 4.88096 165.81 4.21565 165.814 3.39025C165.817 2.56486 165.157 1.89193 164.34 1.88723Z" fill="#FF696E"/>
<path d="M164.259 19.0806C163.441 19.0759 162.775 19.7412 162.771 20.5666C162.768 21.392 163.428 22.0649 164.246 22.0696C165.063 22.0743 165.729 21.409 165.733 20.5836C165.736 19.7582 165.076 19.0853 164.259 19.0806Z" fill="#FF696E"/>
<path d="M164.178 36.273C163.36 36.2683 162.694 36.9336 162.69 37.759C162.687 38.5844 163.347 39.2573 164.164 39.262C164.982 39.2667 165.648 38.6014 165.652 37.776C165.655 36.9506 164.995 36.2777 164.178 36.273Z" fill="#FF696E"/>
<path d="M164.097 53.4663C163.279 53.4616 162.613 54.1269 162.609 54.9523C162.606 55.7777 163.266 56.4507 164.084 56.4554C164.901 56.4601 165.567 55.7948 165.571 54.9694C165.574 54.144 164.914 53.471 164.097 53.4663Z" fill="#FF696E"/>
<path d="M164.016 70.6597C163.198 70.655 162.532 71.3203 162.528 72.1457C162.525 72.9711 163.185 73.644 164.002 73.6487C164.82 73.6534 165.486 72.9881 165.49 72.1627C165.493 71.3373 164.833 70.6644 164.016 70.6597Z" fill="#FF696E"/>
<path d="M145.837 1.78762C145.019 1.78292 144.353 2.44823 144.35 3.27362C144.346 4.09902 145.006 4.77194 145.824 4.77665C146.641 4.78135 147.307 4.11604 147.311 3.29065C147.315 2.46525 146.655 1.79232 145.837 1.78762Z" fill="#FF696E"/>
<path d="M145.756 18.981C144.938 18.9763 144.272 19.6416 144.269 20.467C144.265 21.2924 144.925 21.9653 145.743 21.97C146.56 21.9747 147.226 21.3094 147.23 20.484C147.234 19.6586 146.574 18.9857 145.756 18.981Z" fill="#FF696E"/>
<path d="M145.675 36.1734C144.857 36.1687 144.191 36.834 144.188 37.6594C144.184 38.4848 144.844 39.1577 145.662 39.1624C146.479 39.1671 147.145 38.5018 147.149 37.6764C147.153 36.851 146.493 36.1781 145.675 36.1734Z" fill="#FF696E"/>
<path d="M145.594 53.3667C144.776 53.362 144.11 54.0273 144.107 54.8527C144.103 55.6781 144.763 56.351 145.581 56.3557C146.398 56.3604 147.064 55.6951 147.068 54.8697C147.072 54.0444 146.412 53.3714 145.594 53.3667Z" fill="#FF696E"/>
<path d="M145.513 70.5601C144.695 70.5554 144.029 71.2207 144.026 72.0461C144.022 72.8715 144.682 73.5444 145.5 73.5491C146.317 73.5538 146.983 72.8885 146.987 72.0631C146.991 71.2377 146.331 70.5648 145.513 70.5601Z" fill="#FF696E"/>
<path d="M127.334 1.68801C126.517 1.68331 125.851 2.34862 125.847 3.17401C125.843 3.99941 126.503 4.67234 127.321 4.67704C128.139 4.68174 128.805 4.01643 128.808 3.19104C128.812 2.36564 128.152 1.69271 127.334 1.68801Z" fill="#FF696E"/>
<path d="M127.253 18.8814C126.436 18.8767 125.77 19.542 125.766 20.3674C125.762 21.1928 126.422 21.8657 127.24 21.8704C128.058 21.8751 128.724 21.2098 128.727 20.3844C128.731 19.559 128.071 18.8861 127.253 18.8814Z" fill="#FF696E"/>
<path d="M127.172 36.0738C126.355 36.0691 125.689 36.7344 125.685 37.5598C125.681 38.3852 126.341 39.0581 127.159 39.0628C127.977 39.0675 128.643 38.4022 128.646 37.5768C128.65 36.7514 127.99 36.0785 127.172 36.0738Z" fill="#FF696E"/>
<path d="M127.091 53.2671C126.273 53.2624 125.608 53.9277 125.604 54.7531C125.6 55.5785 126.26 56.2514 127.078 56.2561C127.896 56.2608 128.562 55.5955 128.565 54.7701C128.569 53.9447 127.909 53.2718 127.091 53.2671Z" fill="#FF696E"/>
<path d="M127.01 70.4605C126.193 70.4558 125.527 71.1211 125.523 71.9465C125.519 72.7719 126.179 73.4448 126.997 73.4495C127.815 73.4542 128.481 72.7889 128.484 71.9635C128.488 71.1381 127.828 70.4652 127.01 70.4605Z" fill="#FF696E"/>
<path d="M108.832 1.5884C108.014 1.5837 107.348 2.24901 107.345 3.0744C107.341 3.8998 108.001 4.57273 108.819 4.57743C109.636 4.58213 110.302 3.91682 110.306 3.09143C110.31 2.26603 109.65 1.59311 108.832 1.5884Z" fill="#FF696E"/>
<path d="M108.751 18.7818C107.933 18.7771 107.267 19.4424 107.264 20.2678C107.26 21.0932 107.92 21.7661 108.738 21.7708C109.555 21.7755 110.221 21.1102 110.225 20.2848C110.229 19.4594 109.569 18.7865 108.751 18.7818Z" fill="#FF696E"/>
<path d="M108.67 35.9741C107.852 35.9694 107.186 36.6348 107.183 37.4601C107.179 38.2855 107.839 38.9585 108.657 38.9632C109.474 38.9679 110.14 38.3026 110.144 37.4772C110.148 36.6518 109.488 35.9788 108.67 35.9741Z" fill="#FF696E"/>
<path d="M108.589 53.1675C107.771 53.1628 107.105 53.8281 107.102 54.6535C107.098 55.4789 107.758 56.1518 108.576 56.1565C109.393 56.1612 110.059 55.4959 110.063 54.6705C110.067 53.8451 109.407 53.1722 108.589 53.1675Z" fill="#FF696E"/>
<path d="M108.508 70.3609C107.69 70.3562 107.024 71.0215 107.021 71.8469C107.017 72.6723 107.677 73.3452 108.495 73.3499C109.312 73.3546 109.978 72.6893 109.982 71.8639C109.986 71.0385 109.326 70.3656 108.508 70.3609Z" fill="#FF696E"/>
<path d="M90.3293 1.4888C89.5115 1.48409 88.8456 2.1494 88.842 2.9748C88.8384 3.80019 89.4983 4.47312 90.3161 4.47782C91.1338 4.48252 91.7997 3.81721 91.8033 2.99182C91.807 2.16642 91.147 1.4935 90.3293 1.4888Z" fill="#FF696E"/>
<path d="M90.2482 18.6822C89.4304 18.6775 88.7646 19.3428 88.7609 20.1682C88.7573 20.9936 89.4173 21.6665 90.235 21.6712C91.0528 21.6759 91.7186 21.0106 91.7223 20.1852C91.7259 19.3598 91.0659 18.6869 90.2482 18.6822Z" fill="#FF696E"/>
<path d="M90.1673 35.8745C89.3495 35.8698 88.6836 36.5351 88.68 37.3605C88.6764 38.1859 89.3363 38.8589 90.1541 38.8636C90.9718 38.8683 91.6377 38.203 91.6413 37.3776C91.645 36.5522 90.985 35.8792 90.1673 35.8745Z" fill="#FF696E"/>
<path d="M90.0862 53.0679C89.2685 53.0632 88.6026 53.7285 88.599 54.5539C88.5953 55.3793 89.2553 56.0522 90.073 56.0569C90.8908 56.0616 91.5567 55.3963 91.5603 54.5709C91.5639 53.7455 90.904 53.0726 90.0862 53.0679Z" fill="#FF696E"/>
<path d="M90.0053 70.2613C89.1875 70.2566 88.5217 70.9219 88.518 71.7473C88.5144 72.5727 89.1744 73.2456 89.9921 73.2503C90.8099 73.255 91.4757 72.5897 91.4794 71.7643C91.483 70.9389 90.823 70.266 90.0053 70.2613Z" fill="#FF696E"/>
<path d="M71.8267 1.38919C71.0089 1.38449 70.3431 2.04979 70.3394 2.87519C70.3358 3.70058 70.9958 4.37351 71.8135 4.37821C72.6313 4.38291 73.2971 3.7176 73.3008 2.89221C73.3044 2.06681 72.6444 1.39389 71.8267 1.38919Z" fill="#FF696E"/>
<path d="M71.7454 18.5825C70.9276 18.5778 70.2618 19.2431 70.2581 20.0685C70.2545 20.8939 70.9145 21.5669 71.7322 21.5716C72.55 21.5763 73.2158 20.911 73.2195 20.0856C73.2231 19.2602 72.5631 18.5872 71.7454 18.5825Z" fill="#FF696E"/>
<path d="M71.6645 35.7749C70.8467 35.7702 70.1808 36.4355 70.1772 37.2609C70.1736 38.0863 70.8335 38.7592 71.6513 38.764C72.469 38.7687 73.1349 38.1033 73.1385 37.2779C73.1422 36.4526 72.4822 35.7796 71.6645 35.7749Z" fill="#FF696E"/>
<path d="M71.5834 52.9683C70.7657 52.9636 70.0998 53.6289 70.0962 54.4543C70.0925 55.2797 70.7525 55.9526 71.5702 55.9573C72.388 55.962 73.0539 55.2967 73.0575 54.4713C73.0611 53.6459 72.4012 52.973 71.5834 52.9683Z" fill="#FF696E"/>
<path d="M71.5025 70.1616C70.6847 70.1569 70.0189 70.8223 70.0152 71.6476C70.0116 72.473 70.6716 73.146 71.4893 73.1507C72.3071 73.1554 72.9729 72.4901 72.9766 71.6647C72.9802 70.8393 72.3202 70.1663 71.5025 70.1616Z" fill="#FF696E"/>
<path d="M53.324 1.28958C52.5063 1.28488 51.8404 1.95018 51.8368 2.77558C51.8331 3.60097 52.4931 4.2739 53.3108 4.2786C54.1286 4.2833 54.7945 3.61799 54.7981 2.7926C54.8017 1.9672 54.1418 1.29428 53.324 1.28958Z" fill="#FF696E"/>
<path d="M53.2431 18.482C52.4253 18.4773 51.7595 19.1426 51.7558 19.968C51.7522 20.7934 52.4122 21.4663 53.2299 21.471C54.0477 21.4757 54.7135 20.8104 54.7172 19.985C54.7208 19.1596 54.0608 18.4867 53.2431 18.482Z" fill="#FF696E"/>
<path d="M53.162 35.6753C52.3443 35.6706 51.6784 36.3359 51.6748 37.1613C51.6711 37.9867 52.3311 38.6596 53.1488 38.6643C53.9666 38.669 54.6325 38.0037 54.6361 37.1783C54.6397 36.3529 53.9798 35.68 53.162 35.6753Z" fill="#FF696E"/>
<path d="M53.081 52.8687C52.2632 52.864 51.5973 53.5293 51.5937 54.3547C51.5901 55.1801 52.25 55.853 53.0678 55.8577C53.8855 55.8624 54.5514 55.1971 54.555 54.3717C54.5587 53.5463 53.8987 52.8734 53.081 52.8687Z" fill="#FF696E"/>
<path d="M53 70.062C52.1823 70.0573 51.5164 70.7226 51.5128 71.548C51.5091 72.3734 52.1691 73.0464 52.9869 73.0511C53.8046 73.0558 54.4705 72.3905 54.4741 71.5651C54.4777 70.7397 53.8178 70.0667 53 70.062Z" fill="#FF696E"/>
<path d="M34.8214 1.18997C34.0037 1.18527 33.3378 1.85057 33.3342 2.67597C33.3306 3.50136 33.9905 4.17429 34.8083 4.17899C35.626 4.18369 36.2919 3.51838 36.2955 2.69299C36.2992 1.86759 35.6392 1.19467 34.8214 1.18997Z" fill="#FF696E"/>
<path d="M34.7404 18.3823C33.9226 18.3776 33.2568 19.043 33.2531 19.8684C33.2495 20.6937 33.9095 21.3667 34.7272 21.3714C35.545 21.3761 36.2108 20.7108 36.2145 19.8854C36.2181 19.06 35.5581 18.3871 34.7404 18.3823Z" fill="#FF696E"/>
<path d="M34.6595 35.5757C33.8417 35.571 33.1758 36.2363 33.1722 37.0617C33.1686 37.8871 33.8285 38.56 34.6463 38.5647C35.464 38.5694 36.1299 37.9041 36.1335 37.0787C36.1372 36.2533 35.4772 35.5804 34.6595 35.5757Z" fill="#FF696E"/>
<path d="M34.5784 52.7691C33.7606 52.7644 33.0948 53.4297 33.0911 54.2551C33.0875 55.0805 33.7475 55.7534 34.5652 55.7581C35.383 55.7628 36.0488 55.0975 36.0525 54.2721C36.0561 53.4467 35.3961 52.7738 34.5784 52.7691Z" fill="#FF696E"/>
<path d="M34.4975 69.9624C33.6797 69.9577 33.0138 70.623 33.0102 71.4484C33.0066 72.2738 33.6665 72.9467 34.4843 72.9515C35.302 72.9562 35.9679 72.2908 35.9715 71.4654C35.9752 70.6401 35.3152 69.9671 34.4975 69.9624Z" fill="#FF696E"/>
<path d="M16.319 1.09036C15.5012 1.08566 14.8354 1.75096 14.8317 2.57636C14.8281 3.40175 15.4881 4.07468 16.3058 4.07938C17.1236 4.08408 17.7894 3.41878 17.7931 2.59338C17.7967 1.76798 17.1367 1.09506 16.319 1.09036Z" fill="#FF696E"/>
<path d="M16.2381 18.2827C15.4203 18.278 14.7544 18.9433 14.7508 19.7687C14.7472 20.5941 15.4071 21.2671 16.2249 21.2718C17.0426 21.2765 17.7085 20.6112 17.7121 19.7858C17.7158 18.9604 17.0558 18.2874 16.2381 18.2827Z" fill="#FF696E"/>
<path d="M16.157 35.4761C15.3393 35.4714 14.6734 36.1367 14.6698 36.9621C14.6661 37.7875 15.3261 38.4604 16.1438 38.4651C16.9616 38.4698 17.6275 37.8045 17.6311 36.9791C17.6347 36.1537 16.9748 35.4808 16.157 35.4761Z" fill="#FF696E"/>
<path d="M16.076 52.6695C15.2582 52.6648 14.5923 53.3301 14.5887 54.1555C14.5851 54.9809 15.245 55.6538 16.0628 55.6585C16.8805 55.6632 17.5464 54.9979 17.55 54.1725C17.5537 53.3471 16.8937 52.6742 16.076 52.6695Z" fill="#FF696E"/>
<path d="M15.995 69.8628C15.1773 69.8581 14.5114 70.5234 14.5078 71.3488C14.5041 72.1742 15.1641 72.8471 15.9819 72.8518C16.7996 72.8565 17.4655 72.1912 17.4691 71.3658C17.4727 70.5404 16.8128 69.8675 15.995 69.8628Z" fill="#FF696E"/>
</svg>
