<svg width="303" height="160" viewBox="0 0 303 160" fill="none" xmlns="http://www.w3.org/2000/svg">
<path d="M2.19499 81.9508C3.13791 81.9508 3.90231 81.1864 3.90231 80.2435C3.90231 79.3005 3.13791 78.5361 2.19499 78.5361C1.25206 78.5361 0.487671 79.3005 0.487671 80.2435C0.487671 81.1864 1.25206 81.9508 2.19499 81.9508Z" fill="#268ACD"/>
<path d="M2.19499 62.317C3.13791 62.317 3.90231 61.5526 3.90231 60.6097C3.90231 59.6667 3.13791 58.9023 2.19499 58.9023C1.25206 58.9023 0.487671 59.6667 0.487671 60.6097C0.487671 61.5526 1.25206 62.317 2.19499 62.317Z" fill="#268ACD"/>
<path d="M2.19499 42.6832C3.13791 42.6832 3.90231 41.9188 3.90231 40.9759C3.90231 40.0329 3.13791 39.2686 2.19499 39.2686C1.25206 39.2686 0.487671 40.0329 0.487671 40.9759C0.487671 41.9188 1.25206 42.6832 2.19499 42.6832Z" fill="#268ACD"/>
<path d="M2.19499 23.0484C3.13791 23.0484 3.90231 22.284 3.90231 21.3411C3.90231 20.3982 3.13791 19.6338 2.19499 19.6338C1.25206 19.6338 0.487671 20.3982 0.487671 21.3411C0.487671 22.284 1.25206 23.0484 2.19499 23.0484Z" fill="#268ACD"/>
<path d="M2.19499 3.41463C3.13791 3.41463 3.90231 2.65024 3.90231 1.70732C3.90231 0.764392 3.13791 0 2.19499 0C1.25206 0 0.487671 0.764392 0.487671 1.70732C0.487671 2.65024 1.25206 3.41463 2.19499 3.41463Z" fill="#268ACD"/>
<path d="M23.5364 81.9508C24.4793 81.9508 25.2437 81.1864 25.2437 80.2435C25.2437 79.3005 24.4793 78.5361 23.5364 78.5361C22.5935 78.5361 21.8291 79.3005 21.8291 80.2435C21.8291 81.1864 22.5935 81.9508 23.5364 81.9508Z" fill="#268ACD"/>
<path d="M23.5364 62.317C24.4793 62.317 25.2437 61.5526 25.2437 60.6097C25.2437 59.6667 24.4793 58.9023 23.5364 58.9023C22.5935 58.9023 21.8291 59.6667 21.8291 60.6097C21.8291 61.5526 22.5935 62.317 23.5364 62.317Z" fill="#268ACD"/>
<path d="M23.5364 42.6832C24.4793 42.6832 25.2437 41.9188 25.2437 40.9759C25.2437 40.0329 24.4793 39.2686 23.5364 39.2686C22.5935 39.2686 21.8291 40.0329 21.8291 40.9759C21.8291 41.9188 22.5935 42.6832 23.5364 42.6832Z" fill="#268ACD"/>
<path d="M23.5364 23.0484C24.4793 23.0484 25.2437 22.284 25.2437 21.3411C25.2437 20.3982 24.4793 19.6338 23.5364 19.6338C22.5935 19.6338 21.8291 20.3982 21.8291 21.3411C21.8291 22.284 22.5935 23.0484 23.5364 23.0484Z" fill="#268ACD"/>
<path d="M23.5364 3.41463C24.4793 3.41463 25.2437 2.65024 25.2437 1.70732C25.2437 0.764392 24.4793 0 23.5364 0C22.5935 0 21.8291 0.764392 21.8291 1.70732C21.8291 2.65024 22.5935 3.41463 23.5364 3.41463Z" fill="#268ACD"/>
<path d="M44.878 81.9508C45.8209 81.9508 46.5853 81.1864 46.5853 80.2435C46.5853 79.3005 45.8209 78.5361 44.878 78.5361C43.935 78.5361 43.1707 79.3005 43.1707 80.2435C43.1707 81.1864 43.935 81.9508 44.878 81.9508Z" fill="#268ACD"/>
<path d="M44.878 62.317C45.8209 62.317 46.5853 61.5526 46.5853 60.6097C46.5853 59.6667 45.8209 58.9023 44.878 58.9023C43.935 58.9023 43.1707 59.6667 43.1707 60.6097C43.1707 61.5526 43.935 62.317 44.878 62.317Z" fill="#268ACD"/>
<path d="M44.878 42.6832C45.8209 42.6832 46.5853 41.9188 46.5853 40.9759C46.5853 40.0329 45.8209 39.2686 44.878 39.2686C43.935 39.2686 43.1707 40.0329 43.1707 40.9759C43.1707 41.9188 43.935 42.6832 44.878 42.6832Z" fill="#268ACD"/>
<path d="M44.878 23.0484C45.8209 23.0484 46.5853 22.284 46.5853 21.3411C46.5853 20.3982 45.8209 19.6338 44.878 19.6338C43.935 19.6338 43.1707 20.3982 43.1707 21.3411C43.1707 22.284 43.935 23.0484 44.878 23.0484Z" fill="#268ACD"/>
<path d="M44.878 3.41463C45.8209 3.41463 46.5853 2.65024 46.5853 1.70732C46.5853 0.764392 45.8209 0 44.878 0C43.935 0 43.1707 0.764392 43.1707 1.70732C43.1707 2.65024 43.935 3.41463 44.878 3.41463Z" fill="#268ACD"/>
<path d="M66.2194 81.9508C67.1623 81.9508 67.9267 81.1864 67.9267 80.2435C67.9267 79.3005 67.1623 78.5361 66.2194 78.5361C65.2765 78.5361 64.5121 79.3005 64.5121 80.2435C64.5121 81.1864 65.2765 81.9508 66.2194 81.9508Z" fill="#268ACD"/>
<path d="M66.2194 62.317C67.1623 62.317 67.9267 61.5526 67.9267 60.6097C67.9267 59.6667 67.1623 58.9023 66.2194 58.9023C65.2765 58.9023 64.5121 59.6667 64.5121 60.6097C64.5121 61.5526 65.2765 62.317 66.2194 62.317Z" fill="#268ACD"/>
<path d="M66.2194 42.6832C67.1623 42.6832 67.9267 41.9188 67.9267 40.9759C67.9267 40.0329 67.1623 39.2686 66.2194 39.2686C65.2765 39.2686 64.5121 40.0329 64.5121 40.9759C64.5121 41.9188 65.2765 42.6832 66.2194 42.6832Z" fill="#268ACD"/>
<path d="M66.2194 23.0484C67.1623 23.0484 67.9267 22.284 67.9267 21.3411C67.9267 20.3982 67.1623 19.6338 66.2194 19.6338C65.2765 19.6338 64.5121 20.3982 64.5121 21.3411C64.5121 22.284 65.2765 23.0484 66.2194 23.0484Z" fill="#268ACD"/>
<path d="M66.2194 3.41463C67.1623 3.41463 67.9267 2.65024 67.9267 1.70732C67.9267 0.764392 67.1623 0 66.2194 0C65.2765 0 64.5121 0.764392 64.5121 1.70732C64.5121 2.65024 65.2765 3.41463 66.2194 3.41463Z" fill="#268ACD"/>
<path d="M87.5608 81.9508C88.5038 81.9508 89.2682 81.1864 89.2682 80.2435C89.2682 79.3005 88.5038 78.5361 87.5608 78.5361C86.6179 78.5361 85.8535 79.3005 85.8535 80.2435C85.8535 81.1864 86.6179 81.9508 87.5608 81.9508Z" fill="#268ACD"/>
<path d="M87.5608 62.317C88.5038 62.317 89.2682 61.5526 89.2682 60.6097C89.2682 59.6667 88.5038 58.9023 87.5608 58.9023C86.6179 58.9023 85.8535 59.6667 85.8535 60.6097C85.8535 61.5526 86.6179 62.317 87.5608 62.317Z" fill="#268ACD"/>
<path d="M87.5608 42.6832C88.5038 42.6832 89.2682 41.9188 89.2682 40.9759C89.2682 40.0329 88.5038 39.2686 87.5608 39.2686C86.6179 39.2686 85.8535 40.0329 85.8535 40.9759C85.8535 41.9188 86.6179 42.6832 87.5608 42.6832Z" fill="#268ACD"/>
<path d="M87.5608 23.0484C88.5038 23.0484 89.2682 22.284 89.2682 21.3411C89.2682 20.3982 88.5038 19.6338 87.5608 19.6338C86.6179 19.6338 85.8535 20.3982 85.8535 21.3411C85.8535 22.284 86.6179 23.0484 87.5608 23.0484Z" fill="#268ACD"/>
<path d="M87.5608 3.41463C88.5038 3.41463 89.2682 2.65024 89.2682 1.70732C89.2682 0.764392 88.5038 0 87.5608 0C86.6179 0 85.8535 0.764392 85.8535 1.70732C85.8535 2.65024 86.6179 3.41463 87.5608 3.41463Z" fill="#268ACD"/>
<path d="M108.902 81.9508C109.845 81.9508 110.61 81.1864 110.61 80.2435C110.61 79.3005 109.845 78.5361 108.902 78.5361C107.959 78.5361 107.195 79.3005 107.195 80.2435C107.195 81.1864 107.959 81.9508 108.902 81.9508Z" fill="#268ACD"/>
<path d="M108.902 62.317C109.845 62.317 110.61 61.5526 110.61 60.6097C110.61 59.6667 109.845 58.9023 108.902 58.9023C107.959 58.9023 107.195 59.6667 107.195 60.6097C107.195 61.5526 107.959 62.317 108.902 62.317Z" fill="#268ACD"/>
<path d="M108.902 42.6832C109.845 42.6832 110.61 41.9188 110.61 40.9759C110.61 40.0329 109.845 39.2686 108.902 39.2686C107.959 39.2686 107.195 40.0329 107.195 40.9759C107.195 41.9188 107.959 42.6832 108.902 42.6832Z" fill="#268ACD"/>
<path d="M108.902 23.0484C109.845 23.0484 110.61 22.284 110.61 21.3411C110.61 20.3982 109.845 19.6338 108.902 19.6338C107.959 19.6338 107.195 20.3982 107.195 21.3411C107.195 22.284 107.959 23.0484 108.902 23.0484Z" fill="#268ACD"/>
<path d="M108.902 3.41463C109.845 3.41463 110.61 2.65024 110.61 1.70732C110.61 0.764392 109.845 0 108.902 0C107.959 0 107.195 0.764392 107.195 1.70732C107.195 2.65024 107.959 3.41463 108.902 3.41463Z" fill="#268ACD"/>
<path d="M130.244 81.9508C131.187 81.9508 131.951 81.1864 131.951 80.2435C131.951 79.3005 131.187 78.5361 130.244 78.5361C129.301 78.5361 128.536 79.3005 128.536 80.2435C128.536 81.1864 129.301 81.9508 130.244 81.9508Z" fill="#268ACD"/>
<path d="M130.244 62.317C131.187 62.317 131.951 61.5526 131.951 60.6097C131.951 59.6667 131.187 58.9023 130.244 58.9023C129.301 58.9023 128.536 59.6667 128.536 60.6097C128.536 61.5526 129.301 62.317 130.244 62.317Z" fill="#268ACD"/>
<path d="M130.244 42.6832C131.187 42.6832 131.951 41.9188 131.951 40.9759C131.951 40.0329 131.187 39.2686 130.244 39.2686C129.301 39.2686 128.536 40.0329 128.536 40.9759C128.536 41.9188 129.301 42.6832 130.244 42.6832Z" fill="#268ACD"/>
<path d="M130.244 23.0484C131.187 23.0484 131.951 22.284 131.951 21.3411C131.951 20.3982 131.187 19.6338 130.244 19.6338C129.301 19.6338 128.536 20.3982 128.536 21.3411C128.536 22.284 129.301 23.0484 130.244 23.0484Z" fill="#268ACD"/>
<path d="M130.244 3.41463C131.187 3.41463 131.951 2.65024 131.951 1.70732C131.951 0.764392 131.187 0 130.244 0C129.301 0 128.536 0.764392 128.536 1.70732C128.536 2.65024 129.301 3.41463 130.244 3.41463Z" fill="#268ACD"/>
<path d="M151.585 81.9508C152.528 81.9508 153.293 81.1864 153.293 80.2435C153.293 79.3005 152.528 78.5361 151.585 78.5361C150.642 78.5361 149.878 79.3005 149.878 80.2435C149.878 81.1864 150.642 81.9508 151.585 81.9508Z" fill="#268ACD"/>
<path d="M151.585 62.317C152.528 62.317 153.293 61.5526 153.293 60.6097C153.293 59.6667 152.528 58.9023 151.585 58.9023C150.642 58.9023 149.878 59.6667 149.878 60.6097C149.878 61.5526 150.642 62.317 151.585 62.317Z" fill="#268ACD"/>
<path d="M151.585 42.6832C152.528 42.6832 153.293 41.9188 153.293 40.9759C153.293 40.0329 152.528 39.2686 151.585 39.2686C150.642 39.2686 149.878 40.0329 149.878 40.9759C149.878 41.9188 150.642 42.6832 151.585 42.6832Z" fill="#268ACD"/>
<path d="M151.585 23.0484C152.528 23.0484 153.293 22.284 153.293 21.3411C153.293 20.3982 152.528 19.6338 151.585 19.6338C150.642 19.6338 149.878 20.3982 149.878 21.3411C149.878 22.284 150.642 23.0484 151.585 23.0484Z" fill="#268ACD"/>
<path d="M151.585 3.41463C152.528 3.41463 153.293 2.65024 153.293 1.70732C153.293 0.764392 152.528 0 151.585 0C150.642 0 149.878 0.764392 149.878 1.70732C149.878 2.65024 150.642 3.41463 151.585 3.41463Z" fill="#268ACD"/>
<path d="M172.927 81.9508C173.87 81.9508 174.634 81.1864 174.634 80.2435C174.634 79.3005 173.87 78.5361 172.927 78.5361C171.984 78.5361 171.219 79.3005 171.219 80.2435C171.219 81.1864 171.984 81.9508 172.927 81.9508Z" fill="#268ACD"/>
<path d="M172.927 62.317C173.87 62.317 174.634 61.5526 174.634 60.6097C174.634 59.6667 173.87 58.9023 172.927 58.9023C171.984 58.9023 171.219 59.6667 171.219 60.6097C171.219 61.5526 171.984 62.317 172.927 62.317Z" fill="#268ACD"/>
<path d="M172.927 42.6832C173.87 42.6832 174.634 41.9188 174.634 40.9759C174.634 40.0329 173.87 39.2686 172.927 39.2686C171.984 39.2686 171.219 40.0329 171.219 40.9759C171.219 41.9188 171.984 42.6832 172.927 42.6832Z" fill="#268ACD"/>
<path d="M172.927 23.0484C173.87 23.0484 174.634 22.284 174.634 21.3411C174.634 20.3982 173.87 19.6338 172.927 19.6338C171.984 19.6338 171.219 20.3982 171.219 21.3411C171.219 22.284 171.984 23.0484 172.927 23.0484Z" fill="#268ACD"/>
<path d="M172.927 3.41463C173.87 3.41463 174.634 2.65024 174.634 1.70732C174.634 0.764392 173.87 0 172.927 0C171.984 0 171.219 0.764392 171.219 1.70732C171.219 2.65024 171.984 3.41463 172.927 3.41463Z" fill="#268ACD"/>
<path d="M194.268 81.9508C195.211 81.9508 195.976 81.1864 195.976 80.2435C195.976 79.3005 195.211 78.5361 194.268 78.5361C193.325 78.5361 192.561 79.3005 192.561 80.2435C192.561 81.1864 193.325 81.9508 194.268 81.9508Z" fill="#268ACD"/>
<path d="M194.268 62.317C195.211 62.317 195.976 61.5526 195.976 60.6097C195.976 59.6667 195.211 58.9023 194.268 58.9023C193.325 58.9023 192.561 59.6667 192.561 60.6097C192.561 61.5526 193.325 62.317 194.268 62.317Z" fill="#268ACD"/>
<path d="M194.268 42.6832C195.211 42.6832 195.976 41.9188 195.976 40.9759C195.976 40.0329 195.211 39.2686 194.268 39.2686C193.325 39.2686 192.561 40.0329 192.561 40.9759C192.561 41.9188 193.325 42.6832 194.268 42.6832Z" fill="#268ACD"/>
<path d="M194.268 23.0484C195.211 23.0484 195.976 22.284 195.976 21.3411C195.976 20.3982 195.211 19.6338 194.268 19.6338C193.325 19.6338 192.561 20.3982 192.561 21.3411C192.561 22.284 193.325 23.0484 194.268 23.0484Z" fill="#268ACD"/>
<path d="M194.268 3.41463C195.211 3.41463 195.976 2.65024 195.976 1.70732C195.976 0.764392 195.211 0 194.268 0C193.325 0 192.561 0.764392 192.561 1.70732C192.561 2.65024 193.325 3.41463 194.268 3.41463Z" fill="#268ACD"/>
<path d="M215.61 81.9508C216.553 81.9508 217.317 81.1864 217.317 80.2435C217.317 79.3005 216.553 78.5361 215.61 78.5361C214.667 78.5361 213.902 79.3005 213.902 80.2435C213.902 81.1864 214.667 81.9508 215.61 81.9508Z" fill="#268ACD"/>
<path d="M215.61 62.317C216.553 62.317 217.317 61.5526 217.317 60.6097C217.317 59.6667 216.553 58.9023 215.61 58.9023C214.667 58.9023 213.902 59.6667 213.902 60.6097C213.902 61.5526 214.667 62.317 215.61 62.317Z" fill="#268ACD"/>
<path d="M215.61 42.6832C216.553 42.6832 217.317 41.9188 217.317 40.9759C217.317 40.0329 216.553 39.2686 215.61 39.2686C214.667 39.2686 213.902 40.0329 213.902 40.9759C213.902 41.9188 214.667 42.6832 215.61 42.6832Z" fill="#268ACD"/>
<path d="M215.61 23.0484C216.553 23.0484 217.317 22.284 217.317 21.3411C217.317 20.3982 216.553 19.6338 215.61 19.6338C214.667 19.6338 213.902 20.3982 213.902 21.3411C213.902 22.284 214.667 23.0484 215.61 23.0484Z" fill="#268ACD"/>
<path d="M215.61 3.41463C216.553 3.41463 217.317 2.65024 217.317 1.70732C217.317 0.764392 216.553 0 215.61 0C214.667 0 213.902 0.764392 213.902 1.70732C213.902 2.65024 214.667 3.41463 215.61 3.41463Z" fill="#268ACD"/>
<path d="M236.951 81.9508C237.894 81.9508 238.658 81.1864 238.658 80.2435C238.658 79.3005 237.894 78.5361 236.951 78.5361C236.008 78.5361 235.244 79.3005 235.244 80.2435C235.244 81.1864 236.008 81.9508 236.951 81.9508Z" fill="#268ACD"/>
<path d="M236.951 62.317C237.894 62.317 238.658 61.5526 238.658 60.6097C238.658 59.6667 237.894 58.9023 236.951 58.9023C236.008 58.9023 235.244 59.6667 235.244 60.6097C235.244 61.5526 236.008 62.317 236.951 62.317Z" fill="#268ACD"/>
<path d="M236.951 42.6832C237.894 42.6832 238.658 41.9188 238.658 40.9759C238.658 40.0329 237.894 39.2686 236.951 39.2686C236.008 39.2686 235.244 40.0329 235.244 40.9759C235.244 41.9188 236.008 42.6832 236.951 42.6832Z" fill="#268ACD"/>
<path d="M236.951 23.0484C237.894 23.0484 238.658 22.284 238.658 21.3411C238.658 20.3982 237.894 19.6338 236.951 19.6338C236.008 19.6338 235.244 20.3982 235.244 21.3411C235.244 22.284 236.008 23.0484 236.951 23.0484Z" fill="#268ACD"/>
<path d="M236.951 3.41463C237.894 3.41463 238.658 2.65024 238.658 1.70732C238.658 0.764392 237.894 0 236.951 0C236.008 0 235.244 0.764392 235.244 1.70732C235.244 2.65024 236.008 3.41463 236.951 3.41463Z" fill="#268ACD"/>
<path d="M258.293 81.9508C259.235 81.9508 260 81.1864 260 80.2435C260 79.3005 259.235 78.5361 258.293 78.5361C257.35 78.5361 256.585 79.3005 256.585 80.2435C256.585 81.1864 257.35 81.9508 258.293 81.9508Z" fill="#268ACD"/>
<path d="M258.293 62.317C259.235 62.317 260 61.5526 260 60.6097C260 59.6667 259.235 58.9023 258.293 58.9023C257.35 58.9023 256.585 59.6667 256.585 60.6097C256.585 61.5526 257.35 62.317 258.293 62.317Z" fill="#268ACD"/>
<path d="M258.293 42.6832C259.235 42.6832 260 41.9188 260 40.9759C260 40.0329 259.235 39.2686 258.293 39.2686C257.35 39.2686 256.585 40.0329 256.585 40.9759C256.585 41.9188 257.35 42.6832 258.293 42.6832Z" fill="#268ACD"/>
<path d="M258.293 23.0484C259.235 23.0484 260 22.284 260 21.3411C260 20.3982 259.235 19.6338 258.293 19.6338C257.35 19.6338 256.585 20.3982 256.585 21.3411C256.585 22.284 257.35 23.0484 258.293 23.0484Z" fill="#268ACD"/>
<path d="M258.293 3.41463C259.235 3.41463 260 2.65024 260 1.70732C260 0.764392 259.235 0 258.293 0C257.35 0 256.585 0.764392 256.585 1.70732C256.585 2.65024 257.35 3.41463 258.293 3.41463Z" fill="#268ACD"/>
<path d="M279.634 81.9508C280.577 81.9508 281.341 81.1864 281.341 80.2435C281.341 79.3005 280.577 78.5361 279.634 78.5361C278.691 78.5361 277.927 79.3005 277.927 80.2435C277.927 81.1864 278.691 81.9508 279.634 81.9508Z" fill="#268ACD"/>
<path d="M279.634 62.317C280.577 62.317 281.341 61.5526 281.341 60.6097C281.341 59.6667 280.577 58.9023 279.634 58.9023C278.691 58.9023 277.927 59.6667 277.927 60.6097C277.927 61.5526 278.691 62.317 279.634 62.317Z" fill="#268ACD"/>
<path d="M279.634 42.6832C280.577 42.6832 281.341 41.9188 281.341 40.9759C281.341 40.0329 280.577 39.2686 279.634 39.2686C278.691 39.2686 277.927 40.0329 277.927 40.9759C277.927 41.9188 278.691 42.6832 279.634 42.6832Z" fill="#268ACD"/>
<path d="M279.634 23.0484C280.577 23.0484 281.341 22.284 281.341 21.3411C281.341 20.3982 280.577 19.6338 279.634 19.6338C278.691 19.6338 277.927 20.3982 277.927 21.3411C277.927 22.284 278.691 23.0484 279.634 23.0484Z" fill="#268ACD"/>
<path d="M279.634 3.41463C280.577 3.41463 281.341 2.65024 281.341 1.70732C281.341 0.764392 280.577 0 279.634 0C278.691 0 277.927 0.764392 277.927 1.70732C277.927 2.65024 278.691 3.41463 279.634 3.41463Z" fill="#268ACD"/>
<path d="M300.975 81.9508C301.918 81.9508 302.683 81.1864 302.683 80.2435C302.683 79.3005 301.918 78.5361 300.975 78.5361C300.032 78.5361 299.268 79.3005 299.268 80.2435C299.268 81.1864 300.032 81.9508 300.975 81.9508Z" fill="#268ACD"/>
<path d="M300.975 62.317C301.918 62.317 302.683 61.5526 302.683 60.6097C302.683 59.6667 301.918 58.9023 300.975 58.9023C300.032 58.9023 299.268 59.6667 299.268 60.6097C299.268 61.5526 300.032 62.317 300.975 62.317Z" fill="#268ACD"/>
<path d="M300.975 42.6832C301.918 42.6832 302.683 41.9188 302.683 40.9759C302.683 40.0329 301.918 39.2686 300.975 39.2686C300.032 39.2686 299.268 40.0329 299.268 40.9759C299.268 41.9188 300.032 42.6832 300.975 42.6832Z" fill="#268ACD"/>
<path d="M300.975 23.0484C301.918 23.0484 302.683 22.284 302.683 21.3411C302.683 20.3982 301.918 19.6338 300.975 19.6338C300.032 19.6338 299.268 20.3982 299.268 21.3411C299.268 22.284 300.032 23.0484 300.975 23.0484Z" fill="#268ACD"/>
<path d="M300.975 3.41463C301.918 3.41463 302.683 2.65024 302.683 1.70732C302.683 0.764392 301.918 0 300.975 0C300.032 0 299.268 0.764392 299.268 1.70732C299.268 2.65024 300.032 3.41463 300.975 3.41463Z" fill="#268ACD"/>
<path d="M1.70732 160C2.65024 160 3.41463 159.235 3.41463 158.292C3.41463 157.349 2.65024 156.585 1.70732 156.585C0.764392 156.585 0 157.349 0 158.292C0 159.235 0.764392 160 1.70732 160Z" fill="#268ACD"/>
<path d="M1.70732 140.366C2.65024 140.366 3.41463 139.601 3.41463 138.658C3.41463 137.716 2.65024 136.951 1.70732 136.951C0.764392 136.951 0 137.716 0 138.658C0 139.601 0.764392 140.366 1.70732 140.366Z" fill="#268ACD"/>
<path d="M1.70732 120.732C2.65024 120.732 3.41463 119.968 3.41463 119.025C3.41463 118.082 2.65024 117.317 1.70732 117.317C0.764392 117.317 0 118.082 0 119.025C0 119.968 0.764392 120.732 1.70732 120.732Z" fill="#268ACD"/>
<path d="M1.70732 101.097C2.65024 101.097 3.41463 100.333 3.41463 99.3899C3.41463 98.447 2.65024 97.6826 1.70732 97.6826C0.764392 97.6826 0 98.447 0 99.3899C0 100.333 0.764392 101.097 1.70732 101.097Z" fill="#268ACD"/>
<path d="M1.70732 81.4635C2.65024 81.4635 3.41463 80.6991 3.41463 79.7561C3.41463 78.8132 2.65024 78.0488 1.70732 78.0488C0.764392 78.0488 0 78.8132 0 79.7561C0 80.6991 0.764392 81.4635 1.70732 81.4635Z" fill="#268ACD"/>
<path d="M23.0487 160C23.9917 160 24.7561 159.235 24.7561 158.292C24.7561 157.349 23.9917 156.585 23.0487 156.585C22.1058 156.585 21.3414 157.349 21.3414 158.292C21.3414 159.235 22.1058 160 23.0487 160Z" fill="#268ACD"/>
<path d="M23.0487 140.366C23.9917 140.366 24.7561 139.601 24.7561 138.658C24.7561 137.716 23.9917 136.951 23.0487 136.951C22.1058 136.951 21.3414 137.716 21.3414 138.658C21.3414 139.601 22.1058 140.366 23.0487 140.366Z" fill="#268ACD"/>
<path d="M23.0487 120.732C23.9917 120.732 24.7561 119.968 24.7561 119.025C24.7561 118.082 23.9917 117.317 23.0487 117.317C22.1058 117.317 21.3414 118.082 21.3414 119.025C21.3414 119.968 22.1058 120.732 23.0487 120.732Z" fill="#268ACD"/>
<path d="M23.0487 101.097C23.9917 101.097 24.7561 100.333 24.7561 99.3899C24.7561 98.447 23.9917 97.6826 23.0487 97.6826C22.1058 97.6826 21.3414 98.447 21.3414 99.3899C21.3414 100.333 22.1058 101.097 23.0487 101.097Z" fill="#268ACD"/>
<path d="M23.0487 81.4635C23.9917 81.4635 24.7561 80.6991 24.7561 79.7561C24.7561 78.8132 23.9917 78.0488 23.0487 78.0488C22.1058 78.0488 21.3414 78.8132 21.3414 79.7561C21.3414 80.6991 22.1058 81.4635 23.0487 81.4635Z" fill="#268ACD"/>
<path d="M44.3903 160C45.3332 160 46.0976 159.235 46.0976 158.292C46.0976 157.349 45.3332 156.585 44.3903 156.585C43.4474 156.585 42.683 157.349 42.683 158.292C42.683 159.235 43.4474 160 44.3903 160Z" fill="#268ACD"/>
<path d="M44.3903 140.366C45.3332 140.366 46.0976 139.601 46.0976 138.658C46.0976 137.716 45.3332 136.951 44.3903 136.951C43.4474 136.951 42.683 137.716 42.683 138.658C42.683 139.601 43.4474 140.366 44.3903 140.366Z" fill="#268ACD"/>
<path d="M44.3903 120.732C45.3332 120.732 46.0976 119.968 46.0976 119.025C46.0976 118.082 45.3332 117.317 44.3903 117.317C43.4474 117.317 42.683 118.082 42.683 119.025C42.683 119.968 43.4474 120.732 44.3903 120.732Z" fill="#268ACD"/>
<path d="M44.3903 101.097C45.3332 101.097 46.0976 100.333 46.0976 99.3899C46.0976 98.447 45.3332 97.6826 44.3903 97.6826C43.4474 97.6826 42.683 98.447 42.683 99.3899C42.683 100.333 43.4474 101.097 44.3903 101.097Z" fill="#268ACD"/>
<path d="M44.3903 81.4635C45.3332 81.4635 46.0976 80.6991 46.0976 79.7561C46.0976 78.8132 45.3332 78.0488 44.3903 78.0488C43.4474 78.0488 42.683 78.8132 42.683 79.7561C42.683 80.6991 43.4474 81.4635 44.3903 81.4635Z" fill="#268ACD"/>
<path d="M65.7317 160C66.6747 160 67.439 159.235 67.439 158.292C67.439 157.349 66.6747 156.585 65.7317 156.585C64.7888 156.585 64.0244 157.349 64.0244 158.292C64.0244 159.235 64.7888 160 65.7317 160Z" fill="#268ACD"/>
<path d="M65.7317 140.366C66.6747 140.366 67.439 139.601 67.439 138.658C67.439 137.716 66.6747 136.951 65.7317 136.951C64.7888 136.951 64.0244 137.716 64.0244 138.658C64.0244 139.601 64.7888 140.366 65.7317 140.366Z" fill="#268ACD"/>
<path d="M65.7317 120.732C66.6747 120.732 67.439 119.968 67.439 119.025C67.439 118.082 66.6747 117.317 65.7317 117.317C64.7888 117.317 64.0244 118.082 64.0244 119.025C64.0244 119.968 64.7888 120.732 65.7317 120.732Z" fill="#268ACD"/>
<path d="M65.7317 101.097C66.6747 101.097 67.439 100.333 67.439 99.3899C67.439 98.447 66.6747 97.6826 65.7317 97.6826C64.7888 97.6826 64.0244 98.447 64.0244 99.3899C64.0244 100.333 64.7888 101.097 65.7317 101.097Z" fill="#268ACD"/>
<path d="M65.7317 81.4635C66.6747 81.4635 67.439 80.6991 67.439 79.7561C67.439 78.8132 66.6747 78.0488 65.7317 78.0488C64.7888 78.0488 64.0244 78.8132 64.0244 79.7561C64.0244 80.6991 64.7888 81.4635 65.7317 81.4635Z" fill="#268ACD"/>
<path d="M87.0732 160C88.0161 160 88.7805 159.235 88.7805 158.292C88.7805 157.349 88.0161 156.585 87.0732 156.585C86.1302 156.585 85.3658 157.349 85.3658 158.292C85.3658 159.235 86.1302 160 87.0732 160Z" fill="#268ACD"/>
<path d="M87.0732 140.366C88.0161 140.366 88.7805 139.601 88.7805 138.658C88.7805 137.716 88.0161 136.951 87.0732 136.951C86.1302 136.951 85.3658 137.716 85.3658 138.658C85.3658 139.601 86.1302 140.366 87.0732 140.366Z" fill="#268ACD"/>
<path d="M87.0732 120.732C88.0161 120.732 88.7805 119.968 88.7805 119.025C88.7805 118.082 88.0161 117.317 87.0732 117.317C86.1302 117.317 85.3658 118.082 85.3658 119.025C85.3658 119.968 86.1302 120.732 87.0732 120.732Z" fill="#268ACD"/>
<path d="M87.0732 101.097C88.0161 101.097 88.7805 100.333 88.7805 99.3899C88.7805 98.447 88.0161 97.6826 87.0732 97.6826C86.1302 97.6826 85.3658 98.447 85.3658 99.3899C85.3658 100.333 86.1302 101.097 87.0732 101.097Z" fill="#268ACD"/>
<path d="M87.0732 81.4635C88.0161 81.4635 88.7805 80.6991 88.7805 79.7561C88.7805 78.8132 88.0161 78.0488 87.0732 78.0488C86.1302 78.0488 85.3658 78.8132 85.3658 79.7561C85.3658 80.6991 86.1302 81.4635 87.0732 81.4635Z" fill="#268ACD"/>
<path d="M108.415 160C109.358 160 110.122 159.235 110.122 158.292C110.122 157.349 109.358 156.585 108.415 156.585C107.472 156.585 106.707 157.349 106.707 158.292C106.707 159.235 107.472 160 108.415 160Z" fill="#268ACD"/>
<path d="M108.415 140.366C109.358 140.366 110.122 139.601 110.122 138.658C110.122 137.716 109.358 136.951 108.415 136.951C107.472 136.951 106.707 137.716 106.707 138.658C106.707 139.601 107.472 140.366 108.415 140.366Z" fill="#268ACD"/>
<path d="M108.415 120.732C109.358 120.732 110.122 119.968 110.122 119.025C110.122 118.082 109.358 117.317 108.415 117.317C107.472 117.317 106.707 118.082 106.707 119.025C106.707 119.968 107.472 120.732 108.415 120.732Z" fill="#268ACD"/>
<path d="M108.415 101.097C109.358 101.097 110.122 100.333 110.122 99.3899C110.122 98.447 109.358 97.6826 108.415 97.6826C107.472 97.6826 106.707 98.447 106.707 99.3899C106.707 100.333 107.472 101.097 108.415 101.097Z" fill="#268ACD"/>
<path d="M108.415 81.4635C109.358 81.4635 110.122 80.6991 110.122 79.7561C110.122 78.8132 109.358 78.0488 108.415 78.0488C107.472 78.0488 106.707 78.8132 106.707 79.7561C106.707 80.6991 107.472 81.4635 108.415 81.4635Z" fill="#268ACD"/>
<path d="M129.756 160C130.699 160 131.463 159.235 131.463 158.292C131.463 157.349 130.699 156.585 129.756 156.585C128.813 156.585 128.049 157.349 128.049 158.292C128.049 159.235 128.813 160 129.756 160Z" fill="#268ACD"/>
<path d="M129.756 140.366C130.699 140.366 131.463 139.601 131.463 138.658C131.463 137.716 130.699 136.951 129.756 136.951C128.813 136.951 128.049 137.716 128.049 138.658C128.049 139.601 128.813 140.366 129.756 140.366Z" fill="#268ACD"/>
<path d="M129.756 120.732C130.699 120.732 131.463 119.968 131.463 119.025C131.463 118.082 130.699 117.317 129.756 117.317C128.813 117.317 128.049 118.082 128.049 119.025C128.049 119.968 128.813 120.732 129.756 120.732Z" fill="#268ACD"/>
<path d="M129.756 101.097C130.699 101.097 131.463 100.333 131.463 99.3899C131.463 98.447 130.699 97.6826 129.756 97.6826C128.813 97.6826 128.049 98.447 128.049 99.3899C128.049 100.333 128.813 101.097 129.756 101.097Z" fill="#268ACD"/>
<path d="M129.756 81.4635C130.699 81.4635 131.463 80.6991 131.463 79.7561C131.463 78.8132 130.699 78.0488 129.756 78.0488C128.813 78.0488 128.049 78.8132 128.049 79.7561C128.049 80.6991 128.813 81.4635 129.756 81.4635Z" fill="#268ACD"/>
<path d="M151.098 160C152.041 160 152.805 159.235 152.805 158.292C152.805 157.349 152.041 156.585 151.098 156.585C150.155 156.585 149.39 157.349 149.39 158.292C149.39 159.235 150.155 160 151.098 160Z" fill="#268ACD"/>
<path d="M151.098 140.366C152.041 140.366 152.805 139.601 152.805 138.658C152.805 137.716 152.041 136.951 151.098 136.951C150.155 136.951 149.39 137.716 149.39 138.658C149.39 139.601 150.155 140.366 151.098 140.366Z" fill="#268ACD"/>
<path d="M151.098 120.732C152.041 120.732 152.805 119.968 152.805 119.025C152.805 118.082 152.041 117.317 151.098 117.317C150.155 117.317 149.39 118.082 149.39 119.025C149.39 119.968 150.155 120.732 151.098 120.732Z" fill="#268ACD"/>
<path d="M151.098 101.097C152.041 101.097 152.805 100.333 152.805 99.3899C152.805 98.447 152.041 97.6826 151.098 97.6826C150.155 97.6826 149.39 98.447 149.39 99.3899C149.39 100.333 150.155 101.097 151.098 101.097Z" fill="#268ACD"/>
<path d="M151.098 81.4635C152.041 81.4635 152.805 80.6991 152.805 79.7561C152.805 78.8132 152.041 78.0488 151.098 78.0488C150.155 78.0488 149.39 78.8132 149.39 79.7561C149.39 80.6991 150.155 81.4635 151.098 81.4635Z" fill="#268ACD"/>
<path d="M172.439 160C173.382 160 174.146 159.235 174.146 158.292C174.146 157.349 173.382 156.585 172.439 156.585C171.496 156.585 170.732 157.349 170.732 158.292C170.732 159.235 171.496 160 172.439 160Z" fill="#268ACD"/>
<path d="M172.439 140.366C173.382 140.366 174.146 139.601 174.146 138.658C174.146 137.716 173.382 136.951 172.439 136.951C171.496 136.951 170.732 137.716 170.732 138.658C170.732 139.601 171.496 140.366 172.439 140.366Z" fill="#268ACD"/>
<path d="M172.439 120.732C173.382 120.732 174.146 119.968 174.146 119.025C174.146 118.082 173.382 117.317 172.439 117.317C171.496 117.317 170.732 118.082 170.732 119.025C170.732 119.968 171.496 120.732 172.439 120.732Z" fill="#268ACD"/>
<path d="M172.439 101.097C173.382 101.097 174.146 100.333 174.146 99.3899C174.146 98.447 173.382 97.6826 172.439 97.6826C171.496 97.6826 170.732 98.447 170.732 99.3899C170.732 100.333 171.496 101.097 172.439 101.097Z" fill="#268ACD"/>
<path d="M172.439 81.4635C173.382 81.4635 174.146 80.6991 174.146 79.7561C174.146 78.8132 173.382 78.0488 172.439 78.0488C171.496 78.0488 170.732 78.8132 170.732 79.7561C170.732 80.6991 171.496 81.4635 172.439 81.4635Z" fill="#268ACD"/>
<path d="M193.781 160C194.723 160 195.488 159.235 195.488 158.292C195.488 157.349 194.723 156.585 193.781 156.585C192.838 156.585 192.073 157.349 192.073 158.292C192.073 159.235 192.838 160 193.781 160Z" fill="#268ACD"/>
<path d="M193.781 140.366C194.723 140.366 195.488 139.601 195.488 138.658C195.488 137.716 194.723 136.951 193.781 136.951C192.838 136.951 192.073 137.716 192.073 138.658C192.073 139.601 192.838 140.366 193.781 140.366Z" fill="#268ACD"/>
<path d="M193.781 120.732C194.723 120.732 195.488 119.968 195.488 119.025C195.488 118.082 194.723 117.317 193.781 117.317C192.838 117.317 192.073 118.082 192.073 119.025C192.073 119.968 192.838 120.732 193.781 120.732Z" fill="#268ACD"/>
<path d="M193.781 101.097C194.723 101.097 195.488 100.333 195.488 99.3899C195.488 98.447 194.723 97.6826 193.781 97.6826C192.838 97.6826 192.073 98.447 192.073 99.3899C192.073 100.333 192.838 101.097 193.781 101.097Z" fill="#268ACD"/>
<path d="M193.781 81.4635C194.723 81.4635 195.488 80.6991 195.488 79.7561C195.488 78.8132 194.723 78.0488 193.781 78.0488C192.838 78.0488 192.073 78.8132 192.073 79.7561C192.073 80.6991 192.838 81.4635 193.781 81.4635Z" fill="#268ACD"/>
<path d="M215.122 160C216.065 160 216.829 159.235 216.829 158.292C216.829 157.349 216.065 156.585 215.122 156.585C214.179 156.585 213.415 157.349 213.415 158.292C213.415 159.235 214.179 160 215.122 160Z" fill="#268ACD"/>
<path d="M215.122 140.366C216.065 140.366 216.829 139.601 216.829 138.658C216.829 137.716 216.065 136.951 215.122 136.951C214.179 136.951 213.415 137.716 213.415 138.658C213.415 139.601 214.179 140.366 215.122 140.366Z" fill="#268ACD"/>
<path d="M215.122 120.732C216.065 120.732 216.829 119.968 216.829 119.025C216.829 118.082 216.065 117.317 215.122 117.317C214.179 117.317 213.415 118.082 213.415 119.025C213.415 119.968 214.179 120.732 215.122 120.732Z" fill="#268ACD"/>
<path d="M215.122 101.097C216.065 101.097 216.829 100.333 216.829 99.3899C216.829 98.447 216.065 97.6826 215.122 97.6826C214.179 97.6826 213.415 98.447 213.415 99.3899C213.415 100.333 214.179 101.097 215.122 101.097Z" fill="#268ACD"/>
<path d="M215.122 81.4635C216.065 81.4635 216.829 80.6991 216.829 79.7561C216.829 78.8132 216.065 78.0488 215.122 78.0488C214.179 78.0488 213.415 78.8132 213.415 79.7561C213.415 80.6991 214.179 81.4635 215.122 81.4635Z" fill="#268ACD"/>
<path d="M236.463 160C237.406 160 238.171 159.235 238.171 158.292C238.171 157.349 237.406 156.585 236.463 156.585C235.52 156.585 234.756 157.349 234.756 158.292C234.756 159.235 235.52 160 236.463 160Z" fill="#268ACD"/>
<path d="M236.463 140.366C237.406 140.366 238.171 139.601 238.171 138.658C238.171 137.716 237.406 136.951 236.463 136.951C235.52 136.951 234.756 137.716 234.756 138.658C234.756 139.601 235.52 140.366 236.463 140.366Z" fill="#268ACD"/>
<path d="M236.463 120.732C237.406 120.732 238.171 119.968 238.171 119.025C238.171 118.082 237.406 117.317 236.463 117.317C235.52 117.317 234.756 118.082 234.756 119.025C234.756 119.968 235.52 120.732 236.463 120.732Z" fill="#268ACD"/>
<path d="M236.463 101.097C237.406 101.097 238.171 100.333 238.171 99.3899C238.171 98.447 237.406 97.6826 236.463 97.6826C235.52 97.6826 234.756 98.447 234.756 99.3899C234.756 100.333 235.52 101.097 236.463 101.097Z" fill="#268ACD"/>
<path d="M236.463 81.4635C237.406 81.4635 238.171 80.6991 238.171 79.7561C238.171 78.8132 237.406 78.0488 236.463 78.0488C235.52 78.0488 234.756 78.8132 234.756 79.7561C234.756 80.6991 235.52 81.4635 236.463 81.4635Z" fill="#268ACD"/>
<path d="M257.805 160C258.748 160 259.512 159.235 259.512 158.292C259.512 157.349 258.748 156.585 257.805 156.585C256.862 156.585 256.097 157.349 256.097 158.292C256.097 159.235 256.862 160 257.805 160Z" fill="#268ACD"/>
<path d="M257.805 140.366C258.748 140.366 259.512 139.601 259.512 138.658C259.512 137.716 258.748 136.951 257.805 136.951C256.862 136.951 256.097 137.716 256.097 138.658C256.097 139.601 256.862 140.366 257.805 140.366Z" fill="#268ACD"/>
<path d="M257.805 120.732C258.748 120.732 259.512 119.968 259.512 119.025C259.512 118.082 258.748 117.317 257.805 117.317C256.862 117.317 256.097 118.082 256.097 119.025C256.097 119.968 256.862 120.732 257.805 120.732Z" fill="#268ACD"/>
<path d="M257.805 101.097C258.748 101.097 259.512 100.333 259.512 99.3899C259.512 98.447 258.748 97.6826 257.805 97.6826C256.862 97.6826 256.097 98.447 256.097 99.3899C256.097 100.333 256.862 101.097 257.805 101.097Z" fill="#268ACD"/>
<path d="M257.805 81.4635C258.748 81.4635 259.512 80.6991 259.512 79.7561C259.512 78.8132 258.748 78.0488 257.805 78.0488C256.862 78.0488 256.097 78.8132 256.097 79.7561C256.097 80.6991 256.862 81.4635 257.805 81.4635Z" fill="#268ACD"/>
<path d="M279.146 160C280.089 160 280.854 159.235 280.854 158.292C280.854 157.349 280.089 156.585 279.146 156.585C278.203 156.585 277.439 157.349 277.439 158.292C277.439 159.235 278.203 160 279.146 160Z" fill="#268ACD"/>
<path d="M279.146 140.366C280.089 140.366 280.854 139.601 280.854 138.658C280.854 137.716 280.089 136.951 279.146 136.951C278.203 136.951 277.439 137.716 277.439 138.658C277.439 139.601 278.203 140.366 279.146 140.366Z" fill="#268ACD"/>
<path d="M279.146 120.732C280.089 120.732 280.854 119.968 280.854 119.025C280.854 118.082 280.089 117.317 279.146 117.317C278.203 117.317 277.439 118.082 277.439 119.025C277.439 119.968 278.203 120.732 279.146 120.732Z" fill="#268ACD"/>
<path d="M279.146 101.097C280.089 101.097 280.854 100.333 280.854 99.3899C280.854 98.447 280.089 97.6826 279.146 97.6826C278.203 97.6826 277.439 98.447 277.439 99.3899C277.439 100.333 278.203 101.097 279.146 101.097Z" fill="#268ACD"/>
<path d="M279.146 81.4635C280.089 81.4635 280.854 80.6991 280.854 79.7561C280.854 78.8132 280.089 78.0488 279.146 78.0488C278.203 78.0488 277.439 78.8132 277.439 79.7561C277.439 80.6991 278.203 81.4635 279.146 81.4635Z" fill="#268ACD"/>
<path d="M300.488 160C301.431 160 302.195 159.235 302.195 158.292C302.195 157.349 301.431 156.585 300.488 156.585C299.545 156.585 298.78 157.349 298.78 158.292C298.78 159.235 299.545 160 300.488 160Z" fill="#268ACD"/>
<path d="M300.488 140.366C301.431 140.366 302.195 139.601 302.195 138.658C302.195 137.716 301.431 136.951 300.488 136.951C299.545 136.951 298.78 137.716 298.78 138.658C298.78 139.601 299.545 140.366 300.488 140.366Z" fill="#268ACD"/>
<path d="M300.488 120.732C301.431 120.732 302.195 119.968 302.195 119.025C302.195 118.082 301.431 117.317 300.488 117.317C299.545 117.317 298.78 118.082 298.78 119.025C298.78 119.968 299.545 120.732 300.488 120.732Z" fill="#268ACD"/>
<path d="M300.488 101.097C301.431 101.097 302.195 100.333 302.195 99.3899C302.195 98.447 301.431 97.6826 300.488 97.6826C299.545 97.6826 298.78 98.447 298.78 99.3899C298.78 100.333 299.545 101.097 300.488 101.097Z" fill="#268ACD"/>
<path d="M300.488 81.4635C301.431 81.4635 302.195 80.6991 302.195 79.7561C302.195 78.8132 301.431 78.0488 300.488 78.0488C299.545 78.0488 298.78 78.8132 298.78 79.7561C298.78 80.6991 299.545 81.4635 300.488 81.4635Z" fill="#268ACD"/>
</svg>
