<svg width="84" height="220" viewBox="0 0 84 220" fill="none" xmlns="http://www.w3.org/2000/svg">
<g id="Group">
<path id="Vector" d="M84 217.874C84 217.077 83.2165 216.431 82.25 216.431C81.2835 216.431 80.5 217.077 80.5 217.874C80.5 218.67 81.2835 219.316 82.25 219.316C83.2165 219.316 84 218.67 84 217.874Z" fill="#FF696E"/>
<path id="Vector_2" d="M63.875 217.874C63.875 217.077 63.0915 216.431 62.125 216.431C61.1585 216.431 60.375 217.077 60.375 217.874C60.375 218.67 61.1585 219.316 62.125 219.316C63.0915 219.316 63.875 218.67 63.875 217.874Z" fill="#FF696E"/>
<path id="Vector_3" d="M43.75 217.874C43.75 217.077 42.9665 216.431 42 216.431C41.0335 216.431 40.25 217.077 40.25 217.874C40.25 218.67 41.0335 219.316 42 219.316C42.9665 219.316 43.75 218.67 43.75 217.874Z" fill="#FF696E"/>
<path id="Vector_4" d="M23.625 217.874C23.625 217.077 22.8415 216.431 21.875 216.431C20.9085 216.431 20.125 217.077 20.125 217.874C20.125 218.67 20.9085 219.316 21.875 219.316C22.8415 219.316 23.625 218.67 23.625 217.874Z" fill="#FF696E"/>
<path id="Vector_5" d="M3.5 217.874C3.5 217.077 2.7165 216.431 1.75 216.431C0.783502 216.431 0 217.077 0 217.874C0 218.67 0.783502 219.316 1.75 219.316C2.7165 219.316 3.5 218.67 3.5 217.874Z" fill="#FF696E"/>
<path id="Vector_6" d="M84 199.837C84 199.041 83.2165 198.395 82.25 198.395C81.2835 198.395 80.5 199.041 80.5 199.837C80.5 200.634 81.2835 201.28 82.25 201.28C83.2165 201.28 84 200.634 84 199.837Z" fill="#FF696E"/>
<path id="Vector_7" d="M63.875 199.837C63.875 199.041 63.0915 198.395 62.125 198.395C61.1585 198.395 60.375 199.041 60.375 199.837C60.375 200.634 61.1585 201.28 62.125 201.28C63.0915 201.28 63.875 200.634 63.875 199.837Z" fill="#FF696E"/>
<path id="Vector_8" d="M43.75 199.837C43.75 199.041 42.9665 198.395 42 198.395C41.0335 198.395 40.25 199.041 40.25 199.837C40.25 200.634 41.0335 201.28 42 201.28C42.9665 201.28 43.75 200.634 43.75 199.837Z" fill="#FF696E"/>
<path id="Vector_9" d="M23.625 199.837C23.625 199.041 22.8415 198.395 21.875 198.395C20.9085 198.395 20.125 199.041 20.125 199.837C20.125 200.634 20.9085 201.28 21.875 201.28C22.8415 201.28 23.625 200.634 23.625 199.837Z" fill="#FF696E"/>
<path id="Vector_10" d="M3.5 199.837C3.5 199.041 2.7165 198.395 1.75 198.395C0.783502 198.395 0 199.041 0 199.837C0 200.634 0.783502 201.28 1.75 201.28C2.7165 201.28 3.5 200.634 3.5 199.837Z" fill="#FF696E"/>
<path id="Vector_11" d="M84 181.801C84 181.004 83.2165 180.358 82.25 180.358C81.2835 180.358 80.5 181.004 80.5 181.801C80.5 182.598 81.2835 183.244 82.25 183.244C83.2165 183.244 84 182.598 84 181.801Z" fill="#FF696E"/>
<path id="Vector_12" d="M63.875 181.801C63.875 181.004 63.0915 180.358 62.125 180.358C61.1585 180.358 60.375 181.004 60.375 181.801C60.375 182.598 61.1585 183.244 62.125 183.244C63.0915 183.244 63.875 182.598 63.875 181.801Z" fill="#FF696E"/>
<path id="Vector_13" d="M43.75 181.801C43.75 181.004 42.9665 180.358 42 180.358C41.0335 180.358 40.25 181.004 40.25 181.801C40.25 182.598 41.0335 183.244 42 183.244C42.9665 183.244 43.75 182.598 43.75 181.801Z" fill="#FF696E"/>
<path id="Vector_14" d="M23.625 181.801C23.625 181.004 22.8415 180.358 21.875 180.358C20.9085 180.358 20.125 181.004 20.125 181.801C20.125 182.598 20.9085 183.244 21.875 183.244C22.8415 183.244 23.625 182.598 23.625 181.801Z" fill="#FF696E"/>
<path id="Vector_15" d="M3.5 181.801C3.5 181.004 2.7165 180.358 1.75 180.358C0.783502 180.358 0 181.004 0 181.801C0 182.598 0.783502 183.244 1.75 183.244C2.7165 183.244 3.5 182.598 3.5 181.801Z" fill="#FF696E"/>
<path id="Vector_16" d="M84 163.765C84 162.968 83.2165 162.322 82.25 162.322C81.2835 162.322 80.5 162.968 80.5 163.765C80.5 164.562 81.2835 165.208 82.25 165.208C83.2165 165.208 84 164.562 84 163.765Z" fill="#FF696E"/>
<path id="Vector_17" d="M63.875 163.765C63.875 162.968 63.0915 162.322 62.125 162.322C61.1585 162.322 60.375 162.968 60.375 163.765C60.375 164.562 61.1585 165.208 62.125 165.208C63.0915 165.208 63.875 164.562 63.875 163.765Z" fill="#FF696E"/>
<path id="Vector_18" d="M43.75 163.765C43.75 162.968 42.9665 162.322 42 162.322C41.0335 162.322 40.25 162.968 40.25 163.765C40.25 164.562 41.0335 165.208 42 165.208C42.9665 165.208 43.75 164.562 43.75 163.765Z" fill="#FF696E"/>
<path id="Vector_19" d="M23.625 163.765C23.625 162.968 22.8415 162.322 21.875 162.322C20.9085 162.322 20.125 162.968 20.125 163.765C20.125 164.562 20.9085 165.208 21.875 165.208C22.8415 165.208 23.625 164.562 23.625 163.765Z" fill="#FF696E"/>
<path id="Vector_20" d="M3.5 163.765C3.5 162.968 2.7165 162.322 1.75 162.322C0.783502 162.322 0 162.968 0 163.765C0 164.562 0.783502 165.208 1.75 165.208C2.7165 165.208 3.5 164.562 3.5 163.765Z" fill="#FF696E"/>
<path id="Vector_21" d="M84 145.73C84 144.933 83.2165 144.287 82.25 144.287C81.2835 144.287 80.5 144.933 80.5 145.73C80.5 146.527 81.2835 147.173 82.25 147.173C83.2165 147.173 84 146.527 84 145.73Z" fill="#FF696E"/>
<path id="Vector_22" d="M63.875 145.73C63.875 144.933 63.0915 144.287 62.125 144.287C61.1585 144.287 60.375 144.933 60.375 145.73C60.375 146.527 61.1585 147.173 62.125 147.173C63.0915 147.173 63.875 146.527 63.875 145.73Z" fill="#FF696E"/>
<path id="Vector_23" d="M43.75 145.73C43.75 144.933 42.9665 144.287 42 144.287C41.0335 144.287 40.25 144.933 40.25 145.73C40.25 146.527 41.0335 147.173 42 147.173C42.9665 147.173 43.75 146.527 43.75 145.73Z" fill="#FF696E"/>
<path id="Vector_24" d="M23.625 145.73C23.625 144.933 22.8415 144.287 21.875 144.287C20.9085 144.287 20.125 144.933 20.125 145.73C20.125 146.527 20.9085 147.173 21.875 147.173C22.8415 147.173 23.625 146.527 23.625 145.73Z" fill="#FF696E"/>
<path id="Vector_25" d="M3.5 145.73C3.5 144.933 2.7165 144.287 1.75 144.287C0.783502 144.287 0 144.933 0 145.73C0 146.527 0.783502 147.173 1.75 147.173C2.7165 147.173 3.5 146.527 3.5 145.73Z" fill="#FF696E"/>
<path id="Vector_26" d="M84 127.694C84 126.897 83.2165 126.251 82.25 126.251C81.2835 126.251 80.5 126.897 80.5 127.694C80.5 128.491 81.2835 129.137 82.25 129.137C83.2165 129.137 84 128.491 84 127.694Z" fill="#FF696E"/>
<path id="Vector_27" d="M63.875 127.694C63.875 126.897 63.0915 126.251 62.125 126.251C61.1585 126.251 60.375 126.897 60.375 127.694C60.375 128.491 61.1585 129.137 62.125 129.137C63.0915 129.137 63.875 128.491 63.875 127.694Z" fill="#FF696E"/>
<path id="Vector_28" d="M43.75 127.694C43.75 126.897 42.9665 126.251 42 126.251C41.0335 126.251 40.25 126.897 40.25 127.694C40.25 128.491 41.0335 129.137 42 129.137C42.9665 129.137 43.75 128.491 43.75 127.694Z" fill="#FF696E"/>
<path id="Vector_29" d="M23.625 127.694C23.625 126.897 22.8415 126.251 21.875 126.251C20.9085 126.251 20.125 126.897 20.125 127.694C20.125 128.491 20.9085 129.137 21.875 129.137C22.8415 129.137 23.625 128.491 23.625 127.694Z" fill="#FF696E"/>
<path id="Vector_30" d="M3.5 127.694C3.5 126.897 2.7165 126.251 1.75 126.251C0.783502 126.251 0 126.897 0 127.694C0 128.491 0.783502 129.137 1.75 129.137C2.7165 129.137 3.5 128.491 3.5 127.694Z" fill="#FF696E"/>
<path id="Vector_31" d="M84 109.658C84 108.861 83.2165 108.215 82.25 108.215C81.2835 108.215 80.5 108.861 80.5 109.658C80.5 110.455 81.2835 111.101 82.25 111.101C83.2165 111.101 84 110.455 84 109.658Z" fill="#FF696E"/>
<path id="Vector_32" d="M63.875 109.658C63.875 108.861 63.0915 108.215 62.125 108.215C61.1585 108.215 60.375 108.861 60.375 109.658C60.375 110.455 61.1585 111.101 62.125 111.101C63.0915 111.101 63.875 110.455 63.875 109.658Z" fill="#FF696E"/>
<path id="Vector_33" d="M43.75 109.658C43.75 108.861 42.9665 108.215 42 108.215C41.0335 108.215 40.25 108.861 40.25 109.658C40.25 110.455 41.0335 111.101 42 111.101C42.9665 111.101 43.75 110.455 43.75 109.658Z" fill="#FF696E"/>
<path id="Vector_34" d="M23.625 109.658C23.625 108.861 22.8415 108.215 21.875 108.215C20.9085 108.215 20.125 108.861 20.125 109.658C20.125 110.455 20.9085 111.101 21.875 111.101C22.8415 111.101 23.625 110.455 23.625 109.658Z" fill="#FF696E"/>
<path id="Vector_35" d="M3.5 109.658C3.5 108.861 2.7165 108.215 1.75 108.215C0.783502 108.215 0 108.861 0 109.658C0 110.455 0.783502 111.101 1.75 111.101C2.7165 111.101 3.5 110.455 3.5 109.658Z" fill="#FF696E"/>
<path id="Vector_36" d="M84 91.6216C84 90.8247 83.2165 90.1787 82.25 90.1787C81.2835 90.1787 80.5 90.8247 80.5 91.6216C80.5 92.4185 81.2835 93.0645 82.25 93.0645C83.2165 93.0645 84 92.4185 84 91.6216Z" fill="#FF696E"/>
<path id="Vector_37" d="M63.875 91.6216C63.875 90.8247 63.0915 90.1787 62.125 90.1787C61.1585 90.1787 60.375 90.8247 60.375 91.6216C60.375 92.4185 61.1585 93.0645 62.125 93.0645C63.0915 93.0645 63.875 92.4185 63.875 91.6216Z" fill="#FF696E"/>
<path id="Vector_38" d="M43.75 91.6216C43.75 90.8247 42.9665 90.1787 42 90.1787C41.0335 90.1787 40.25 90.8247 40.25 91.6216C40.25 92.4185 41.0335 93.0645 42 93.0645C42.9665 93.0645 43.75 92.4185 43.75 91.6216Z" fill="#FF696E"/>
<path id="Vector_39" d="M23.625 91.6216C23.625 90.8247 22.8415 90.1787 21.875 90.1787C20.9085 90.1787 20.125 90.8247 20.125 91.6216C20.125 92.4185 20.9085 93.0645 21.875 93.0645C22.8415 93.0645 23.625 92.4185 23.625 91.6216Z" fill="#FF696E"/>
<path id="Vector_40" d="M3.5 91.6216C3.5 90.8247 2.7165 90.1787 1.75 90.1787C0.783502 90.1787 0 90.8247 0 91.6216C0 92.4185 0.783502 93.0645 1.75 93.0645C2.7165 93.0645 3.5 92.4185 3.5 91.6216Z" fill="#FF696E"/>
<path id="Vector_41" d="M84 73.5864C84 72.7896 83.2165 72.1436 82.25 72.1436C81.2835 72.1436 80.5 72.7896 80.5 73.5864C80.5 74.3833 81.2835 75.0293 82.25 75.0293C83.2165 75.0293 84 74.3833 84 73.5864Z" fill="#FF696E"/>
<path id="Vector_42" d="M63.875 73.5864C63.875 72.7896 63.0915 72.1436 62.125 72.1436C61.1585 72.1436 60.375 72.7896 60.375 73.5864C60.375 74.3833 61.1585 75.0293 62.125 75.0293C63.0915 75.0293 63.875 74.3833 63.875 73.5864Z" fill="#FF696E"/>
<path id="Vector_43" d="M43.75 73.5864C43.75 72.7896 42.9665 72.1436 42 72.1436C41.0335 72.1436 40.25 72.7896 40.25 73.5864C40.25 74.3833 41.0335 75.0293 42 75.0293C42.9665 75.0293 43.75 74.3833 43.75 73.5864Z" fill="#FF696E"/>
<path id="Vector_44" d="M23.625 73.5864C23.625 72.7896 22.8415 72.1436 21.875 72.1436C20.9085 72.1436 20.125 72.7896 20.125 73.5864C20.125 74.3833 20.9085 75.0293 21.875 75.0293C22.8415 75.0293 23.625 74.3833 23.625 73.5864Z" fill="#FF696E"/>
<path id="Vector_45" d="M3.5 73.5864C3.5 72.7896 2.7165 72.1436 1.75 72.1436C0.783502 72.1436 0 72.7896 0 73.5864C0 74.3833 0.783502 75.0293 1.75 75.0293C2.7165 75.0293 3.5 74.3833 3.5 73.5864Z" fill="#FF696E"/>
<path id="Vector_46" d="M84 55.5503C84 54.7534 83.2165 54.1074 82.25 54.1074C81.2835 54.1074 80.5 54.7534 80.5 55.5503C80.5 56.3472 81.2835 56.9932 82.25 56.9932C83.2165 56.9932 84 56.3472 84 55.5503Z" fill="#FF696E"/>
<path id="Vector_47" d="M63.875 55.5503C63.875 54.7534 63.0915 54.1074 62.125 54.1074C61.1585 54.1074 60.375 54.7534 60.375 55.5503C60.375 56.3472 61.1585 56.9932 62.125 56.9932C63.0915 56.9932 63.875 56.3472 63.875 55.5503Z" fill="#FF696E"/>
<path id="Vector_48" d="M43.75 55.5503C43.75 54.7534 42.9665 54.1074 42 54.1074C41.0335 54.1074 40.25 54.7534 40.25 55.5503C40.25 56.3472 41.0335 56.9932 42 56.9932C42.9665 56.9932 43.75 56.3472 43.75 55.5503Z" fill="#FF696E"/>
<path id="Vector_49" d="M23.625 55.5503C23.625 54.7534 22.8415 54.1074 21.875 54.1074C20.9085 54.1074 20.125 54.7534 20.125 55.5503C20.125 56.3472 20.9085 56.9932 21.875 56.9932C22.8415 56.9932 23.625 56.3472 23.625 55.5503Z" fill="#FF696E"/>
<path id="Vector_50" d="M3.5 55.5503C3.5 54.7534 2.7165 54.1074 1.75 54.1074C0.783502 54.1074 0 54.7534 0 55.5503C0 56.3472 0.783502 56.9932 1.75 56.9932C2.7165 56.9932 3.5 56.3472 3.5 55.5503Z" fill="#FF696E"/>
<path id="Vector_51" d="M84 37.5142C84 36.7173 83.2165 36.0713 82.25 36.0713C81.2835 36.0713 80.5 36.7173 80.5 37.5142C80.5 38.311 81.2835 38.957 82.25 38.957C83.2165 38.957 84 38.311 84 37.5142Z" fill="#FF696E"/>
<path id="Vector_52" d="M63.875 37.5142C63.875 36.7173 63.0915 36.0713 62.125 36.0713C61.1585 36.0713 60.375 36.7173 60.375 37.5142C60.375 38.311 61.1585 38.957 62.125 38.957C63.0915 38.957 63.875 38.311 63.875 37.5142Z" fill="#FF696E"/>
<path id="Vector_53" d="M43.75 37.5142C43.75 36.7173 42.9665 36.0713 42 36.0713C41.0335 36.0713 40.25 36.7173 40.25 37.5142C40.25 38.311 41.0335 38.957 42 38.957C42.9665 38.957 43.75 38.311 43.75 37.5142Z" fill="#FF696E"/>
<path id="Vector_54" d="M23.625 37.5142C23.625 36.7173 22.8415 36.0713 21.875 36.0713C20.9085 36.0713 20.125 36.7173 20.125 37.5142C20.125 38.311 20.9085 38.957 21.875 38.957C22.8415 38.957 23.625 38.311 23.625 37.5142Z" fill="#FF696E"/>
<path id="Vector_55" d="M3.5 37.5142C3.5 36.7173 2.7165 36.0713 1.75 36.0713C0.783502 36.0713 0 36.7173 0 37.5142C0 38.311 0.783502 38.957 1.75 38.957C2.7165 38.957 3.5 38.311 3.5 37.5142Z" fill="#FF696E"/>
<path id="Vector_56" d="M84 19.478C84 18.6812 83.2165 18.0352 82.25 18.0352C81.2835 18.0352 80.5 18.6812 80.5 19.478C80.5 20.2749 81.2835 20.9209 82.25 20.9209C83.2165 20.9209 84 20.2749 84 19.478Z" fill="#FF696E"/>
<path id="Vector_57" d="M63.875 19.478C63.875 18.6812 63.0915 18.0352 62.125 18.0352C61.1585 18.0352 60.375 18.6812 60.375 19.478C60.375 20.2749 61.1585 20.9209 62.125 20.9209C63.0915 20.9209 63.875 20.2749 63.875 19.478Z" fill="#FF696E"/>
<path id="Vector_58" d="M43.75 19.478C43.75 18.6812 42.9665 18.0352 42 18.0352C41.0335 18.0352 40.25 18.6812 40.25 19.478C40.25 20.2749 41.0335 20.9209 42 20.9209C42.9665 20.9209 43.75 20.2749 43.75 19.478Z" fill="#FF696E"/>
<path id="Vector_59" d="M23.625 19.478C23.625 18.6812 22.8415 18.0352 21.875 18.0352C20.9085 18.0352 20.125 18.6812 20.125 19.478C20.125 20.2749 20.9085 20.9209 21.875 20.9209C22.8415 20.9209 23.625 20.2749 23.625 19.478Z" fill="#FF696E"/>
<path id="Vector_60" d="M3.5 19.478C3.5 18.6812 2.7165 18.0352 1.75 18.0352C0.783502 18.0352 0 18.6812 0 19.478C0 20.2749 0.783502 20.9209 1.75 20.9209C2.7165 20.9209 3.5 20.2749 3.5 19.478Z" fill="#FF696E"/>
<path id="Vector_61" d="M84 1.44287C84 0.645996 83.2165 4.76837e-07 82.25 4.76837e-07C81.2835 4.76837e-07 80.5 0.645996 80.5 1.44287C80.5 2.23975 81.2835 2.88574 82.25 2.88574C83.2165 2.88574 84 2.23975 84 1.44287Z" fill="#FF696E"/>
<path id="Vector_62" d="M63.875 1.44287C63.875 0.645996 63.0915 4.76837e-07 62.125 4.76837e-07C61.1585 4.76837e-07 60.375 0.645996 60.375 1.44287C60.375 2.23975 61.1585 2.88574 62.125 2.88574C63.0915 2.88574 63.875 2.23975 63.875 1.44287Z" fill="#FF696E"/>
<path id="Vector_63" d="M43.75 1.44287C43.75 0.645996 42.9665 4.76837e-07 42 4.76837e-07C41.0335 4.76837e-07 40.25 0.645996 40.25 1.44287C40.25 2.23975 41.0335 2.88574 42 2.88574C42.9665 2.88574 43.75 2.23975 43.75 1.44287Z" fill="#FF696E"/>
<path id="Vector_64" d="M23.625 1.44287C23.625 0.645996 22.8415 4.76837e-07 21.875 4.76837e-07C20.9085 4.76837e-07 20.125 0.645996 20.125 1.44287C20.125 2.23975 20.9085 2.88574 21.875 2.88574C22.8415 2.88574 23.625 2.23975 23.625 1.44287Z" fill="#FF696E"/>
<path id="Vector_65" d="M3.5 1.44287C3.5 0.645996 2.7165 4.76837e-07 1.75 4.76837e-07C0.783502 4.76837e-07 0 0.645996 0 1.44287C0 2.23975 0.783502 2.88574 1.75 2.88574C2.7165 2.88574 3.5 2.23975 3.5 1.44287Z" fill="#FF696E"/>
</g>
</svg>
