<svg width="17" height="16" viewBox="0 0 17 16" fill="none" xmlns="http://www.w3.org/2000/svg">
<g id="Facebook">
<path id="Vector" d="M13.6193 1.28027H3.3793C2.4961 1.28027 1.7793 1.99707 1.7793 2.88027V13.1203C1.7793 14.0035 2.4961 14.7203 3.3793 14.7203H13.6193C14.5025 14.7203 15.2193 14.0035 15.2193 13.1203V2.88027C15.2193 1.99707 14.5025 1.28027 13.6193 1.28027ZM12.3393 6.08027H11.6993C11.0145 6.08027 10.7393 6.24027 10.7393 6.72027V7.68027H12.3393L12.0193 9.28027H10.7393V14.0803H9.1393V9.28027H7.8593V7.68027H9.1393V6.72027C9.1393 5.44027 9.7793 4.48027 11.0593 4.48027C11.9873 4.48027 12.3393 4.80027 12.3393 4.80027V6.08027Z" fill="#A5B0BE"/>
</g>
</svg>
