<svg width="24" height="29" viewBox="0 0 24 29" fill="none" xmlns="http://www.w3.org/2000/svg">
<g id="fa6-brands:instagram" clip-path="url(#clip0_176_11619)">
<path id="Vector" d="M12.0055 8.33938C8.59833 8.33938 5.85011 11.0876 5.85011 14.4947C5.85011 17.9019 8.59833 20.6501 12.0055 20.6501C15.4126 20.6501 18.1608 17.9019 18.1608 14.4947C18.1608 11.0876 15.4126 8.33938 12.0055 8.33938ZM12.0055 18.4965C9.80368 18.4965 8.00368 16.7019 8.00368 14.4947C8.00368 12.2876 9.79833 10.493 12.0055 10.493C14.2126 10.493 16.0073 12.2876 16.0073 14.4947C16.0073 16.7019 14.2073 18.4965 12.0055 18.4965ZM19.8483 8.0876C19.8483 8.88581 19.2055 9.52331 18.4126 9.52331C17.6144 9.52331 16.9769 8.88046 16.9769 8.0876C16.9769 7.29474 17.6198 6.65188 18.4126 6.65188C19.2055 6.65188 19.8483 7.29474 19.8483 8.0876ZM23.9251 9.54474C23.834 7.62153 23.3948 5.91795 21.9858 4.51438C20.5823 3.11081 18.8787 2.67153 16.9555 2.5751C14.9733 2.4626 9.03226 2.4626 7.05011 2.5751C5.13225 2.66617 3.42868 3.10545 2.01975 4.50903C0.610826 5.9126 0.176897 7.61617 0.0804687 9.53938C-0.0320312 11.5215 -0.0320312 17.4626 0.0804687 19.4447C0.17154 21.368 0.610826 23.0715 2.01975 24.4751C3.42868 25.8787 5.1269 26.318 7.05011 26.4144C9.03226 26.5269 14.9733 26.5269 16.9555 26.4144C18.8787 26.3233 20.5823 25.884 21.9858 24.4751C23.3894 23.0715 23.8287 21.368 23.9251 19.4447C24.0376 17.4626 24.0376 11.5269 23.9251 9.54474ZM21.3644 21.5715C20.9465 22.6215 20.1376 23.4305 19.0823 23.8537C17.5019 24.4805 13.7519 24.3358 12.0055 24.3358C10.259 24.3358 6.50368 24.4751 4.92868 23.8537C3.87868 23.4358 3.06975 22.6269 2.64654 21.5715C2.01975 19.9912 2.1644 16.2412 2.1644 14.4947C2.1644 12.7483 2.02511 8.99296 2.64654 7.41795C3.0644 6.36795 3.87333 5.55903 4.92868 5.13581C6.50904 4.50903 10.259 4.65367 12.0055 4.65367C13.7519 4.65367 17.5073 4.51438 19.0823 5.13581C20.1323 5.55367 20.9412 6.3626 21.3644 7.41795C21.9912 8.99831 21.8465 12.7483 21.8465 14.4947C21.8465 16.2412 21.9912 19.9965 21.3644 21.5715Z" fill="#155CB0"/>
</g>
<defs>
<clipPath id="clip0_176_11619">
<rect width="24" height="27.4286" fill="white" transform="translate(0 0.785645)"/>
</clipPath>
</defs>
</svg>
