<svg width="17" height="16" viewBox="0 0 17 16" fill="none" xmlns="http://www.w3.org/2000/svg">
<g id="Instagram">
<path id="Vector" d="M5.62094 0.959961C3.32654 0.959961 1.46094 2.82556 1.46094 5.11996V10.88C1.46094 13.1744 3.32654 15.04 5.62094 15.04H11.3809C13.6753 15.04 15.5409 13.1744 15.5409 10.88V5.11996C15.5409 2.82556 13.6753 0.959961 11.3809 0.959961H5.62094ZM12.3409 3.51996C12.6929 3.51996 12.9809 3.80796 12.9809 4.15996C12.9809 4.51196 12.6929 4.79996 12.3409 4.79996C11.9889 4.79996 11.7009 4.51196 11.7009 4.15996C11.7009 3.80796 11.9889 3.51996 12.3409 3.51996ZM8.50094 4.47996C10.4433 4.47996 12.0209 6.05756 12.0209 7.99996C12.0209 9.94236 10.4433 11.52 8.50094 11.52C6.55854 11.52 4.98094 9.94236 4.98094 7.99996C4.98094 6.05756 6.55854 4.47996 8.50094 4.47996ZM8.50094 5.11996C6.91374 5.11996 5.62094 6.41276 5.62094 7.99996C5.62094 9.58716 6.91374 10.88 8.50094 10.88C10.0881 10.88 11.3809 9.58716 11.3809 7.99996C11.3809 6.41276 10.0881 5.11996 8.50094 5.11996Z" fill="#A5B0BE"/>
</g>
</svg>
