<svg width="24" height="25" viewBox="0 0 24 25" fill="none" xmlns="http://www.w3.org/2000/svg">
<g id="mdi:linkedin">
<path id="Vector" d="M19 3.78564C19.5304 3.78564 20.0391 3.99636 20.4142 4.37143C20.7893 4.7465 21 5.25521 21 5.78564V19.7856C21 20.3161 20.7893 20.8248 20.4142 21.1999C20.0391 21.5749 19.5304 21.7856 19 21.7856H5C4.46957 21.7856 3.96086 21.5749 3.58579 21.1999C3.21071 20.8248 3 20.3161 3 19.7856V5.78564C3 5.25521 3.21071 4.7465 3.58579 4.37143C3.96086 3.99636 4.46957 3.78564 5 3.78564H19ZM18.5 19.2856V13.9856C18.5 13.121 18.1565 12.2918 17.5452 11.6805C16.9338 11.0691 16.1046 10.7256 15.24 10.7256C14.39 10.7256 13.4 11.2456 12.92 12.0256V10.9156H10.13V19.2856H12.92V14.3556C12.92 13.5856 13.54 12.9556 14.31 12.9556C14.6813 12.9556 15.0374 13.1031 15.2999 13.3657C15.5625 13.6282 15.71 13.9843 15.71 14.3556V19.2856H18.5ZM6.88 9.34564C7.32556 9.34564 7.75288 9.16865 8.06794 8.85358C8.383 8.53852 8.56 8.11121 8.56 7.66564C8.56 6.73564 7.81 5.97564 6.88 5.97564C6.43178 5.97564 6.00193 6.1537 5.68499 6.47063C5.36805 6.78757 5.19 7.21743 5.19 7.66564C5.19 8.59564 5.95 9.34564 6.88 9.34564ZM8.27 19.2856V10.9156H5.5V19.2856H8.27Z" fill="#155CB0"/>
</g>
</svg>
