<svg width="72" height="73" viewBox="0 0 72 73" fill="none" xmlns="http://www.w3.org/2000/svg">
<g id="&#208;&#161;&#208;&#187;&#208;&#190;&#208;&#185;_x0020_1">
<g id="_756786016">
<path id="Vector" fill-rule="evenodd" clip-rule="evenodd" d="M66.9364 32.2442C68.7058 26.577 70.006 20.543 71.06 14.0673C66.6672 12.1957 62.0128 10.7134 57.2046 9.60547V12.0236C61.0511 12.9369 64.79 14.0973 68.375 15.5122C67.3518 21.3665 66.1286 26.7492 64.5438 31.7501C65.3593 31.9073 66.1517 32.072 66.9364 32.2442ZM13.6074 51.499C18.7695 59.1651 25.8318 66.2247 35.7329 72.9998C45.6417 66.2247 52.7041 59.1651 57.8662 51.499C57.0045 51.3568 56.1352 51.222 55.2582 51.0948C50.4884 57.9523 44.1954 64.1435 35.7329 70.1101C27.2704 64.1435 20.9851 57.9523 16.2153 51.0948C15.3383 51.222 14.469 51.3568 13.6074 51.499ZM0.405884 14.0673C1.46754 20.543 2.75999 26.577 4.53712 32.2442C5.32182 32.072 6.11422 31.9073 6.92969 31.7501C5.3449 26.7492 4.11399 21.3665 3.09849 15.5122C4.82176 14.8309 6.5835 14.2096 8.37601 13.6481V11.1776C5.64493 12.0086 2.9831 12.9743 0.405884 14.0673Z" fill="#04244D"/>
<path id="Vector_2" fill-rule="evenodd" clip-rule="evenodd" d="M5.50305 17.4673C6.43393 22.4532 7.54174 27.0648 8.91882 31.3844C9.38041 31.302 9.83431 31.2197 10.3036 31.1448C8.51108 26.8776 6.92629 22.3259 5.50305 17.4673Z" fill="#E80008"/>
<path id="Vector_3" fill-rule="evenodd" clip-rule="evenodd" d="M24.5027 58.0309C27.7107 61.3623 31.4265 64.5515 35.7347 67.6883C40.0506 64.5515 43.7664 61.3623 46.9744 58.0309C45.8358 57.9261 44.6896 57.8437 43.551 57.7764C41.143 60.1046 38.5427 62.2682 35.7347 64.2745C32.9344 62.2682 30.3341 60.1046 27.9261 57.7764C26.7799 57.8437 25.6413 57.9261 24.5027 58.0309Z" fill="#E80008"/>
<path id="Vector_4" fill-rule="evenodd" clip-rule="evenodd" d="M62.5612 31.3844C63.9305 27.0648 65.0461 22.4532 65.9769 17.4673C64.5537 22.3259 62.9689 26.8776 61.1764 31.1448C61.638 31.2197 62.0996 31.302 62.5612 31.3844Z" fill="#E80008"/>
<path id="Vector_5" fill-rule="evenodd" clip-rule="evenodd" d="M36.0879 66.9295C35.7341 67.6856 34.8109 66.7049 29.1256 62.4302C25.179 59.2186 19.9323 52.8627 18.4475 50.7965C24.002 50.0853 29.7872 49.7109 35.7341 49.7109C41.6886 49.7109 47.4738 50.0853 53.0206 50.7965C51.5358 52.8627 48.4816 56.3663 46.6891 58.3202C43.158 61.3971 40.2884 63.8227 36.0879 66.9295Z" fill="#E80008"/>
<path id="Vector_6" fill-rule="evenodd" clip-rule="evenodd" d="M15.4401 52.982H6.20056C8.69315 52.398 11.2704 51.8815 13.9245 51.4473L15.4401 52.982ZM57.5525 51.4473C60.2066 51.8815 62.7838 52.398 65.2764 52.982H56.0369L57.5525 51.4473Z" fill="#04244D"/>
<path id="Vector_7" fill-rule="evenodd" clip-rule="evenodd" d="M45.5203 28.82C53.8828 28.82 60.6604 29.2317 60.6604 29.7408C60.6604 30.2499 53.8828 30.6691 45.5203 30.6691C37.1578 30.6691 30.3801 30.2499 30.3801 29.7408C30.3801 29.5162 31.688 29.3141 33.8651 29.1494C26.295 29.1643 16.8401 28.7301 16.5401 28.5205C16.1708 28.266 22.5562 28.0189 22.5562 28.0189C9.49317 27.7794 14.2783 26.9035 20.7021 26.5516C14.2399 26.4393 9.48547 26.08 9.48547 25.6532C9.48547 25.1442 16.2632 24.7324 24.6256 24.7324C32.9881 24.7324 39.7658 25.1442 39.7658 25.6532C39.7658 26.1324 33.8036 26.5291 26.1643 26.5741C25.4796 26.634 24.8949 26.7013 25.3796 26.7762C31.411 27.682 29.1492 27.3901 37.4194 27.5922C45.4587 27.7868 46.0973 28.4456 42.066 28.8424C43.1739 28.8275 44.3355 28.82 45.5203 28.82Z" fill="#04244D"/>
<path id="Vector_8" fill-rule="evenodd" clip-rule="evenodd" d="M29.6212 27.6713C29.4827 27.9633 29.2443 28.3002 28.9058 28.3002H26.8825C26.6363 28.3002 26.3901 28.113 26.1978 27.7312H24.4822C23.7052 27.6938 23.2667 26.6307 23.1359 25.3505L15.9582 24.6393C15.9197 24.8564 15.8812 25.0361 15.8274 25.1933C15.6735 25.65 15.4504 25.8821 15.2119 25.8821H13.8733H13.6733C13.504 25.8821 13.3425 25.7473 13.2117 25.4928H12.0423C11.55 25.4628 11.2653 24.7591 11.1653 23.8982L10.4422 23.8608C10.4191 22.8276 10.3575 21.817 10.696 20.8363L9.71899 20.8887L9.90363 9.07523L25.8516 0.50337C26.3439 0.233861 26.667 0.144025 27.2286 0.166484L29.7289 0.271293C29.8366 0.0916208 30.0213 0.00927101 30.3828 0.00178466C34.4218 -0.00570168 38.6376 -0.00570169 42.6458 0.346156C45.9154 0.638124 48.5849 1.28944 49.3927 4.99518C49.962 5.10747 50.5159 5.39944 50.8236 5.93097C51.3698 6.00583 51.6852 6.07321 51.7929 6.11813C52.0545 6.23791 52.2853 6.71703 52.393 6.97906C52.5392 7.30846 52.3776 7.57796 52.0006 7.54802H51.9699C52.4776 9.2025 52.9161 10.8495 53.1931 12.5639C53.5239 12.7435 53.9086 12.9606 54.3163 13.2077C54.3163 12.4366 54.3163 10.3329 54.3548 10.026C54.3778 9.83135 54.4471 9.71157 54.5625 9.64419C54.6625 9.57682 54.7933 9.57682 54.9394 9.60676C55.0394 9.62922 55.2087 9.66665 55.3626 9.70409C55.4626 9.72654 55.5626 9.749 55.6318 9.77146C55.8011 9.82387 55.9011 9.9137 55.9703 10.041C56.0319 10.1533 56.0549 10.288 56.0549 10.4303C56.0549 10.5875 56.0626 10.9318 56.0703 11.3286C56.0934 12.0773 56.1165 13.013 56.1088 13.305C56.1011 13.5745 56.0549 13.7692 55.9626 13.9189C55.9088 14.0012 55.8472 14.0686 55.7703 14.121C56.6012 14.7274 57.2859 15.2065 57.6859 15.6333C58.0167 15.9926 58.0936 16.1798 58.1475 16.8161L59.8554 15.3114C59.8015 15.3114 59.7631 15.3114 59.74 15.3114C59.2938 15.2814 59.2784 14.937 59.2707 14.6451V14.6301C59.2707 14.5852 59.263 14.5178 59.263 14.4579C59.2553 14.3306 59.2476 14.1959 59.2476 14.0911C59.2476 13.8665 59.3245 13.7168 59.463 13.6194C59.5861 13.5296 59.7477 13.4922 59.94 13.4997C59.94 13.4997 61.6479 13.5371 61.971 13.5895C62.4018 13.6644 62.4018 14.0312 62.3941 14.2708V14.3082H62.4018C62.4018 14.383 62.4018 14.4429 62.4018 14.5103C62.4095 14.675 62.4095 14.8622 62.3941 14.967C62.3787 15.0793 62.3326 15.1691 62.2479 15.229C62.171 15.2814 62.0787 15.3114 61.9402 15.3188C61.8633 15.3188 61.5479 15.3188 61.1863 15.3188L58.1629 18.0663V18.4631C59.0399 19.047 59.6553 19.7582 60.0477 20.5668C60.4477 21.3978 60.6093 22.3261 60.5862 23.3367V23.4715L60.417 23.4939L60.4247 23.5164C60.5708 23.5763 60.7324 23.6511 60.7786 23.726C60.817 23.7934 60.8632 24.0779 60.8939 24.3923C60.917 24.6393 60.9324 24.9088 60.917 25.126C60.9093 25.3206 60.8863 25.5227 60.8555 25.7099C60.8093 25.9794 60.7632 26.2115 60.7247 26.3387C60.717 26.3911 60.717 26.451 60.717 26.5184C60.7247 26.6831 60.7324 26.8553 60.5785 27.0649C60.4631 27.2221 60.1785 27.4018 59.94 27.5291C59.9246 27.7537 59.8938 28.0381 59.8015 28.2777C59.6861 28.5921 59.4784 28.8392 59.1091 28.8542C59.0168 28.8542 58.8937 28.8616 58.7629 28.8691C58.6245 29.1985 58.4091 29.4905 58.1244 29.7001C57.809 29.9472 57.4089 30.0894 56.9781 30.0894H56.0549C55.6626 30.0894 55.2933 29.9621 54.9856 29.7525C54.7086 29.5579 54.4778 29.2884 54.324 28.9739C51.0159 29.0413 46.9232 29.1162 44.7537 29.1611C43.9228 29.1761 43.3689 29.1835 43.2458 29.191H43.2381C43.1689 29.191 43.092 29.191 43.0227 29.191C42.7458 29.9621 42.0226 30.4862 41.2148 30.4862H39.7454C38.4453 30.4862 37.9452 29.2958 37.7683 28.1729L37.4913 28.7868L29.6212 27.6713Z" fill="#04244D"/>
<path id="Vector_9" fill-rule="evenodd" clip-rule="evenodd" d="M42.8954 15.0425L42.8569 14.9976H42.7261L42.8954 15.0425ZM45.7649 17.3033L46.0034 17.6103L47.9267 18.1493L45.7649 17.3033ZM44.8494 16.098L45.1802 16.5323L47.8959 17.2884L44.8494 16.098ZM44.1416 14.9751C44.1032 14.9826 44.0724 14.9826 44.0339 14.9901C44.0262 14.9901 44.0109 14.9901 44.0032 14.9901L44.3571 15.4542L47.8574 16.4349L44.1416 14.9751ZM47.2266 15.4093C47.042 15.282 46.8112 15.1697 46.5188 15.05C46.1726 14.9152 45.8188 14.773 45.4495 14.6307C45.1418 14.5109 44.8263 14.3912 44.5109 14.2789V14.3088V14.3238C44.5032 14.4286 44.4955 14.5409 44.4725 14.6382L47.2266 15.4093ZM48.0344 23.255C48.0498 23.3523 48.0729 23.4571 48.0805 23.5544L53.1734 24.2881L57.7047 23.5919C57.7739 23.517 57.8124 23.4496 57.8432 23.3598C57.8586 23.2999 57.874 23.2325 57.8816 23.1577C57.7893 23.2101 57.6662 23.255 57.497 23.2924L53.9504 23.9512C53.435 24.0485 53.2581 24.0261 52.7811 23.9662C52.4272 23.9213 51.9194 23.8539 51.3886 23.779C50.3116 23.6293 49.1268 23.4571 48.9422 23.4122C48.3729 23.2999 48.2729 23.2999 48.0344 23.255ZM47.7959 22.3192L47.8113 22.3566L48.1036 22.439L47.7959 22.3192ZM47.4035 21.316C47.4112 21.346 47.4266 21.3759 47.442 21.4059L48.0652 21.578L47.4035 21.316ZM46.7573 20.223C46.8035 20.2829 46.8419 20.3428 46.8804 20.4027L48.0344 20.7246L46.7573 20.223ZM45.5341 18.8979C45.688 19.0252 45.8418 19.16 45.9803 19.3022L47.9959 19.8637L45.5341 18.8979ZM47.7651 23.5095C47.4343 21.3909 46.1419 19.3471 44.2186 18.4188C42.5492 17.6178 39.9873 17.6253 38.6641 19.1076C37.0947 20.8668 37.1101 24.5351 37.1178 26.8634L37.2947 26.8784C37.287 25.3886 37.364 22.7684 37.864 21.1888C38.4333 19.407 39.7027 19.5268 40.4566 21.1289C40.7874 21.8251 41.0105 22.6561 41.1259 23.24L47.719 23.502L47.7651 23.5095ZM42.5876 21.1064L42.5953 21.1513C43.5647 21.2861 44.534 21.3984 45.4879 21.6529C45.7418 21.7203 45.9342 21.7802 46.0957 21.855C46.2496 21.9224 46.3727 22.0048 46.4804 22.1096C46.5727 22.1994 46.8881 22.6186 47.065 22.8882C47.0343 22.8208 46.8804 22.5138 46.7035 22.2219C46.5958 22.0422 46.4881 21.885 46.4034 21.7951C46.2957 21.6903 46.1726 21.608 46.0188 21.5406C45.8572 21.4657 45.6572 21.4059 45.411 21.3385C45.0802 21.2486 44.7032 21.1738 44.3263 21.0989C43.7801 21.0016 43.2492 20.9192 42.9184 20.8743C42.7646 20.8519 42.6415 20.8519 42.5876 20.8893C42.5492 20.9118 42.5492 20.9791 42.5876 21.1064ZM40.3104 26.4217C40.1797 27.8516 39.7258 28.9072 39.1796 28.9072C38.5333 28.9072 38.0102 27.4324 38.0102 25.6132C38.0102 24.4154 38.2333 23.3748 38.5718 22.7908C38.3948 23.3373 38.2871 24.0635 38.2871 24.8571C38.2871 26.549 38.7718 27.919 39.3719 27.919C39.7719 27.919 40.1181 27.3201 40.3104 26.4217ZM45.0725 25.3362C45.3187 25.3362 45.5264 25.5608 45.5264 25.8378C45.5264 26.1148 45.3187 26.3394 45.0725 26.3394C44.8186 26.3394 44.6186 26.1148 44.6186 25.8378C44.6186 25.5608 44.8186 25.3362 45.0725 25.3362ZM47.5574 26.7062H44.8033C44.5648 26.7062 44.4032 26.5639 44.2878 26.3693C44.134 26.0923 44.0801 25.703 44.0724 25.5159C44.0647 25.1266 44.3186 24.9843 44.6648 24.9918C44.9263 24.9918 45.4649 25.0068 45.788 25.0667C46.1649 25.1266 46.3188 25.3062 46.4111 25.6731C46.4804 25.9351 46.5034 26.1896 46.5342 26.4591L47.5574 26.7062ZM47.6882 24.0785L41.3259 23.8239C41.2875 23.8389 41.1721 23.8764 41.1952 23.9812C41.4106 24.917 41.6029 26.0474 41.5337 27.1179C41.9876 25.6282 41.8337 24.3405 41.8337 24.3405L47.4035 24.5052C47.4035 24.5052 47.7959 25.4934 47.9344 26.6238C47.919 25.6581 47.8036 24.5726 47.742 24.086L47.6882 24.0785ZM57.9278 27.3425C58.1509 26.0399 58.074 24.6924 58.0278 24.1234L53.1734 24.8645L47.9498 24.1159C47.9652 24.2507 47.9882 24.4229 48.0036 24.6175L53.1734 25.3586L57.6662 24.6699C57.8124 25.2239 57.974 26.2795 57.9278 27.3425ZM51.3501 26.1896C52.6426 26.1821 53.9427 26.1672 55.2429 26.1672C55.5045 26.1672 55.6506 26.257 55.6352 26.4966C55.6352 26.549 55.6275 26.6089 55.6122 26.6688C55.5352 26.9233 55.3429 27.0206 55.0659 27.0206C54.5736 27.0281 51.4655 27.073 51.3425 27.058C51.2732 27.0506 51.1655 27.0431 51.0809 26.9907C50.8886 26.8784 50.8886 26.6912 50.8886 26.519C50.8886 26.2795 50.9501 26.1896 51.3501 26.1896ZM49.4422 25.4335C49.4576 25.5758 49.4653 25.7779 49.4499 25.8602C49.4269 25.995 49.3422 26.0324 49.2268 26.0324C49.1345 26.0324 48.9806 26.0324 48.8883 26.0249C48.7422 26.0174 48.7268 25.8827 48.7191 25.7554C48.7114 25.6955 48.7114 25.5832 48.7114 25.5009C48.7114 25.3362 48.7729 25.2838 48.9268 25.2838C49.0268 25.2838 49.2499 25.2913 49.3115 25.2913C49.3961 25.2913 49.4422 25.3586 49.4422 25.4335ZM56.8969 25.3437C56.8969 25.4709 56.8969 25.6731 56.9123 25.7404C56.9431 25.8977 57.0508 25.9126 57.1739 25.9126C57.2508 25.9126 57.3508 25.9051 57.4201 25.9051C57.5816 25.8977 57.597 25.8078 57.597 25.6431C57.597 25.5832 57.597 25.4784 57.597 25.4036C57.5893 25.2988 57.5508 25.2089 57.4277 25.2014C57.3893 25.2014 57.0816 25.2014 57.0123 25.2014C56.9354 25.2014 56.8969 25.2688 56.8969 25.3437ZM59.5126 25.0292C59.3433 25.0292 59.2126 25.1865 59.2203 25.3736C59.2356 25.5683 59.3895 25.7255 59.5588 25.7255C59.7357 25.7255 59.8665 25.5683 59.8511 25.3736C59.8434 25.1865 59.6895 25.0292 59.5126 25.0292ZM58.9895 25.5308C58.9664 25.149 58.9125 24.902 59.3049 24.7822C59.4357 24.7448 59.5818 24.7223 59.6895 24.7148C59.8588 24.7073 60.028 24.7148 60.0819 24.917C60.1357 25.0966 60.1511 25.426 60.1434 25.6132C60.1204 25.9201 59.9742 25.995 59.6126 26.0698C59.2433 26.1522 58.6587 26.242 58.4125 26.2495C58.7741 26.0249 59.0125 26.0324 58.9895 25.5308ZM60.4666 26.0773C60.4896 25.965 60.5204 25.8153 60.5435 25.6581C60.5743 25.4859 60.5973 25.2913 60.605 25.1116C60.6204 24.9095 60.605 24.6549 60.5819 24.4229C60.5589 24.1459 60.5281 23.9213 60.505 23.8838C60.4973 23.8614 60.3512 23.8165 60.2281 23.7865L58.2355 24.0935C58.2432 24.2132 58.2586 24.3704 58.2663 24.5576L60.0588 24.2881C60.1819 24.318 60.3204 24.363 60.3358 24.3854C60.4281 24.9095 60.4589 25.5608 60.4666 26.0773ZM60.2665 22.8058C60.2511 22.8208 60.2281 22.8432 60.205 22.8582C60.0896 22.9256 59.8588 22.993 59.6203 23.0379C59.4049 23.0828 59.1818 23.1127 59.0818 23.1277C58.8125 23.1651 58.6433 23.1726 58.5202 23.0903C58.374 23.0079 58.3355 22.8507 58.3432 22.5737C58.3432 22.3417 58.374 22.0048 58.4432 21.7203C58.5048 21.4957 58.5894 21.2936 58.7125 21.1813C58.9587 20.9567 59.4511 20.6947 59.6972 20.5749C59.3587 19.9236 58.8587 19.3396 58.1663 18.8455L58.174 19.5492C58.1817 20.7545 58.1971 21.8476 58.1971 22.8882C58.1971 23.1277 58.1817 23.3074 58.1355 23.4496C58.1278 23.4796 58.1201 23.502 58.1124 23.532L60.2742 23.1951C60.2819 23.0678 60.2742 22.9331 60.2665 22.8058ZM59.8357 20.8594C59.5972 20.9717 59.1356 21.2187 58.9202 21.4208C58.8433 21.4882 58.7894 21.6304 58.7433 21.7951C58.6817 22.0572 58.651 22.3641 58.651 22.5812C58.6433 22.7309 58.651 22.8058 58.6817 22.8208C58.7048 22.8358 58.7433 22.8432 58.8125 22.8358V22.7983C58.8202 22.5812 58.8433 22.2743 58.9048 22.0123C58.951 21.8476 59.0048 21.7053 59.0818 21.6379C59.2818 21.4508 59.6895 21.2337 59.9357 21.1064C59.9049 21.0241 59.8665 20.9417 59.8357 20.8594ZM41.4644 27.8741C41.4029 28.2109 41.3336 28.5029 41.2567 28.7949C42.0414 28.8997 42.603 28.8847 43.2262 28.8697H43.2339C43.3492 28.8697 43.9032 28.8623 44.7417 28.8473C48.3729 28.7799 57.32 28.6077 59.0972 28.5403C59.3049 28.5329 59.428 28.3682 59.5049 28.166C59.5588 28.0163 59.5895 27.8516 59.6126 27.6869C59.5741 27.7019 59.5511 27.7168 59.5511 27.7168L59.5203 27.7243L59.2203 27.7318L59.1664 27.9864C59.1433 28.1211 59.1049 28.1735 58.9741 28.181C58.0124 28.2109 57.0431 28.2334 56.0814 28.2559C54.489 28.2858 52.8965 28.3232 51.2963 28.3532C49.1114 28.3981 46.9266 28.4355 44.734 28.4804C44.234 28.4879 43.7262 28.4954 43.2262 28.5104H43.2185C42.6953 28.5179 42.2107 28.5179 41.7029 28.473C41.7106 28.4355 41.7721 28.1511 41.826 27.9339C41.6952 27.9265 41.5721 27.904 41.4644 27.8741ZM37.5409 27.919H37.3024C37.3024 27.7917 37.2947 27.5372 37.2947 27.2003L36.9101 27.1554C36.9178 27.3725 36.9255 27.8217 36.9255 27.9339V28.0013L29.6862 26.9757L29.6708 26.3543L29.3015 26.3094L29.3092 27.3126L37.3024 28.443L37.5409 27.919ZM43.957 4.76372C43.7339 1.85902 40.1258 0.751045 37.7794 0.414159C38.8949 0.631263 41.7029 1.63443 42.8723 3.16913C43.8724 4.47176 42.503 4.614 41.5414 4.71881C42.3414 4.72629 43.1492 4.74875 43.957 4.76372ZM30.5017 5.69203C30.494 5.93908 30.4709 7.37646 30.4401 9.31542L33.2943 8.52935C33.302 6.90482 33.3097 5.71449 33.3097 5.51236C33.3097 4.62148 32.7404 4.14236 31.8633 4.40438C31.6172 4.47924 31.371 4.56159 31.1402 4.64394C30.594 4.84607 30.5401 5.10809 30.5017 5.69203ZM29.3938 9.60738L29.6631 9.53252C29.6862 8.98602 29.7323 8.04274 29.7708 7.2417C29.8093 6.56044 29.84 5.99148 29.8631 5.85673C29.8862 5.69203 29.9016 5.58722 29.9401 5.51236C29.9708 5.45247 30.0324 5.40006 30.1478 5.34017C30.1785 5.31771 30.2555 5.28028 30.3555 5.23536C30.3632 5.19793 30.3709 5.16799 30.3786 5.13055C30.4016 5.05569 30.4324 4.98083 30.4632 4.91345C30.1708 5.03323 29.9554 5.13055 29.8862 5.17547C29.7708 5.24285 29.717 5.28777 29.6785 5.35514C29.64 5.42252 29.6246 5.52733 29.6016 5.69203C29.5785 5.82678 29.5477 6.40323 29.5092 7.08449C29.4631 8.01279 29.4092 9.14323 29.3938 9.60738ZM30.2247 9.83197L30.2324 9.59241L29.3861 9.83197C29.3785 10.1389 29.2784 18.9803 29.2707 20.2829L29.5323 20.2754C29.5477 18.5386 29.64 10.2886 29.64 9.98919L30.2247 9.83197ZM33.2943 8.75394L30.4401 9.54001L30.4324 10.1314C30.5247 10.0266 30.6632 9.93678 30.8478 9.89935L31.1633 9.817C31.6402 9.70471 31.8403 9.95176 31.8403 10.4234L31.7326 18.7033C31.7249 19.16 31.5248 19.5567 31.0402 19.5567H30.8094C30.6247 19.5567 30.4632 19.5567 30.3093 19.3995L30.3016 20.2754C31.1017 20.2679 32.2018 20.253 33.2404 20.2455C33.2404 19.3247 33.2789 12.8115 33.2943 8.75394ZM30.7017 17.8349H30.8478C30.9017 17.8349 30.9556 17.8648 30.9863 17.9023C31.0171 17.9397 31.0402 17.9846 31.0402 18.037V18.7482C31.0402 18.8081 31.0171 18.853 30.9863 18.8904C30.9556 18.9279 30.9017 18.9503 30.8478 18.9503H30.7017C30.6401 18.9503 30.594 18.9279 30.5632 18.8904C30.5247 18.853 30.5093 18.8006 30.5093 18.7482C30.5093 18.6883 30.5093 18.037 30.5093 18.037C30.5093 17.9846 30.5247 17.9322 30.5632 17.8948C30.594 17.8573 30.6478 17.8349 30.7017 17.8349ZM30.7709 11.0747L30.9248 11.0373C31.0402 11.0073 31.1402 11.0897 31.1402 11.2095V13.65C31.1402 13.7548 31.0709 13.8521 30.9709 13.8746L30.8248 13.912C30.8094 13.9195 30.794 13.9195 30.7786 13.9195C30.6786 13.9195 30.6017 13.8372 30.6017 13.7398V11.2993C30.6017 11.1945 30.6786 11.0972 30.7709 11.0747ZM56.7661 15.4168C55.6506 14.5409 54.3197 13.6725 53.0811 12.9837C52.8888 12.8864 52.6426 12.8115 51.8733 12.7516C48.596 12.5046 42.2953 12.6244 40.8105 12.6843C41.2413 12.819 41.6644 12.9538 42.0953 13.096L43.8493 13.1784C44.0339 13.1709 44.1955 13.2083 44.3186 13.2982C44.4494 13.3955 44.5263 13.5452 44.5263 13.7623C44.5263 13.8222 44.5263 13.8821 44.5186 13.942C45.3033 14.2339 47.1881 14.8628 47.7036 15.4018C50.4731 14.9077 53.9889 14.9451 56.7661 15.4168ZM53.4119 16.8092V16.7494C53.4119 16.6221 53.5042 16.5173 53.6273 16.5023L55.1583 16.3825C55.289 16.3676 55.4044 16.4798 55.4044 16.6146L55.4737 22.7684C55.4814 23.0828 55.4891 23.1277 55.1737 23.1876C55.1737 23.1502 55.1737 23.1127 55.1737 23.0753L55.1044 16.8392C55.0967 16.7044 55.1121 16.667 54.9813 16.682L53.4119 16.8092ZM50.9116 16.7044V16.6445C50.9039 16.4948 51.0193 16.3825 51.1578 16.39L52.7888 16.5098C52.9119 16.5173 53.0042 16.6146 53.0119 16.7419L53.158 23.255C53.158 23.4571 53.0888 23.4796 52.9119 23.4496L52.8503 23.4421L52.7041 16.9889C52.7041 16.8617 52.6888 16.8317 52.5964 16.8242L50.9116 16.7044ZM48.6345 16.5323C48.6037 16.2403 48.8499 16.2253 49.0653 16.2403L50.2423 16.3226C50.3577 16.3301 50.45 16.4274 50.4577 16.5547L50.7732 22.8358C50.7808 22.9855 50.7501 23.0678 50.5885 23.0454L50.4577 23.0229L50.15 16.7868C50.1423 16.667 50.1423 16.6445 50.0654 16.6445L48.7575 16.5472C48.7191 16.5472 48.6806 16.5472 48.6345 16.5472V16.5323ZM46.3111 7.27913C46.5958 8.51438 46.965 10.2662 47.2882 12.3474C47.1804 12.3399 47.0804 12.3399 46.9727 12.3399C46.6496 10.2437 46.2803 8.48443 45.9957 7.27165C46.0957 7.27165 46.2034 7.27913 46.3111 7.27913ZM55.466 13.927C55.5737 13.8821 55.6506 13.8297 55.6968 13.7473C55.7583 13.65 55.7891 13.5078 55.7968 13.2982C55.8045 13.0062 55.7814 12.0779 55.7583 11.3367C55.7506 10.94 55.7429 10.5956 55.7429 10.4384C55.7429 10.3336 55.7276 10.2512 55.6968 10.1913C55.666 10.1389 55.6199 10.1015 55.5429 10.079C55.4814 10.0566 55.3891 10.0341 55.289 10.0116C55.1352 9.97422 54.9736 9.93678 54.8736 9.92181C54.7967 9.89935 54.7428 9.89935 54.7121 9.91432C54.689 9.9293 54.6659 9.9817 54.6582 10.0715C54.6505 10.079 54.6505 10.1015 54.6505 10.1165C54.7505 10.1389 54.9044 10.1763 55.0429 10.2063C55.1429 10.2288 55.2352 10.2587 55.2967 10.2737C55.5275 10.341 55.4968 10.4159 55.4968 10.633C55.4968 10.7902 55.5045 11.1346 55.5198 11.5314C55.5352 12.2725 55.5583 13.2083 55.5506 13.4928C55.5429 13.6874 55.5198 13.8297 55.466 13.927ZM57.3662 16.6745L57.3508 22.3716C57.3508 22.701 57.3124 22.7609 57.0431 22.8358C57.0431 22.7908 57.0431 22.7384 57.0431 22.6785L57.0662 16.7718C57.0739 16.5472 57.0431 16.5098 56.8431 16.5248L55.8276 16.6071V16.5472C55.8276 16.4274 55.9199 16.3151 56.043 16.3077L56.9892 16.2328C57.2893 16.2328 57.3816 16.3825 57.3662 16.6745ZM38.2025 6.11875C38.1102 6.1487 38.0717 6.23853 38.1102 6.33585L38.3102 6.86738C38.3333 6.9123 38.3718 6.94225 38.4641 6.96471C38.7103 7.0246 39.1719 6.97968 39.4642 6.96471C40.0104 6.94225 41.149 6.9123 42.5261 6.89733C43.5262 6.88236 44.6571 6.88984 45.7649 6.9123C46.8035 6.94225 47.8498 6.98717 48.896 7.03957C49.95 7.09198 50.9963 7.15935 52.0195 7.23422C52.1272 7.2417 52.1502 7.21176 52.1041 7.09946C52.0425 6.94225 51.8194 6.4781 51.6656 6.41072C51.5348 6.35083 51.0116 6.26099 50.0115 6.15618C46.465 5.79684 42.9107 5.85673 39.3488 5.96902C38.8795 5.984 38.6718 5.96902 38.2025 6.11875ZM35.7099 8.05023C36.11 7.9529 37.0408 7.72831 37.564 7.67591C37.8256 7.64596 38.0256 7.70585 38.1717 7.83312C38.241 7.74329 38.3256 7.66842 38.4256 7.62351C38.5333 7.5711 38.6487 7.54116 38.7718 7.53367C38.7949 7.44383 38.8334 7.36897 38.8949 7.30908C38.6718 7.30908 38.5102 7.30159 38.3948 7.27165C38.1871 7.21924 38.0794 7.12192 38.0256 6.97968L37.8179 6.44815C37.7178 6.18613 37.8486 5.90165 38.1102 5.8193C38.6103 5.66208 38.8487 5.66957 39.3411 5.6546C42.9107 5.5423 46.4804 5.48241 50.0346 5.84176C50.1654 5.85673 50.2885 5.86422 50.4039 5.87919C50.0654 5.4899 49.5346 5.31023 49.0422 5.26531C48.2806 5.19044 45.4879 5.10809 42.7953 5.05569C40.5105 5.01826 38.3025 4.9958 37.4332 5.02574C36.5639 5.05569 36.2408 5.23536 36.033 5.57225C35.7099 6.10378 35.733 7.36148 35.7099 8.05023ZM39.6642 4.69635C39.6181 3.49105 38.9257 2.60766 37.9486 1.94886C36.2946 0.840881 34.2251 0.384214 32.2557 0.324323C31.9095 0.316837 31.7249 0.24946 31.6402 0.668695C31.5095 1.32001 31.2864 3.56591 31.2171 4.2846C31.4018 4.22471 31.5864 4.15733 31.7787 4.10493C33.202 3.67072 34.679 3.58088 36.1331 4.89099C36.5177 4.7787 36.9793 4.72629 37.3947 4.71132C37.8409 4.69635 38.6564 4.69635 39.6642 4.70383V4.69635ZM42.3107 0.63875C45.688 0.938203 47.3035 1.91143 48.0882 3.58088C48.4344 4.32952 48.1113 4.73378 47.3574 4.86105C48.1498 4.89099 48.7575 4.92094 49.0576 4.9434C48.219 1.33498 45.4264 0.893285 42.3107 0.63875ZM29.7862 4.87602C29.84 4.83859 29.9324 4.80116 30.0401 4.74875L30.2478 0.945689C30.2555 0.788476 30.2324 0.683668 30.417 0.683668C30.6324 0.676181 31.0402 0.676181 31.4248 0.676181C31.4325 0.661209 31.4325 0.646236 31.4402 0.623777C31.4633 0.496509 31.5018 0.399187 31.5556 0.324323C31.0786 0.316837 30.6786 0.324323 30.3786 0.324323C29.917 0.324323 29.9324 0.481536 29.9093 0.908258L29.6862 4.78618C29.6785 4.87602 29.7016 4.89848 29.7862 4.87602ZM42.5492 21.9374C42.4568 21.6903 42.3568 21.4283 42.2876 21.2037C42.203 20.9043 42.2645 20.7246 42.4184 20.6273C42.5492 20.5374 42.7415 20.53 42.9569 20.5599C43.2877 20.6048 43.8262 20.6872 44.3801 20.792C44.7571 20.8594 45.1495 20.9417 45.4803 21.0315C45.7572 21.0989 45.9649 21.1663 46.1419 21.2486C46.3265 21.331 46.4804 21.4283 46.6188 21.5706C46.7265 21.6754 46.8496 21.8625 46.965 22.0497C47.1497 22.3566 47.3266 22.701 47.3497 22.7759C47.3651 22.8133 47.3728 22.8432 47.3728 22.8807C47.3805 22.948 47.3651 23.0079 47.3343 23.0678C47.2958 23.1202 47.2497 23.1651 47.1804 23.1876C47.142 23.2026 47.0958 23.2176 47.0497 23.2176C46.9573 23.225 46.2727 23.1801 45.5495 23.1277C44.911 23.0753 44.2417 23.0154 43.9032 22.9705C43.5262 22.9256 43.3031 22.8732 43.1492 22.7983C42.9723 22.716 42.8954 22.6112 42.7953 22.4539C42.7184 22.3267 42.6338 22.1395 42.5492 21.9374ZM61.6975 13.8671L59.6818 13.7773C59.5741 13.7773 59.5588 13.8971 59.5665 14.0094L61.6513 14.0917C61.859 14.1067 61.8359 14.1366 61.8513 14.3238L61.859 15.005C61.9052 15.005 61.9359 15.005 61.9513 15.005C62.1206 14.9901 62.1129 14.8104 62.1129 14.6532V14.6457C62.1052 14.5858 62.1052 14.5259 62.1052 14.4735C62.1052 14.3462 62.1052 14.219 62.0975 14.1291C62.0898 14.0243 62.059 13.9644 62.0052 13.927C61.9359 13.8821 61.8359 13.8671 61.7052 13.8671H61.6975ZM43.8339 13.4928L41.826 13.403C41.7183 13.3955 41.6952 13.5302 41.6952 13.6425L43.7724 13.7324C43.9801 13.7398 43.957 13.7698 43.957 13.9719L43.9262 14.6756C43.9724 14.6756 44.0032 14.6756 44.0186 14.6682C44.1878 14.6607 44.1955 14.4735 44.1955 14.3088V14.3013C44.2032 14.2414 44.2032 14.1815 44.2032 14.1216C44.2109 13.9944 44.2186 13.8596 44.2186 13.7623C44.2186 13.6575 44.1878 13.5901 44.134 13.5527C44.0724 13.5078 43.9724 13.4928 43.8416 13.4928H43.8339ZM38.4795 15.0125V15.0649L38.7257 15.035L38.4795 15.0125ZM38.4795 14.3912V14.4436L38.7257 14.4211L38.4795 14.3912ZM37.4871 13.665L37.6717 13.912L38.7257 13.7997L37.4871 13.665ZM38.9026 13.1634V13.111C38.9257 12.6543 38.9411 12.2875 38.9411 12.1228C38.9411 11.4565 38.441 8.56678 38.1717 8.14755C38.0487 7.96039 37.8717 7.85558 37.5794 7.88553C37.0485 7.93793 36.0561 8.17749 35.7022 8.26733C35.6945 8.45449 35.6945 8.64913 35.6869 8.85126L35.6945 8.85875C35.7407 8.85875 35.8022 8.86624 35.8638 8.88121V8.60422C36.3485 8.49941 36.8331 8.3946 37.3101 8.32722C37.8102 8.25984 38.0025 8.34219 38.141 8.82132C38.4256 9.84695 38.5641 12.28 38.5718 13.0062C38.5718 13.081 38.5718 13.1409 38.5641 13.2008L38.9026 13.1634ZM36.3485 13.1634L37.5101 14.6831V14.2115L36.3715 12.7217C36.3639 12.7741 36.3639 12.8265 36.3639 12.8714C36.3562 12.9688 36.3562 13.0661 36.3485 13.1634ZM37.6794 20.0957C37.7178 20.0209 37.7486 19.9535 37.7871 19.8786L35.8869 19.6765L38.0333 19.437C38.064 19.392 38.0948 19.3471 38.1256 19.3022L35.8869 19.0551L38.5564 18.7632L38.5949 18.7332L35.8869 18.4413L38.7257 18.1268L35.8869 17.8199L38.7257 17.513L35.8869 17.1985L38.7257 16.8916L35.8869 16.5847L38.7257 16.2702L35.8869 15.9633L38.7257 15.6563L38.4256 15.6264C38.3948 15.6563 38.3487 15.6713 38.3025 15.6713H37.6871C37.6409 15.6713 37.5948 15.6489 37.564 15.6189C37.5409 15.5965 37.5178 15.559 37.5178 15.5216L35.8869 15.3494L37.4947 15.1697L37.264 14.8778L35.8869 14.728L37.0562 14.6008L36.7485 14.204L35.8869 14.1067L36.6177 14.0318L36.2561 13.5527C36.1638 13.7398 35.9946 13.8671 35.6715 13.8971C35.6253 13.9045 35.5791 13.9045 35.5253 13.912C35.5176 14.2265 35.5099 14.5259 35.4945 14.8029C35.4868 15.1323 35.4714 15.4392 35.4637 15.7013C35.4022 16.9889 35.4253 17.9472 35.5099 18.7033C35.5715 19.3396 35.6869 19.8262 35.8253 20.2305C35.9792 20.2305 36.1023 20.2305 36.1792 20.2305C36.2869 20.2305 36.3946 20.2305 36.4946 20.223L37.6794 20.0957ZM45.5187 17.4755L43.6108 14.9976C43.5031 14.9976 43.38 14.9976 43.2492 14.9976L45.0494 17.3408L45.5187 17.4755ZM38.9949 18.3889C39.1796 18.2466 39.3873 18.1268 39.595 18.0295C39.6027 17.3557 39.6258 15.0874 39.6334 14.0168V13.942C39.6411 13.4479 39.6411 12.9837 40.0027 12.6169C39.9643 12.6019 39.9181 12.5795 39.8796 12.557C39.695 12.4447 39.5488 12.2501 39.4719 11.9431C39.4257 11.9356 39.3719 11.9431 39.318 11.9506C39.2565 11.9656 39.1949 11.988 39.1411 12.033C39.1411 12.0704 39.1488 12.1003 39.1488 12.1228C39.1488 12.28 39.1334 12.6543 39.1103 13.1185C39.0872 13.4703 39.0642 13.8671 39.0334 14.2489C38.9718 14.9451 38.9795 17.3483 38.9949 18.3889ZM38.7487 7.75077C38.6718 7.75077 38.5872 7.77323 38.5179 7.81066C38.4333 7.8481 38.3641 7.91547 38.3179 7.99782C38.3256 8.00531 38.3333 8.02028 38.341 8.03525C38.4949 8.27482 38.5872 8.61919 38.6641 9.01596C38.7487 9.39777 38.8718 10.109 38.9718 10.7603C39.0334 11.1645 39.0872 11.5389 39.118 11.8009C39.1719 11.7784 39.2257 11.756 39.2796 11.7485C39.3257 11.7335 39.3796 11.7335 39.4334 11.7335C39.3257 11.2095 39.1334 10.1539 38.9795 9.26301C38.8641 8.58924 38.7718 8.00531 38.7564 7.80318C38.7564 7.78072 38.7487 7.76575 38.7487 7.75077ZM34.4713 13.2233C34.4944 13.2757 34.5252 13.3281 34.5713 13.3655C34.6867 13.4853 34.856 13.5527 34.9868 13.5677C35.0868 13.5751 35.2176 13.5901 35.3484 13.5901C35.4484 13.5976 35.5484 13.5976 35.6407 13.5826C36.033 13.5452 36.0407 13.2008 36.0561 12.8639C36.0561 12.7966 36.0561 12.7292 36.0638 12.6768C36.0792 12.4073 36.0946 11.449 36.0946 10.6405C36.1023 10.0566 36.0946 9.55498 36.0715 9.4352C36.0561 9.36034 36.0177 9.30045 35.9638 9.26301C35.8715 9.19564 35.7561 9.17318 35.6869 9.17318C35.633 9.16569 35.5176 9.17318 35.3868 9.17318C35.2637 9.17318 35.1176 9.18066 35.0022 9.18066C34.8637 9.18815 34.7483 9.18815 34.679 9.23307C34.6252 9.26301 34.5944 9.33788 34.579 9.49509C34.9252 9.4876 35.3868 9.4876 35.6176 9.49509C35.7176 9.49509 35.7792 9.4876 35.7869 9.71219C35.8099 10.2437 35.8022 10.8426 35.7946 10.9624C35.7946 11.7185 35.7638 12.0928 35.7407 12.8565C35.733 13.1634 35.733 13.2907 35.5099 13.3131C35.2945 13.3281 34.9021 13.3131 34.6867 13.2832C34.6175 13.2757 34.5483 13.2607 34.4713 13.2233ZM34.6406 25.7779L34.8637 25.8003C34.9252 25.8078 34.9868 25.8078 35.0252 25.8078C35.1406 25.8078 35.1329 25.7105 35.1022 25.6282C35.0868 25.5683 35.0175 25.3736 34.9714 25.1939C34.9483 25.0817 34.9175 25.0592 34.8021 25.0592L34.4944 25.0442C34.3944 25.0367 34.3713 25.0966 34.3944 25.1865C34.4483 25.3661 34.5175 25.5608 34.5636 25.6806C34.5867 25.733 34.6098 25.7629 34.6406 25.7779ZM36.8101 26.826C36.8101 26.6688 36.8101 26.5041 36.8101 26.3394L28.9707 25.4709C28.9707 25.6731 28.9707 25.8453 28.9784 25.9576L36.8101 26.826ZM36.8101 26.0174C36.8101 24.5726 36.8716 22.8358 37.264 21.3235L36.8947 21.331L35.8638 22.7085H28.9399C28.9399 23.3673 28.9553 24.4004 28.963 25.149L33.3481 25.6356C33.2481 25.2464 33.125 24.4528 33.0866 24.1758C33.0558 23.9662 33.1327 23.5994 33.1789 23.3673C33.2173 23.2101 33.2943 23.1427 33.4635 23.1502C33.5328 23.1577 35.8638 23.1726 36.0254 23.1801C36.1946 23.1951 36.2254 23.2625 36.2023 23.3972C36.1792 23.532 36.0869 23.7865 36.0946 24.4154L36.1177 25.9426L36.8101 26.0174ZM32.0249 23.27C31.948 23.4197 31.7941 23.7416 31.7787 23.8838C31.7556 23.9961 31.8326 24.5277 31.9864 24.5501C32.0249 24.5501 32.3019 24.5576 32.3634 24.5576C32.5711 24.5576 32.548 24.4603 32.4711 24.1683C32.4326 23.9961 32.4019 23.8614 32.648 23.3298C32.6788 23.2625 32.6865 23.1876 32.6019 23.1801C32.548 23.1801 32.2326 23.1801 32.148 23.1801C32.0864 23.1876 32.0557 23.2026 32.0249 23.27ZM35.9484 22.177L36.5793 21.331L29.9477 21.3984C29.34 21.4059 28.9707 21.4283 28.9399 22.1545V22.177H35.9484ZM39.8027 17.9397C40.5259 17.6402 41.3644 17.5354 42.1953 17.5878L40.4489 16.8991L47.9652 19.0027L40.4105 16.0456L44.5494 17.206L44.134 16.6595L40.372 15.1847L43.7262 16.1205L43.2108 15.4542L42.0414 14.9976C41.9414 14.9976 41.8645 14.9976 41.8337 14.9901C41.7029 14.9901 41.6029 14.9601 41.526 14.9077C41.4721 14.8628 41.4336 14.8104 41.4029 14.7505L40.3412 14.3313L41.3798 14.6232C41.3644 14.5035 41.3721 14.2489 41.3798 14.0393C41.3798 13.9869 41.3798 13.942 41.3798 13.8971L40.3028 13.4703L41.3798 13.7698C41.3798 13.7249 41.3798 13.68 41.3798 13.6276C41.3875 13.4928 41.4106 13.3356 41.4875 13.2308C41.0336 13.081 40.5797 12.9388 40.1181 12.8041C39.8412 13.1035 39.8412 13.5078 39.8412 13.942V14.0168C39.8335 15.0425 39.8104 17.1686 39.8027 17.9397Z" fill="white"/>
<path id="Vector_10" fill-rule="evenodd" clip-rule="evenodd" d="M10.14 20.0061L27.2265 19.1152L27.3496 1.47741L27.2188 1.46992C26.8727 1.45495 26.6034 1.4849 26.288 1.61965L26.1726 18.0671L10.14 19.5045V20.0061ZM24.934 26.4294C24.7801 26.8112 24.5724 27.0433 24.3493 27.0433C23.88 27.0433 23.4954 26.0401 23.4954 24.7974C23.4954 23.6669 23.8108 22.7237 24.2262 22.5739C23.9954 22.9482 23.8339 23.637 23.8339 24.4156C23.8339 25.5984 24.2031 26.5641 24.6493 26.5641C24.7493 26.5641 24.8417 26.5192 24.934 26.4294ZM14.3713 24.3632C14.2789 24.9396 14.0558 25.3439 13.802 25.3439C13.4558 25.3439 13.1788 24.6177 13.1788 23.7118C13.1788 23.2552 13.2557 22.8434 13.3635 22.5515C13.3019 22.791 13.2634 23.083 13.2634 23.3974C13.2634 24.2584 13.5404 24.9546 13.8866 24.9546C14.0866 24.9546 14.2559 24.7225 14.3713 24.3632ZM12.4634 24.1461C12.3556 24.5578 12.1787 24.8273 11.971 24.8273C11.6556 24.8273 11.394 24.1535 11.394 23.33C11.394 22.6937 11.5479 22.1547 11.7633 21.9376C11.6402 22.1996 11.5633 22.5964 11.5633 23.0381C11.5633 23.8241 11.8094 24.4605 12.1172 24.4605C12.2479 24.4605 12.371 24.3407 12.4634 24.1461ZM27.8112 26.5417C27.642 27.193 27.3573 27.6122 27.0419 27.6122C26.5265 27.6122 26.111 26.5267 26.111 25.1792C26.111 24.161 26.3572 23.2851 26.6957 22.9258C26.4803 23.3525 26.3418 24.0263 26.3418 24.7824C26.3418 26.07 26.7419 27.1106 27.2265 27.1106C27.4496 27.1106 27.6497 26.8935 27.8112 26.5417ZM17.0331 24.2958L16.0176 24.2209V21.6831L17.0331 21.6531V24.2958ZM17.9178 24.3632L17.2716 24.3182V21.7804L18.564 21.5408L17.9178 21.7579V24.3632ZM22.2106 21.9301L22.2183 24.6926L19.0949 24.453V21.9301H20.3258V22.3868L20.7335 22.4167V21.9301H22.2106ZM23.303 21.4884L22.2106 21.6606V21.7953L19.0949 21.8028V21.6007L23.303 21.4884ZM25.9879 0.69883L10.2016 9.18086V9.47282L25.8495 1.40255C25.8956 1.38009 25.9418 1.35763 25.9802 1.33517L25.9879 0.69883ZM24.4185 3.26665H24.8032V16.4651L24.4185 16.51V3.26665ZM10.917 10.1466H11.2248L11.1094 18.0671L10.8016 18.1046L10.917 10.1466ZM12.6018 9.28567C12.7095 9.28567 12.8172 9.28567 12.9172 9.28567L12.8095 17.865L12.4941 17.9024L12.6018 9.28567ZM14.2943 8.42474C14.402 8.42474 14.5097 8.42474 14.6174 8.42474L14.5174 17.6704L14.1943 17.7078L14.2943 8.42474ZM15.9791 7.56381C16.0945 7.56381 16.2022 7.56381 16.3176 7.56381L16.2253 17.4682L15.8945 17.5057L15.9791 7.56381ZM17.6716 6.71036C17.7793 6.71036 17.8947 6.71036 18.0101 6.71036L17.9332 17.2661L17.5947 17.3035L17.6716 6.71036ZM19.3564 5.84943C19.4718 5.84943 19.5949 5.84943 19.7103 5.84943L19.6488 17.064L19.2949 17.1089L19.3564 5.84943ZM21.0412 4.9885C21.1643 4.9885 21.2874 4.9885 21.4105 4.9885L21.3643 16.8693L21.0028 16.9068L21.0412 4.9885ZM22.7337 4.12757C22.8568 4.12757 22.9799 4.12757 23.103 4.12757L23.0799 16.6672L22.7107 16.7121L22.7337 4.12757ZM29.6345 0.496698L27.2188 0.39189C26.8727 0.384403 26.6111 0.406862 26.2957 0.549103L26.288 1.19293C26.6034 1.07315 26.8957 1.05069 27.2265 1.06566L29.5807 1.16298L29.6037 0.803638C29.6114 0.691343 29.6191 0.586535 29.6345 0.496698ZM58.1531 17.6479L60.7149 15.3197H60.6534C60.538 15.3197 60.4303 15.3197 60.3226 15.3197L58.1531 17.2212V17.6479Z" fill="white"/>
<path id="Vector_11" d="M27.21 51.7466L27.4639 52.6674H26.7869V56.6951H25.7483V52.6674H25.0713L25.3329 51.7466H27.21ZM28.764 52.615V54.3219H29.2564C29.3256 54.3219 29.3564 54.2845 29.3564 54.2171V52.7198C29.3564 52.6524 29.3256 52.615 29.2564 52.615H28.764ZM30.3642 54.6812C30.3642 54.7935 30.318 54.8908 30.2411 54.9807C30.1642 55.0705 30.0565 55.1154 29.9026 55.1154L30.4411 56.6951H29.3872L28.8948 55.1154H28.764V56.6951H27.7485V51.7466H29.6718C29.9103 51.7466 30.0872 51.8065 30.1949 51.9263C30.3026 52.0385 30.3642 52.1958 30.3642 52.3904V54.6812ZM31.5874 56.6951C31.2951 56.6951 31.0873 56.6352 30.972 56.5154C30.8566 56.3956 30.795 56.201 30.795 55.9314V51.7466H31.8336V55.7143C31.8336 55.7518 31.8413 55.7817 31.849 55.7967C31.8644 55.8192 31.8874 55.8266 31.9336 55.8266H32.2875C32.326 55.8266 32.3567 55.8192 32.3644 55.7967C32.3798 55.7817 32.3875 55.7518 32.3875 55.7143V51.7466H33.4261V55.9314C33.4261 56.201 33.3645 56.3956 33.2491 56.5154C33.1337 56.6352 32.926 56.6951 32.6337 56.6951H31.5874ZM34.6339 56.6951C34.3416 56.6951 34.1338 56.6352 34.0184 56.5154C33.9031 56.3956 33.8415 56.201 33.8415 55.9314V52.353C33.8415 52.1583 33.9031 52.0086 34.0184 51.9038C34.1262 51.799 34.2723 51.7466 34.4416 51.7466H35.7802L35.9494 52.6674H34.9801C34.9185 52.6674 34.8878 52.7048 34.8878 52.7647V55.6769C34.8878 55.7443 34.9185 55.7742 34.9801 55.7742H35.9494L35.7725 56.6951H34.6339ZM37.3419 53.8727H37.4958L38.0112 51.7466H39.0652L38.4574 54.0299L39.0575 56.6951H37.942L37.5419 54.6513H37.3419V56.6951H36.3033V51.7466H37.3419V53.8727ZM39.3421 51.7466H40.3576V56.6951H39.3421V51.7466ZM40.7807 51.7466H41.7501L42.2655 53.7305V51.7466H43.3118V56.6951H42.2655L41.7193 54.6288V56.6951H40.7807V51.7466ZM43.7349 52.3455C43.7349 52.1658 43.7811 52.0236 43.8811 51.9113C43.9811 51.8065 44.135 51.7466 44.335 51.7466H45.7813L45.9583 52.6674H44.8427C44.7812 52.6674 44.7581 52.7048 44.7581 52.7647V55.6994C44.7581 55.7593 44.7812 55.7967 44.8427 55.7967H45.312V53.8428H46.2968V56.6951H44.5196C44.2273 56.6951 44.0273 56.6352 43.9042 56.5154C43.7888 56.3956 43.7349 56.201 43.7349 55.9314V52.3455Z" fill="#FEFEFE"/>
<path id="Vector_12" d="M32.2795 58.208H33.3181V62.2282H34.3413L34.1721 63.149H32.2795V58.208ZM34.6567 58.208H35.703V62.2282H36.7262L36.5493 63.149H34.6567V58.208ZM37.834 63.149C37.5417 63.149 37.334 63.0891 37.2186 62.9693C37.1032 62.857 37.0416 62.6549 37.0416 62.3854V58.8144C37.0416 58.6198 37.1032 58.47 37.2109 58.3652C37.3263 58.2604 37.4724 58.208 37.6417 58.208H38.9803L39.1495 59.1288H38.1802C38.1187 59.1288 38.0879 59.1588 38.0879 59.2187V62.1309C38.0879 62.1982 38.1187 62.2282 38.1802 62.2282H39.1495L38.9726 63.149H37.834Z" fill="#FEFEFE"/>
<path id="Vector_13" d="M6.44688 40.3609C6.52381 40.7353 6.52381 41.0422 6.45457 41.2818C6.38533 41.5288 6.23147 41.7983 5.97759 42.0978L4.00814 44.8977C3.9389 44.98 3.92352 45.1073 3.95429 45.2645L4.40819 47.5254L7.47776 46.7318L7.56239 49.5392L2.40027 50.8718L1.354 45.6613C1.26168 45.1971 1.24629 44.7928 1.30015 44.441C1.354 44.0891 1.51555 43.7597 1.78482 43.4528L3.76965 40.7353C3.83889 40.6529 3.87736 40.5855 3.88505 40.5406C3.90044 40.4957 3.89275 40.4433 3.88505 40.3759L3.50809 38.4744C3.46962 38.3022 3.36961 38.2348 3.20805 38.2797L0.100011 39.0808L0 36.2734L3.86197 35.2777C4.2851 35.1654 4.66976 35.2328 5.01595 35.4649C5.36214 35.6969 5.59294 36.0937 5.70833 36.6702L6.44688 40.3609ZM12.7937 36.2285L13.2092 40.0839L14.4247 39.9192C14.517 39.9043 14.5939 39.8594 14.6478 39.792C14.7017 39.7246 14.717 39.6198 14.7017 39.485L14.3632 36.2959C14.3401 36.1087 14.2478 36.0189 14.0939 36.0413L12.7937 36.2285ZM15.0709 42.5245C15.0555 42.3673 15.0017 42.255 14.9248 42.2101C14.8478 42.1577 14.7478 42.1427 14.6324 42.1577L13.4477 42.3224L13.8246 45.796L15.1325 45.6163C15.2402 45.6014 15.3094 45.5639 15.3402 45.5115C15.371 45.4591 15.3787 45.3768 15.3633 45.272L15.0709 42.5245ZM17.1635 38.9161C17.2019 39.2829 17.1789 39.6048 17.0788 39.8818C16.9788 40.1663 16.7634 40.3834 16.4326 40.5406C16.7942 40.5181 17.0711 40.623 17.2558 40.8625C17.4481 41.0946 17.5558 41.3791 17.5943 41.701L18.002 45.519C18.0943 46.335 18.0097 46.9339 17.7481 47.3307C17.4866 47.7275 16.9865 47.9745 16.2326 48.0794L11.5321 48.7382L9.93958 34.005L14.994 33.2938C15.5094 33.2265 15.9095 33.3313 16.2018 33.6232C16.4942 33.9152 16.6711 34.3269 16.725 34.8734L17.1635 38.9161ZM21.3101 35.1355L21.564 40.2412L22.841 40.1588C23.0103 40.1513 23.0872 40.039 23.0795 39.8369L22.8564 35.3376C22.841 35.1355 22.7564 35.0381 22.5872 35.0531L21.3101 35.1355ZM25.7183 41.0572C25.7337 41.3866 25.649 41.6935 25.4644 41.978C25.2798 42.2625 25.0028 42.4197 24.6182 42.4421L26.2183 47.0762L23.5257 47.2484L22.0256 42.6143L21.6871 42.6368L21.9255 47.3532L19.3176 47.5254L18.5713 32.7024L23.518 32.388C24.1258 32.3431 24.5874 32.4928 24.8797 32.8222C25.1798 33.1516 25.349 33.6083 25.3721 34.1922L25.7183 41.0572ZM29.6572 34.6638C29.5033 34.6713 29.4264 34.7686 29.4341 34.9558L29.6803 43.9993C29.688 44.1116 29.7033 44.1865 29.7341 44.2389C29.7649 44.2838 29.8341 44.3062 29.9418 44.2988L30.9342 44.2613C31.0419 44.2613 31.1112 44.2314 31.1343 44.1865C31.165 44.1341 31.1804 44.0592 31.1727 43.9469L30.9266 34.9034C30.9189 34.7162 30.8342 34.6189 30.6804 34.6264L29.6572 34.6638ZM33.8423 44.6506C33.85 44.9351 33.8269 45.2121 33.773 45.4666C33.7192 45.7212 33.6269 45.9457 33.4884 46.1404C33.3499 46.335 33.1576 46.4922 32.9268 46.6195C32.6883 46.7468 32.3883 46.8142 32.0267 46.8291L29.0033 46.9339C28.6494 46.9489 28.3416 46.904 28.1032 46.7917C27.857 46.6869 27.6646 46.5372 27.5108 46.35C27.3646 46.1703 27.2569 45.9532 27.1877 45.6987C27.1184 45.4516 27.0877 45.1821 27.08 44.8977L26.7799 34.0874C26.7569 33.5034 26.8876 33.0318 27.1569 32.6725C27.4339 32.3131 27.8724 32.126 28.4878 32.1035L31.7266 31.9912C32.3344 31.9687 32.7883 32.126 33.0806 32.4628C33.373 32.7997 33.5268 33.2639 33.5422 33.8478L33.8423 44.6506ZM40.543 32.126L41.1123 34.9109L39.366 34.8435L39.0352 46.919L36.3656 46.8216L36.7041 34.7537L34.9578 34.6863L35.7194 31.9463L40.543 32.126ZM48.2285 47.5628L45.5744 47.3382L45.9667 41.4165L44.5512 41.2967L44.1588 47.2184L41.497 46.9863L42.4817 32.1859L45.1435 32.4179L44.7204 38.7439L46.136 38.8637L46.5591 32.5377L49.2132 32.7698L48.2285 47.5628ZM50.9057 32.9345L55.9447 33.6382L56.0909 36.4456L53.2675 36.0488L52.8906 39.5449L55.037 39.8444L54.76 42.3822L52.6136 42.0828L52.2674 45.2944L54.9831 45.6762L54.2446 48.3563L49.3132 47.6676L50.9057 32.9345ZM60.076 36.9771L59.3144 42.0229L60.576 42.27C60.7453 42.2999 60.8376 42.2175 60.8684 42.0154L61.5377 37.576C61.5685 37.3739 61.4992 37.2541 61.33 37.2242L60.076 36.9771ZM63.1994 43.8795C63.1532 44.2014 63.0148 44.4784 62.7763 44.7105C62.5378 44.9426 62.2378 45.0174 61.8531 44.9501L62.507 49.8686L59.8452 49.352L59.299 44.4485L58.9605 44.3886L58.2604 49.0451L55.6909 48.551L57.8834 33.9152L62.7609 34.866C63.3687 34.9783 63.7841 35.2403 64.0072 35.6371C64.238 36.0338 64.3072 36.5204 64.2226 37.0969L63.1994 43.8795ZM63.9841 50.3402L64.0687 47.5254L66.8075 48.2366C67.0075 48.289 67.1229 48.2216 67.1691 48.0195L67.6999 45.3843C67.7384 45.1821 67.723 45.0549 67.6614 44.995C67.5999 44.9426 67.4845 44.8902 67.3076 44.8453L65.992 44.5009C65.8074 44.4485 65.6304 44.3886 65.4689 44.3137C65.2996 44.2314 65.1689 44.1191 65.0535 43.9619C64.9458 43.8047 64.8765 43.61 64.8381 43.3779C64.8073 43.1459 64.8227 42.8539 64.8996 42.4945L65.8843 37.5835C65.9997 37.0145 66.2305 36.5953 66.5767 36.3258C66.9152 36.0563 67.3845 36.0039 67.9846 36.1536L71.4926 37.0669L71.3926 39.8743L68.5154 39.1257C68.3 39.0733 68.1769 39.1556 68.1307 39.3653L67.5999 42.0004C67.5691 42.1427 67.5845 42.255 67.6384 42.3224C67.6922 42.3972 67.7845 42.4421 67.9153 42.4796L69.5078 42.8913C69.9156 43.0036 70.2079 43.1908 70.3848 43.4678C70.5541 43.7448 70.5849 44.1565 70.4771 44.703L69.5155 49.4718C69.3539 50.2654 69.1001 50.7969 68.7462 51.0514C68.3923 51.3135 67.8538 51.3434 67.1229 51.1562L63.9841 50.3402Z" fill="#E80008"/>
</g>
</g>
</svg>
