<svg width="72" height="72" viewBox="0 0 72 72" fill="none" xmlns="http://www.w3.org/2000/svg">
<g id="vaadin:boat">
<path id="Vector" d="M6.75 43.2C11.7 46.35 18 51.75 18 58.05V63H18.45C18.45 63 22.5 63 27.45 58.5C31.95 63 36.45 63 36.45 63C36.45 63 40.95 63 45.45 58.5C49.95 63 54 63 54 63H54.45V58.05C54.45 51.75 60.75 46.35 65.7 43.2C68.4 41.4 67.95 37.8 64.8 36.9L58.5 35.1V18H54V13.5H40.5V4.5H31.5V13.5H18V18H13.5V35.1L7.65 36.9C4.05 37.8 4.05 41.4 6.75 43.2ZM18 22.5H22.5V18H49.5V22.5H54V33.75L39.15 29.25C36.9 28.8 34.65 28.8 32.4 29.25L18 33.75V22.5ZM63 63C58.5 67.5 54 67.5 54 67.5C54 67.5 49.5 67.5 45 63C40.5 67.5 36 67.5 36 67.5C36 67.5 31.5 67.5 27 63C22.5 67.5 18 67.5 18 67.5C18 67.5 13.5 67.5 9 63C4.5 67.5 0 67.5 0 67.5V72H72V67.5C72 67.5 67.5 67.5 63 63Z" fill="#E80008"/>
</g>
</svg>
