<svg width="96" height="41" viewBox="0 0 96 41" fill="none" xmlns="http://www.w3.org/2000/svg">
<g id="Group 138">
<g id="Clip path group">
<mask id="mask0_176_10591" style="mask-type:luminance" maskUnits="userSpaceOnUse" x="6" y="29" width="13" height="12">
<g id="e3426ce106">
<path id="Vector" d="M6.51025 29.0986H18.5103V40.9997H6.51025V29.0986Z" fill="white"/>
</g>
</mask>
<g mask="url(#mask0_176_10591)">
<g id="Group">
<path id="Vector_2" d="M17.5206 35.5208C17.5206 35.1615 17.4841 34.8073 17.4164 34.4531C17.3435 34.099 17.2393 33.7604 17.1039 33.4271C16.9633 33.0938 16.7966 32.776 16.5935 32.4792C16.3956 32.1823 16.1664 31.9063 15.9112 31.651C15.656 31.3958 15.38 31.1667 15.0831 30.9688C14.781 30.7708 14.4685 30.599 14.1352 30.4635C13.8018 30.3229 13.4581 30.2188 13.1039 30.151C12.7498 30.0781 12.3956 30.0469 12.0362 30.0469C11.6716 30.0469 11.3175 30.0781 10.9633 30.151C10.6091 30.2188 10.2654 30.3229 9.93205 30.4635C9.59871 30.599 9.28621 30.7656 8.98413 30.9688C8.68725 31.1667 8.40601 31.3958 8.15601 31.6458C7.9008 31.901 7.67163 32.1771 7.47371 32.4792C7.27059 32.776 7.10392 33.0937 6.9633 33.4219C6.82788 33.7552 6.72371 34.099 6.6508 34.4531C6.58309 34.8021 6.54663 35.1615 6.54663 35.5208C6.54663 35.8802 6.58309 36.2344 6.6508 36.5885C6.72371 36.9375 6.82788 37.2812 6.9633 37.6146C7.10392 37.9479 7.27059 38.2604 7.46851 38.5625C7.67163 38.8594 7.9008 39.1354 8.1508 39.3906C8.40601 39.6458 8.68725 39.8698 8.98413 40.0729C9.28621 40.2708 9.59871 40.4375 9.93205 40.5781C10.2654 40.7135 10.6091 40.8177 10.9633 40.8854C11.3175 40.9583 11.6716 40.9948 12.031 40.9948C12.3904 40.9948 12.7498 40.9583 13.1039 40.8906C13.4581 40.8177 13.7966 40.7135 14.13 40.5781C14.4633 40.4375 14.781 40.2708 15.0779 40.0729C15.38 39.8698 15.656 39.6458 15.9112 39.3906C16.1664 39.1354 16.3956 38.8594 16.5935 38.5625C16.7966 38.2604 16.9633 37.9479 17.0987 37.6146C17.2393 37.2812 17.3435 36.9427 17.4112 36.5885C17.4841 36.2344 17.5206 35.8802 17.5206 35.5208Z" fill="#E80008"/>
</g>
</g>
</g>
<g id="Clip path group_2">
<mask id="mask1_176_10591" style="mask-type:luminance" maskUnits="userSpaceOnUse" x="19" y="29" width="13" height="12">
<g id="9a81f85d92">
<path id="Vector_3" d="M19.8435 29.0986H31.8435V40.9997H19.8435V29.0986Z" fill="white"/>
</g>
</mask>
<g mask="url(#mask1_176_10591)">
<g id="Group_2">
<path id="Vector_4" d="M20.2705 35.5208C20.2705 35.1615 20.3018 34.8073 20.3747 34.4531C20.4424 34.099 20.5466 33.7604 20.6872 33.4271C20.8226 33.0938 20.9945 32.776 21.1924 32.4792C21.3903 32.1823 21.6195 31.9063 21.8747 31.651C22.1299 31.3958 22.4059 31.1667 22.708 30.9688C23.0049 30.7708 23.3226 30.599 23.6559 30.4635C23.9893 30.3229 24.333 30.2188 24.682 30.151C25.0361 30.0781 25.3955 30.0469 25.7549 30.0469C26.1143 30.0469 26.4736 30.0781 26.8226 30.151C27.1768 30.2188 27.5205 30.3229 27.8538 30.4635C28.1872 30.599 28.5049 30.7656 28.8018 30.9688C29.1038 31.1667 29.3799 31.3958 29.6351 31.6458C29.8903 31.901 30.1143 32.1771 30.3174 32.4792C30.5153 32.776 30.6872 33.0937 30.8226 33.4219C30.9632 33.7552 31.0674 34.099 31.1351 34.4531C31.208 34.8021 31.2393 35.1615 31.2393 35.5208C31.2393 35.8802 31.208 36.2344 31.1351 36.5885C31.0674 36.9375 30.9632 37.2812 30.8226 37.6146C30.6872 37.9479 30.5153 38.2604 30.3174 38.5625C30.1195 38.8594 29.8903 39.1354 29.6351 39.3906C29.3799 39.6458 29.1038 39.8698 28.8018 40.0729C28.5049 40.2708 28.1872 40.4375 27.8538 40.5781C27.5205 40.7135 27.1768 40.8177 26.8278 40.8854C26.4736 40.9583 26.1143 40.9948 25.7549 40.9948C25.3955 40.9948 25.0361 40.9583 24.6872 40.8906C24.333 40.8177 23.9893 40.7135 23.6559 40.5781C23.3226 40.4375 23.0049 40.2708 22.708 40.0729C22.4059 39.8698 22.1299 39.6458 21.8747 39.3906C21.6195 39.1354 21.3955 38.8594 21.1924 38.5625C20.9945 38.2604 20.8226 37.9479 20.6872 37.6146C20.5466 37.2812 20.4424 36.9427 20.3747 36.5885C20.3018 36.2344 20.2705 35.8802 20.2705 35.5208Z" fill="#E80008"/>
</g>
</g>
</g>
<path id="Vector_5" d="M12.0309 38.7292C11.6038 38.7292 11.1976 38.6458 10.8018 38.4844C10.4059 38.3229 10.0622 38.0885 9.76009 37.7865C9.45801 37.4896 9.22363 37.1406 9.06217 36.7448C8.89551 36.3542 8.81738 35.9427 8.81738 35.5208C8.81738 35.0938 8.89551 34.6823 9.06217 34.2917C9.22363 33.8958 9.45801 33.5521 9.76009 33.25C10.0622 32.9479 10.4059 32.7188 10.8018 32.5521C11.1976 32.3906 11.6091 32.3125 12.0361 32.3125C12.458 32.3125 12.8695 32.3906 13.2653 32.5573C13.6611 32.7188 14.0049 32.9479 14.307 33.25C14.6091 33.5521 14.8434 33.901 15.0049 34.2917C15.1663 34.6875 15.2497 35.0938 15.2497 35.5208C15.2497 35.9479 15.1663 36.3542 15.0049 36.75C14.8382 37.1406 14.6091 37.4896 14.307 37.7865C14.0049 38.0885 13.6559 38.3229 13.2653 38.4844C12.8695 38.6458 12.458 38.7292 12.0309 38.7292Z" fill="#F3F9FD"/>
<path id="Vector_6" d="M25.7498 38.7292C25.3227 38.7292 24.9164 38.6458 24.5206 38.4844C24.1248 38.3229 23.7758 38.0885 23.4737 37.7917C23.1716 37.4896 22.9425 37.1406 22.7758 36.75C22.6143 36.3542 22.531 35.9479 22.531 35.5208C22.531 35.0938 22.6143 34.6823 22.7758 34.2917C22.9425 33.8958 23.1716 33.5521 23.4737 33.25C23.7758 32.9479 24.1248 32.7188 24.5206 32.5521C24.9112 32.3906 25.3227 32.3125 25.7498 32.3125C26.1768 32.3125 26.5883 32.3906 26.9789 32.5573C27.3748 32.7188 27.7237 32.9479 28.0258 33.25C28.3279 33.5521 28.557 33.901 28.7237 34.2917C28.8852 34.6875 28.9685 35.0938 28.9633 35.5208C28.9633 35.9479 28.8852 36.3542 28.7185 36.7448C28.557 37.1406 28.3227 37.4844 28.0206 37.7865C27.7237 38.0885 27.3748 38.3177 26.9789 38.4844C26.5883 38.6458 26.1768 38.7292 25.7498 38.7292Z" fill="#F3F9FD"/>
<g id="Clip path group_3">
<mask id="mask2_176_10591" style="mask-type:luminance" maskUnits="userSpaceOnUse" x="63" y="29" width="15" height="12">
<g id="e36b2856f1">
<path id="Vector_7" d="M63.8435 29.0986H77.1768V40.9997H63.8435V29.0986Z" fill="white"/>
</g>
</mask>
<g mask="url(#mask2_176_10591)">
<g id="Group_3">
<path id="Vector_8" d="M75.9842 35.5208C75.9842 35.1615 75.9478 34.8073 75.88 34.4531C75.8071 34.099 75.703 33.7604 75.5675 33.4271C75.4269 33.0938 75.2603 32.776 75.0623 32.4792C74.8592 32.1823 74.63 31.9063 74.38 31.651C74.1248 31.3958 73.8436 31.1667 73.5467 30.9688C73.2446 30.7708 72.9321 30.599 72.5988 30.4635C72.2655 30.3229 71.9217 30.2188 71.5675 30.151C71.2134 30.0781 70.8592 30.0469 70.4998 30.0469C70.1405 30.0469 69.7811 30.0781 69.4269 30.151C69.0728 30.2188 68.729 30.3229 68.4009 30.4635C68.0675 30.599 67.7498 30.7656 67.4478 30.9688C67.1509 31.1667 66.8748 31.3958 66.6196 31.6458C66.3644 31.901 66.1353 32.1771 65.9373 32.4792C65.7342 32.776 65.5675 33.0937 65.4269 33.4219C65.2915 33.7552 65.1873 34.099 65.1144 34.4531C65.0467 34.8021 65.0103 35.1615 65.0103 35.5208C65.0103 35.8802 65.0467 36.2344 65.1144 36.5885C65.1873 36.9375 65.2915 37.2812 65.4269 37.6146C65.5675 37.9479 65.7342 38.2604 65.9373 38.5625C66.1353 38.8594 66.3644 39.1354 66.6196 39.3906C66.8748 39.6458 67.1509 39.8698 67.4478 40.0729C67.7498 40.2708 68.0675 40.4375 68.3957 40.5781C68.729 40.7135 69.0728 40.8177 69.4269 40.8854C69.7811 40.9583 70.1353 40.9948 70.4998 40.9948C70.8592 40.9948 71.2134 40.9583 71.5675 40.8906C71.9217 40.8177 72.2655 40.7135 72.5988 40.5781C72.9269 40.4375 73.2446 40.2708 73.5467 40.0729C73.8436 39.8698 74.1196 39.6458 74.3748 39.3906C74.63 39.1354 74.8592 38.8594 75.0571 38.5625C75.2603 38.2604 75.4269 37.9479 75.5675 37.6146C75.703 37.2812 75.8071 36.9427 75.88 36.5885C75.9478 36.2344 75.9842 35.8802 75.9842 35.5208Z" fill="#E80008"/>
</g>
</g>
</g>
<g id="Clip path group_4">
<mask id="mask3_176_10591" style="mask-type:luminance" maskUnits="userSpaceOnUse" x="78" y="29" width="13" height="12">
<g id="5c69c3ffe0">
<path id="Vector_9" d="M78.5103 29.0986H90.5103V40.9997H78.5103V29.0986Z" fill="white"/>
</g>
</mask>
<g mask="url(#mask3_176_10591)">
<g id="Group_4">
<path id="Vector_10" d="M78.729 35.5208C78.729 35.1615 78.7655 34.8073 78.8332 34.4531C78.9061 34.099 79.0103 33.7604 79.1457 33.4271C79.2863 33.0938 79.453 32.7813 79.6509 32.4792C79.854 32.1823 80.078 31.9063 80.3332 31.651C80.5884 31.3958 80.8644 31.1667 81.1665 30.9688C81.4634 30.7708 81.7811 30.599 82.1144 30.4635C82.4478 30.3229 82.7915 30.224 83.1405 30.151C83.4946 30.0833 83.854 30.0469 84.2134 30.0469C84.5728 30.0469 84.9321 30.0781 85.2811 30.151C85.6353 30.2188 85.979 30.3229 86.3123 30.4583C86.6457 30.599 86.9634 30.7656 87.2603 30.9635C87.5623 31.1667 87.8384 31.3906 88.0936 31.6458C88.3488 31.901 88.5728 32.1771 88.7759 32.474C88.9738 32.776 89.1457 33.0885 89.2811 33.4219C89.4217 33.7552 89.5259 34.0938 89.5936 34.4479C89.6665 34.8021 89.703 35.1563 89.703 35.5156C89.703 35.875 89.6665 36.2292 89.5988 36.5833C89.5259 36.9375 89.4217 37.276 89.2863 37.6094C89.1509 37.9427 88.979 38.2552 88.7811 38.5573C88.578 38.8542 88.354 39.1302 88.0988 39.3854C87.8436 39.6406 87.5675 39.8698 87.2655 40.0677C86.9686 40.2656 86.6509 40.4375 86.3175 40.5729C85.9894 40.7135 85.6457 40.8177 85.2915 40.8854C84.9373 40.9583 84.5832 40.9948 84.2238 40.9948C83.8592 40.9948 83.505 40.9583 83.1509 40.8906C82.7967 40.8177 82.453 40.7135 82.1196 40.5781C81.7863 40.4427 81.4686 40.2708 81.1717 40.0729C80.8696 39.875 80.5936 39.6458 80.3384 39.3906C80.0832 39.1406 79.854 38.8646 79.6561 38.5625C79.453 38.2656 79.2863 37.9479 79.1457 37.6146C79.0103 37.2865 78.9061 36.9427 78.8332 36.5885C78.7655 36.2344 78.729 35.8802 78.729 35.5208Z" fill="#E80008"/>
</g>
</g>
</g>
<g id="Clip path group_5">
<mask id="mask4_176_10591" style="mask-type:luminance" maskUnits="userSpaceOnUse" x="0" y="2" width="96" height="34">
<g id="3dff5b350f">
<path id="Vector_11" d="M0.369629 2.43164H95.9998V35.765H0.369629V2.43164Z" fill="white"/>
</g>
</mask>
<g mask="url(#mask4_176_10591)">
<g id="Group_5">
<path id="Vector_12" d="M-0.182533 26.1816V2.47852C-0.182533 2.47852 -20.3492 5.99935 -25.1305 10.4525L-28.7555 19.5098L-46.4534 23.1608V30.8848L-47.8596 35.5202H-41.2346C-41.2398 35.0566 -41.2034 34.5983 -41.12 34.1452C-41.0315 33.6868 -40.9065 33.2441 -40.7294 32.8171C-40.5575 32.3848 -40.344 31.9785 -40.0888 31.5931C-39.8388 31.2025 -39.5471 30.8483 -39.219 30.515C-38.8961 30.1868 -38.5419 29.8952 -38.1565 29.6348C-37.7711 29.3743 -37.3648 29.1556 -36.9377 28.9785C-36.5107 28.7962 -36.068 28.666 -35.6148 28.5723C-35.1565 28.4837 -34.6982 28.4368 -34.2346 28.4368C-33.7711 28.4368 -33.3127 28.4837 -32.8596 28.5723C-32.4013 28.666 -31.9638 28.7962 -31.5315 28.9785C-31.1044 29.1556 -30.6982 29.3743 -30.3127 29.6348C-29.9325 29.8952 -29.5784 30.1868 -29.2502 30.515C-28.9221 30.8483 -28.6357 31.2025 -28.3805 31.5931C-28.1252 31.9785 -27.9117 32.3848 -27.7398 32.8171C-27.568 33.2441 -27.4377 33.6868 -27.3544 34.1452C-27.2659 34.5983 -27.2294 35.0566 -27.2346 35.5202H5.03622C5.03622 31.6712 8.17163 28.3327 12.031 28.3327H25.7498C29.6091 28.3327 32.7498 31.666 32.7498 35.5202H63.4998C63.4998 35.0619 63.5466 34.6087 63.6352 34.1608C63.7237 33.7077 63.8591 33.2702 64.031 32.8483C64.2081 32.4264 64.4268 32.0254 64.6821 31.64C64.9373 31.2598 65.2237 30.9108 65.5518 30.5827C65.8748 30.2598 66.2289 29.9681 66.6091 29.7181C66.9946 29.4629 67.3956 29.2441 67.8227 29.0723C68.2446 28.8952 68.6821 28.7598 69.13 28.6712C69.5831 28.5827 70.0362 28.5358 70.4998 28.5358H84.2237C84.6821 28.5358 85.1352 28.5827 85.5883 28.6712C86.0362 28.7598 86.4737 28.8952 86.9008 29.0671C87.3227 29.2441 87.7289 29.4629 88.1091 29.7129C88.4893 29.9681 88.8435 30.2598 89.1664 30.5827C89.4946 30.9056 89.781 31.2598 90.0362 31.64C90.2966 32.0254 90.5102 32.4264 90.6873 32.8483C90.8591 33.2702 90.9946 33.7077 91.0831 34.1556C91.1768 34.6087 91.2185 35.0619 91.2185 35.5202H95.8591V26.2025L-0.182533 26.1816Z" fill="#E80008"/>
</g>
</g>
</g>
<path id="Vector_13" d="M70.4998 38.7292C70.0727 38.7292 69.6612 38.6458 69.2654 38.4844C68.8748 38.3229 68.5258 38.0885 68.2237 37.7865C67.9216 37.4896 67.6873 37.1406 67.5258 36.7448C67.3643 36.3542 67.281 35.9427 67.281 35.5208C67.281 35.0938 67.3643 34.6823 67.5258 34.2917C67.6873 33.8958 67.9216 33.5521 68.2237 33.25C68.5258 32.9479 68.8748 32.7188 69.2654 32.5521C69.6612 32.3906 70.0727 32.3125 70.4998 32.3125C70.9268 32.3125 71.3331 32.3906 71.7289 32.5573C72.1248 32.7188 72.4685 32.9479 72.7706 33.25C73.0727 33.5521 73.307 33.901 73.4685 34.2917C73.63 34.6875 73.7133 35.0938 73.7133 35.5208C73.7133 35.9479 73.63 36.3542 73.4685 36.75C73.3018 37.1406 73.0727 37.4896 72.7706 37.7865C72.4685 38.0885 72.1195 38.3229 71.7289 38.4844C71.3331 38.6458 70.9216 38.7292 70.4998 38.7292Z" fill="#F3F9FD"/>
<path id="Vector_14" d="M84.2236 38.7292C83.7966 38.7292 83.3851 38.6458 82.9893 38.4844C82.5986 38.3229 82.2497 38.0885 81.9476 37.7865C81.6455 37.4896 81.4111 37.1406 81.2497 36.7448C81.0882 36.3542 81.0049 35.9427 81.0049 35.5208C81.0049 35.0938 81.0882 34.6823 81.2497 34.2917C81.4111 33.8958 81.6455 33.5521 81.9476 33.25C82.2497 32.9479 82.5986 32.7188 82.9893 32.5521C83.3851 32.3906 83.7966 32.3125 84.2236 32.3125C84.6507 32.3125 85.057 32.3906 85.4528 32.5573C85.8486 32.7188 86.1924 32.9479 86.4945 33.25C86.7966 33.5521 87.0309 33.901 87.1924 34.2917C87.3538 34.6875 87.4372 35.0938 87.4372 35.5208C87.4372 35.9479 87.3538 36.3542 87.1924 36.75C87.0257 37.1406 86.7966 37.4896 86.4945 37.7865C86.1924 38.0885 85.8434 38.3229 85.4528 38.4844C85.057 38.6458 84.6455 38.7292 84.2236 38.7292Z" fill="#F3F9FD"/>
<path id="Vector_15" d="M94.1247 18.9215C94.1247 22.0934 91.3695 24.6663 87.9684 24.6663H7.48926C4.08822 24.6663 1.33301 22.0934 1.33301 18.9215V11.359C1.33301 8.18197 4.08822 5.61426 7.48926 5.61426H87.9684C91.3643 5.61426 94.1195 8.18717 94.1195 11.359L94.1247 18.9215Z" fill="#E80008"/>
<g id="Clip path group_6">
<mask id="mask5_176_10591" style="mask-type:luminance" maskUnits="userSpaceOnUse" x="13" y="0" width="13" height="10">
<g id="9d82270c24">
<path id="Vector_16" d="M13.1768 0H25.1768V9.09896H13.1768V0Z" fill="white"/>
</g>
</mask>
<g mask="url(#mask5_176_10591)">
<g id="Group_6">
<path id="Vector_17" d="M13.7288 0H23.9631V7.86458H13.7288V0Z" fill="#E80008"/>
</g>
</g>
</g>
<g id="Clip path group_7">
<mask id="mask6_176_10591" style="mask-type:luminance" maskUnits="userSpaceOnUse" x="42" y="0" width="13" height="10">
<g id="b7e66c4fb9">
<path id="Vector_18" d="M42.5103 0H54.5103V9.09896H42.5103V0Z" fill="white"/>
</g>
</mask>
<g mask="url(#mask6_176_10591)">
<g id="Group_7">
<path id="Vector_19" d="M42.9895 0H53.2239V7.86458H42.9895V0Z" fill="#E80008"/>
</g>
</g>
</g>
<g id="Clip path group_8">
<mask id="mask7_176_10591" style="mask-type:luminance" maskUnits="userSpaceOnUse" x="71" y="0" width="12" height="10">
<g id="fe74340f80">
<path id="Vector_20" d="M71.8435 0H82.5102V9.09896H71.8435V0Z" fill="white"/>
</g>
</mask>
<g mask="url(#mask7_176_10591)">
<g id="Group_8">
<path id="Vector_21" d="M72.2446 0H82.479V7.86458H72.2446V0Z" fill="#E80008"/>
</g>
</g>
</g>
<path id="Vector_22" d="M8.81738 2.03125H93.6091V3.54167H8.81738V2.03125Z" fill="#F3F9FD"/>
</g>
</svg>
