<svg width="76" height="40" viewBox="0 0 76 40" fill="none" xmlns="http://www.w3.org/2000/svg">
<g id="heavy_machinery_2 (1) 1" clip-path="url(#clip0_176_10673)">
<path id="Vector" d="M3.48278 21.2656C0.951099 21.2656 0 27.9056 0 30.4364V31.5427C0.316117 36.2859 2.05888 39.6045 3.48278 39.6045H49.875C48.4511 37.5513 47.6594 34.2299 47.6594 30.4364C47.6594 26.6402 48.4511 23.3216 49.875 21.2656H3.48278Z" fill="#E80008"/>
<path id="Vector_2" d="M53.6739 21.2656C52.25 21.2656 50.1912 24.9027 50.1912 30.4364C50.1912 35.9702 52.25 39.6045 53.6739 39.6045C55.1006 39.6045 57.1595 35.9702 57.1595 30.4364C57.1595 24.9027 55.1006 21.2656 53.6739 21.2656Z" fill="#E80008"/>
<path id="Vector_3" d="M11.2429 18.7344H57.6323C56.2084 16.6784 55.4168 13.3598 55.4168 9.56358C55.4168 5.77009 56.2084 2.44872 57.6323 0.395508H11.2429C8.86786 0.395508 7.75732 6.40142 7.75732 9.56358V10.6725C7.91676 15.4158 9.65952 18.7344 11.2429 18.7344Z" fill="#E80008"/>
<path id="Vector_4" d="M61.2745 18.7344C62.7012 18.7344 64.7573 15.0974 64.7573 9.56358C64.7573 4.0298 62.7012 0.395508 61.2745 0.395508C59.8506 0.395508 57.7917 4.0298 57.7917 9.56358C57.7917 15.0974 59.8506 18.7344 61.2745 18.7344Z" fill="#E80008"/>
<path id="Vector_5" d="M66.9756 13.6758C66.1839 18.1034 64.125 21.1063 61.5906 21.2655C61.5906 21.2655 61.5906 21.2655 61.4339 21.2655H57.4756C58.8995 23.3215 59.6912 26.6401 59.6912 30.4363C59.6912 31.0677 59.6912 31.5425 59.6912 32.0174H69.0345C67.6078 29.9615 66.8162 26.6401 66.8162 22.8466C66.8162 19.0504 67.6078 15.7317 69.0345 13.6758H66.9756Z" fill="#E80008"/>
<path id="Vector_6" d="M72.5172 13.6758C71.0906 13.6758 69.0344 17.3128 69.0344 22.8466C69.0344 28.5368 71.0906 32.0174 72.5172 32.0174C73.9411 32.0174 76 28.3804 76 22.8466C76 17.1536 73.9411 13.6758 72.5172 13.6758Z" fill="#E80008"/>
</g>
<defs>
<clipPath id="clip0_176_10673">
<rect width="76" height="39" fill="white" transform="translate(0 0.5)"/>
</clipPath>
</defs>
</svg>
