<svg width="98" height="62" viewBox="0 0 98 62" fill="none" xmlns="http://www.w3.org/2000/svg">
<g id="3 (4) 1">
<g id="Clip path group">
<mask id="mask0_176_10572" style="mask-type:luminance" maskUnits="userSpaceOnUse" x="12" y="44" width="12" height="11">
<g id="f4292e8f4a">
<path id="Vector" d="M12.3586 44.0615H23.9841V54.7461H12.3586V44.0615Z" fill="white"/>
</g>
</mask>
<g mask="url(#mask0_176_10572)">
<g id="Group">
<path id="Vector_2" d="M18.3076 48.0784C19.0285 48.0841 19.6047 48.6705 19.599 49.3843C19.599 49.3984 19.599 49.4126 19.599 49.4268C19.6331 50.1349 19.0768 50.7383 18.3587 50.7723C17.6378 50.8091 17.0276 50.2567 16.9907 49.5429C16.9907 49.5089 16.9907 49.4664 16.9907 49.4268C16.9651 48.7101 17.5186 48.1068 18.2395 48.0784C18.2594 48.0784 18.2877 48.0784 18.3076 48.0784ZM18.1827 44.0703C15.2537 44.1241 12.9178 46.5177 12.9433 49.4268C12.9376 52.3557 15.3218 54.7407 18.2821 54.7464C21.2338 54.7549 23.6378 52.3812 23.6464 49.4523C23.6464 49.4409 23.6464 49.4324 23.6464 49.4268C23.6662 46.4894 21.2963 44.0958 18.3445 44.0703C18.2877 44.0703 18.2395 44.0703 18.1827 44.0703Z" fill="#E80008"/>
</g>
</g>
</g>
<g id="Clip path group_2">
<mask id="mask1_176_10572" style="mask-type:luminance" maskUnits="userSpaceOnUse" x="27" y="44" width="12" height="11">
<g id="a7086f6061">
<path id="Vector_3" d="M27.6169 44.0615H38.7684V54.7461H27.6169V44.0615Z" fill="white"/>
</g>
</mask>
<g mask="url(#mask1_176_10572)">
<g id="Group_2">
<path id="Vector_4" d="M33.3701 48.0699C34.091 48.0841 34.6586 48.6705 34.6445 49.3843C34.6445 49.3984 34.6445 49.4126 34.6445 49.4268C34.6785 50.1349 34.1251 50.7383 33.4041 50.7723C32.6917 50.8091 32.0815 50.2567 32.0446 49.5429C32.0446 49.5089 32.0446 49.4664 32.0446 49.4268C32.0106 48.7101 32.5669 48.1068 33.2793 48.0699C33.3133 48.0699 33.3417 48.0699 33.3701 48.0699ZM33.2452 44.0703C30.3133 44.1241 27.9717 46.5177 27.9973 49.4268C27.9973 52.3557 30.3956 54.7351 33.3502 54.7351C36.302 54.7351 38.7003 52.3613 38.7003 49.4268C38.7259 46.4894 36.3559 44.0958 33.3985 44.0703C33.3502 44.0703 33.2934 44.0703 33.2452 44.0703Z" fill="#E80008"/>
</g>
</g>
</g>
<g id="Clip path group_3">
<mask id="mask2_176_10572" style="mask-type:luminance" maskUnits="userSpaceOnUse" x="10" y="12" width="79" height="43">
<g id="9514784b68">
<path id="Vector_5" d="M10.179 12.3789H88.6509V54.749H10.179V12.3789Z" fill="white"/>
</g>
</mask>
<g mask="url(#mask2_176_10572)">
<g id="Group_3">
<path id="Vector_6" d="M11.1495 47.3561C11.4843 47.3561 11.7767 47.1373 11.904 46.8278C13.2479 43.5609 16.9172 41.8103 20.3738 42.8947C22.2103 43.4725 23.7049 44.7764 24.5218 46.4747C24.7669 46.9843 25.2563 47.3561 25.8217 47.3561C26.3873 47.3561 26.8768 46.9838 27.1214 46.4739C28.5784 43.4369 32.112 41.8558 35.4364 42.9004C37.0991 43.4256 38.4845 44.5507 39.3363 46.024C39.7716 46.7769 40.5166 47.3561 41.3862 47.3561H42.5522C43.2865 47.3561 43.9617 46.9537 44.3112 46.3079L46.2762 42.6767C46.6256 42.0309 47.3009 41.6286 48.0351 41.6286H50.0061C51.1107 41.6286 52.0061 42.524 52.0061 43.6286V46.3107C52.0061 47.4152 52.9016 48.3107 54.0061 48.3107H63.1472C64.2518 48.3107 65.1472 49.2061 65.1472 50.3107V51.2953C65.1472 52.3361 64.3035 53.1799 63.2626 53.1799C62.8397 53.1856 62.4878 53.5368 62.4935 53.9645C62.4935 54.3838 62.8397 54.7265 63.2626 54.7265H68.573C69.0016 54.7265 69.3478 54.3753 69.3478 53.9504C69.3422 53.5227 68.9959 53.1856 68.573 53.1799C67.5384 53.1799 66.6997 52.3412 66.6997 51.3067V50.2861C66.6997 49.1951 67.5842 48.3107 68.6752 48.3107C69.7662 48.3107 70.6506 47.4262 70.6506 46.3352V43.6286C70.6506 42.524 71.546 41.6286 72.6506 41.6286H86.4492C87.5538 41.6286 88.4492 40.7331 88.4492 39.6286V14.3848C88.4492 13.2802 87.5538 12.3848 86.4492 12.3848H12.3804C11.2758 12.3848 10.3804 13.2802 10.3804 14.3848V46.5869C10.3804 47.0117 10.7247 47.3561 11.1495 47.3561Z" fill="#E80008"/>
</g>
</g>
</g>
</g>
</svg>
