<svg width="65" height="86" viewBox="0 0 65 86" fill="none" xmlns="http://www.w3.org/2000/svg">
<g id="1 (2) 1">
<path id="Vector" d="M31.8771 50.1769C31.9015 50.1769 31.9259 50.177 31.9502 50.1772C32.3565 50.1805 32.5802 50.6296 32.3655 50.9745C32.2633 51.1387 32.082 51.2326 31.8886 51.232C31.8847 51.232 31.8809 51.232 31.8771 51.232C29.3368 51.232 27.0422 52.2547 25.3771 53.9095C23.712 55.5643 22.6838 57.8462 22.6838 60.3695C22.6838 62.8952 23.712 65.1771 25.3771 66.8319C26.2412 67.6894 27.2753 68.3764 28.4257 68.8397C28.6659 68.9364 28.8146 69.1835 28.7727 69.439C28.7199 69.7612 28.3915 69.9611 28.0879 69.8409C24.3012 68.342 21.623 64.6657 21.623 60.3695C21.623 54.7407 26.2121 50.1794 31.8771 50.1769ZM33.472 50.6173C33.7261 50.2089 34.3575 50.4465 34.2793 50.9212L34.1641 51.6202L33.1239 57.9456C33.0238 58.5545 33.4936 59.1079 34.1107 59.1079H35.331C36.1155 59.1079 36.5945 59.9699 36.1801 60.6361L30.2797 70.1216L30.0903 70.4259C29.8775 70.7678 29.3489 70.5688 29.4145 70.1714L30.6298 62.7937C30.7301 62.1847 30.2603 61.6311 29.6431 61.6311H28.4228C27.6384 61.6311 27.1594 60.7692 27.5736 60.1031L33.472 50.6173ZM34.9827 51.2997C35.0362 50.9786 35.3638 50.7797 35.6665 50.8994C39.4521 52.3955 42.1311 56.0702 42.1311 60.3695C42.1311 65.9983 37.5395 70.5621 31.8771 70.5621C31.8527 70.5621 31.8283 70.562 31.8039 70.5618C31.3976 70.5585 31.174 70.1094 31.3887 69.7645C31.4909 69.6003 31.6721 69.5064 31.8656 69.507C31.8694 69.507 31.8732 69.507 31.8771 69.507C34.4174 69.507 36.712 68.4867 38.3771 66.8319C40.0397 65.1771 41.0679 62.8952 41.0679 60.3695C41.0679 57.8462 40.0397 55.5643 38.3771 53.9095C37.5132 53.0501 36.4775 52.363 35.3288 51.8997C35.0885 51.8028 34.9401 51.5552 34.9827 51.2997ZM48.3458 74.1355C48.8981 74.1355 49.3458 73.6877 49.3458 73.1355V47.6035C49.3458 47.0512 48.8981 46.6035 48.3458 46.6035H15.4083C14.856 46.6035 14.4083 47.0512 14.4083 47.6035V73.1355C14.4083 73.6877 14.856 74.1355 15.4083 74.1355H48.3458Z" fill="#E80008"/>
<g id="Clip path group">
<mask id="mask0_176_10551" style="mask-type:luminance" maskUnits="userSpaceOnUse" x="6" y="42" width="52" height="4">
<g id="51fc0ebebe">
<path id="Vector_2" d="M6.36365 42.0449H57.4007V45.2301H6.36365V42.0449Z" fill="white"/>
</g>
</mask>
<g mask="url(#mask0_176_10551)">
<g id="Group">
<path id="Vector_3" d="M7.65258 44.917H56.1042C56.8063 44.917 57.3781 44.3496 57.3781 43.6504C57.3781 42.9512 56.8063 42.3838 56.1042 42.3838H7.65258C6.94791 42.3838 6.37866 42.9512 6.37866 43.6504C6.37866 44.3496 6.94791 44.917 7.65258 44.917Z" fill="#E80008"/>
</g>
</g>
</g>
<path id="Vector_4" d="M13.5206 37.3241L14.619 37.446C15.3638 37.5282 15.928 38.1552 15.928 38.9018V38.9267C15.928 39.6732 15.3638 40.3003 14.619 40.3824L13.5206 40.5043C13.3619 40.5232 13.429 40.6934 13.5888 40.6934H22.989C23.149 40.6934 23.2163 40.5229 23.0575 40.5043L21.9591 40.3824C21.2143 40.3003 20.6501 39.6732 20.6501 38.9267V38.9018C20.6501 38.1552 21.2143 37.5282 21.9591 37.446L23.0575 37.3241C23.2556 37.3017 23.4035 37.1375 23.4035 36.9409V36.6249C23.4035 36.4283 23.2556 36.2616 23.0575 36.2416L21.9591 36.1197C21.2143 36.0376 20.6501 35.4105 20.6501 34.664V34.6391C20.6501 33.8926 21.2143 33.2655 21.9591 33.1834L23.0575 33.0614C23.2556 33.039 23.4035 32.8748 23.4035 32.6757V32.3622C23.4035 32.1656 23.2556 31.9989 23.0575 31.9765L21.9591 31.857C21.2143 31.7724 20.6501 31.1478 20.6501 30.4013V30.3739C20.6501 29.6299 21.2143 29.0028 21.9591 28.9207L23.0575 28.7988C23.2556 28.7764 23.4035 28.6096 23.4035 28.4131V28.0995C23.4035 27.9004 23.2556 27.7362 23.0575 27.7138L21.9591 27.5919C21.2143 27.5098 20.6501 26.8827 20.6501 26.1386V26.1113C20.6501 25.3647 21.2143 24.7377 21.9591 24.6555L23.0575 24.5361C23.2556 24.5137 23.4035 24.347 23.4035 24.1504V23.8368C23.4035 23.6378 23.2556 23.4735 23.0575 23.4511L21.9591 23.3292C21.2143 23.2471 20.6501 22.62 20.6501 21.8735V21.8561C20.6501 21.5973 20.4369 21.3857 20.1761 21.3857H16.402C16.1412 21.3857 15.928 21.5973 15.928 21.8561V21.8735C15.928 22.62 15.3638 23.2471 14.619 23.3292L13.5206 23.4511C13.3225 23.4735 13.1746 23.6378 13.1746 23.8368V24.1504C13.1746 24.347 13.3225 24.5137 13.5206 24.5361L14.619 24.6555C15.3638 24.7377 15.928 25.3647 15.928 26.1113V26.1386C15.928 26.8827 15.3638 27.5098 14.619 27.5919L13.5206 27.7138C13.3225 27.7362 13.1746 27.9004 13.1746 28.0995V28.4131C13.1746 28.6096 13.3225 28.7764 13.5206 28.7988L14.619 28.9207C15.3638 29.0028 15.928 29.6299 15.928 30.3739V30.4013C15.928 31.1478 15.3638 31.7724 14.619 31.857L13.5206 31.9765C13.3225 31.9989 13.1746 32.1656 13.1746 32.3622V32.6757C13.1746 32.8748 13.3225 33.039 13.5206 33.0614L14.619 33.1834C15.3638 33.2655 15.928 33.8926 15.928 34.6391V34.664C15.928 35.4105 15.3638 36.0376 14.619 36.1197L13.5206 36.2416C13.3225 36.2616 13.1746 36.4283 13.1746 36.6249V36.9409C13.1746 37.1375 13.3225 37.3017 13.5206 37.3241Z" fill="#E80008"/>
<path id="Vector_5" d="M27.1099 37.3241L28.2058 37.446C28.9531 37.5282 29.5173 38.1552 29.5173 38.9018V38.9267C29.5173 39.6732 28.9531 40.3003 28.2058 40.3824L27.1099 40.5043C26.951 40.5229 27.0184 40.6934 27.1784 40.6934H36.5758C36.7358 40.6934 36.8031 40.5229 36.6443 40.5043L35.5484 40.3824C34.8011 40.3003 34.2394 39.6732 34.2394 38.9267V38.9018C34.2394 38.1552 34.8011 37.5282 35.5484 37.446L36.6443 37.3241C36.8424 37.3017 36.9928 37.1375 36.9928 36.9409V36.6249C36.9928 36.4283 36.8424 36.2616 36.6443 36.2416L35.5484 36.1197C34.8011 36.0376 34.2394 35.4105 34.2394 34.664V34.6391C34.2394 33.8926 34.8011 33.2655 35.5484 33.1834L36.6443 33.0614C36.8424 33.039 36.9928 32.8748 36.9928 32.6757V32.3622C36.9928 32.1656 36.8424 31.9989 36.6443 31.9765L35.5484 31.857C34.8011 31.7724 34.2394 31.1478 34.2394 30.4013V30.3739C34.2394 29.6299 34.8011 29.0028 35.5484 28.9207L36.6443 28.7988C36.8424 28.7764 36.9928 28.6096 36.9928 28.4131V28.0995C36.9928 27.9004 36.8424 27.7362 36.6443 27.7138L35.5484 27.5919C34.8011 27.5098 34.2394 26.8827 34.2394 26.1386V26.1113C34.2394 25.3647 34.8011 24.7377 35.5484 24.6555L36.6443 24.5361C36.8424 24.5137 36.9928 24.347 36.9928 24.1504V23.8368C36.9928 23.6378 36.8424 23.4735 36.6443 23.4511L35.5484 23.3292C34.8011 23.2471 34.2394 22.62 34.2394 21.8735V21.8561C34.2394 21.5973 34.0262 21.3857 33.7629 21.3857H29.9913C29.728 21.3857 29.5173 21.5973 29.5173 21.8561V21.8735C29.5173 22.62 28.9531 23.2471 28.2058 23.3292L27.1099 23.4511C26.9118 23.4735 26.7614 23.6378 26.7614 23.8368V24.1504C26.7614 24.347 26.9118 24.5137 27.1099 24.5361L28.2058 24.6555C28.9531 24.7377 29.5173 25.3647 29.5173 26.1113V26.1386C29.5173 26.8827 28.9531 27.5098 28.2058 27.5919L27.1099 27.7138C26.9118 27.7362 26.7614 27.9004 26.7614 28.0995V28.4131C26.7614 28.6096 26.9118 28.7764 27.1099 28.7988L28.2058 28.9207C28.9531 29.0028 29.5173 29.6299 29.5173 30.3739V30.4013C29.5173 31.1478 28.9531 31.7724 28.2058 31.857L27.1099 31.9765C26.9118 31.9989 26.7614 32.1656 26.7614 32.3622V32.6757C26.7614 32.8748 26.9118 33.039 27.1099 33.0614L28.2058 33.1834C28.9531 33.2655 29.5173 33.8926 29.5173 34.6391V34.664C29.5173 35.4105 28.9531 36.0376 28.2058 36.1197L27.1099 36.2416C26.9118 36.2616 26.7614 36.4283 26.7614 36.6249V36.9409C26.7614 37.1375 26.9118 37.3017 27.1099 37.3241Z" fill="#E80008"/>
<path id="Vector_6" d="M40.6969 37.3241L41.7953 37.446C42.5401 37.5282 43.1043 38.1552 43.1043 38.9018V38.9267C43.1043 39.6732 42.5401 40.3003 41.7953 40.3824L40.6969 40.5043C40.5715 40.5192 40.4637 40.5914 40.4035 40.6934H50.5271C50.467 40.5914 50.3591 40.5192 50.2337 40.5043L49.1354 40.3824C48.3906 40.3003 47.8263 39.6732 47.8263 38.9267V38.9018C47.8263 38.1552 48.3906 37.5282 49.1354 37.446L50.2337 37.3241C50.4318 37.3017 50.5798 37.1375 50.5798 36.9409V36.6249C50.5798 36.4283 50.4318 36.2616 50.2337 36.2416L49.1354 36.1197C48.3906 36.0376 47.8263 35.4105 47.8263 34.664V34.6391C47.8263 33.8926 48.3906 33.2655 49.1354 33.1834L50.2337 33.0614C50.4318 33.039 50.5798 32.8748 50.5798 32.6757V32.3622C50.5798 32.1656 50.4318 31.9989 50.2337 31.9765L49.1354 31.857C48.3906 31.7724 47.8263 31.1478 47.8263 30.4013V30.3739C47.8263 29.6299 48.3906 29.0028 49.1354 28.9207L50.2337 28.7988C50.4318 28.7764 50.5798 28.6096 50.5798 28.4131V28.0995C50.5798 27.9004 50.4318 27.7362 50.2337 27.7138L49.1354 27.5919C48.3906 27.5098 47.8263 26.8827 47.8263 26.1386V26.1113C47.8263 25.3647 48.3906 24.7377 49.1354 24.6555L50.2337 24.5361C50.4318 24.5137 50.5798 24.347 50.5798 24.1504V23.8368C50.5798 23.6378 50.4318 23.4735 50.2337 23.4511L49.1354 23.3292C48.3906 23.2471 47.8263 22.62 47.8263 21.8735V21.8561C47.8263 21.5973 47.6132 21.3857 47.3524 21.3857H43.5783C43.3175 21.3857 43.1043 21.5973 43.1043 21.8561V21.8735C43.1043 22.62 42.5401 23.2471 41.7953 23.3292L40.6969 23.4511C40.4988 23.4735 40.3508 23.6378 40.3508 23.8368V24.1504C40.3508 24.347 40.4988 24.5137 40.6969 24.5361L41.7953 24.6555C42.5401 24.7377 43.1043 25.3647 43.1043 26.1113V26.1386C43.1043 26.8827 42.5401 27.5098 41.7953 27.5919L40.6969 27.7138C40.4988 27.7362 40.3508 27.9004 40.3508 28.0995V28.4131C40.3508 28.6096 40.4988 28.7764 40.6969 28.7988L41.7953 28.9207C42.5401 29.0028 43.1043 29.6299 43.1043 30.3739V30.4013C43.1043 31.1478 42.5401 31.7724 41.7953 31.857L40.6969 31.9765C40.4988 31.9989 40.3508 32.1656 40.3508 32.3622V32.6757C40.3508 32.8748 40.4988 33.039 40.6969 33.0614L41.7953 33.1834C42.5401 33.2655 43.1043 33.8926 43.1043 34.6391V34.664C43.1043 35.4105 42.5401 36.0376 41.7953 36.1197L40.6969 36.2416C40.4988 36.2616 40.3508 36.4283 40.3508 36.6249V36.9409C40.3508 37.1375 40.4988 37.3017 40.6969 37.3241Z" fill="#E80008"/>
<g id="Clip path group_2">
<mask id="mask1_176_10551" style="mask-type:luminance" maskUnits="userSpaceOnUse" x="6" y="75" width="52" height="4">
<g id="b90e0f5f4f">
<path id="Vector_7" d="M6.36365 75.8076H57.4007V78.3558H6.36365V75.8076Z" fill="white"/>
</g>
</mask>
<g mask="url(#mask1_176_10551)">
<g id="Group_2">
<path id="Vector_8" d="M56.1042 75.8223H7.65258C6.94791 75.8223 6.37866 76.3896 6.37866 77.0889C6.37866 77.7881 6.94791 78.3555 7.65258 78.3555H56.1042C56.8063 78.3555 57.3781 77.7881 57.3781 77.0889C57.3781 76.3896 56.8063 75.8223 56.1042 75.8223Z" fill="#E80008"/>
</g>
</g>
</g>
<path id="Vector_9" d="M16.4572 15.824C17.0001 15.824 17.4402 16.2641 17.4402 16.807V18.8471C17.4402 19.316 17.8203 19.696 18.2891 19.696C18.7579 19.696 19.138 19.316 19.138 18.8471V16.807C19.138 16.2641 19.5781 15.824 20.121 15.824C20.4244 15.824 20.6677 15.5801 20.6677 15.279V13.2634C20.6677 12.9648 20.4244 12.7209 20.121 12.7209C19.5781 12.7209 19.138 12.2808 19.138 11.7379V10.4045C19.138 9.93571 18.7579 9.55566 18.2891 9.55566C17.8203 9.55566 17.4402 9.93571 17.4402 10.4045V11.7379C17.4402 12.2808 17.0001 12.7209 16.4572 12.7209C16.1563 12.7209 15.9105 12.9648 15.9105 13.2634V15.279C15.9105 15.5801 16.1563 15.824 16.4572 15.824Z" fill="#E80008"/>
<path id="Vector_10" d="M30.0441 15.824C30.587 15.824 31.0271 16.2641 31.0271 16.807V18.8459C31.0271 19.3154 31.4078 19.696 31.8773 19.696C32.3468 19.696 32.7274 19.3154 32.7274 18.8459V16.8045C32.7274 16.263 33.1664 15.824 33.7079 15.824C34.0113 15.824 34.2571 15.5801 34.2571 15.279V13.2634C34.2571 12.9648 34.0113 12.7209 33.7079 12.7209C33.1664 12.7209 32.7274 12.2819 32.7274 11.7404V10.4058C32.7274 9.93627 32.3468 9.55566 31.8773 9.55566C31.4078 9.55566 31.0271 9.93627 31.0271 10.4058V11.7379C31.0271 12.2808 30.587 12.7209 30.0441 12.7209C29.7432 12.7209 29.4974 12.9648 29.4974 13.2634V15.279C29.4974 15.5801 29.7432 15.824 30.0441 15.824Z" fill="#E80008"/>
<path id="Vector_11" d="M43.6334 15.824C44.1763 15.824 44.6164 16.2641 44.6164 16.807V18.8471C44.6164 19.316 44.9964 19.696 45.4652 19.696C45.9341 19.696 46.3141 19.316 46.3141 18.8471V16.807C46.3141 16.2641 46.7542 15.824 47.2971 15.824C47.5981 15.824 47.8438 15.5801 47.8438 15.279V13.2634C47.8438 12.9648 47.5981 12.7209 47.2971 12.7209C46.7542 12.7209 46.3141 12.2808 46.3141 11.7379V10.4045C46.3141 9.93571 45.9341 9.55566 45.4652 9.55566C44.9964 9.55566 44.6164 9.93571 44.6164 10.4045V11.7379C44.6164 12.2808 44.1763 12.7209 43.6334 12.7209C43.3299 12.7209 43.0867 12.9648 43.0867 13.2634V15.279C43.0867 15.5801 43.3299 15.824 43.6334 15.824Z" fill="#E80008"/>
</g>
</svg>
