<svg width="117" height="78" viewBox="0 0 117 78" fill="none" xmlns="http://www.w3.org/2000/svg">
<g id="heavy_machinery_1 2">
<path id="Vector" d="M101.071 17.2697C101.24 17.2697 101.378 17.1325 101.378 16.9633V12.7C101.378 11.6941 100.631 10.8447 99.6329 10.7163L96.3204 10.2901C95.1243 10.1363 94.0652 11.0679 94.0652 12.2738V15.2697C94.0652 16.3743 94.9606 17.2697 96.0652 17.2697H97.9797C99.0842 17.2697 99.9797 18.1652 99.9797 19.2697V33.2693C99.9797 33.7028 100.331 34.0543 100.765 34.0543V17.7619C100.765 16.5188 99.6427 15.5769 98.4184 15.7921L96.7297 16.0889C95.7734 16.257 95.076 17.0877 95.076 18.0587V32.0543C95.076 33.1588 94.1806 34.0543 93.076 34.0543H91.5801C90.7677 34.0543 90.036 33.5629 89.7287 32.8108L88.2254 29.1319C88.1173 28.8675 87.86 28.6946 87.5743 28.6946C87.1146 28.6946 86.7784 29.1284 86.8932 29.5735L89.85 41.0455C90.0777 41.9289 90.8744 42.5463 91.7867 42.5463H96.5875C97.1205 42.5463 97.6315 42.3335 98.007 41.9552L100.571 39.3716C100.943 38.997 101.152 38.4905 101.152 37.9627V34.4414C101.152 34.2276 100.979 34.0543 100.765 34.0543V17.5762C100.765 17.407 100.902 17.2697 101.071 17.2697Z" fill="#E80008"/>
<g id="Clip path group">
<mask id="mask0_176_10642" style="mask-type:luminance" maskUnits="userSpaceOnUse" x="11" y="51" width="65" height="19">
<g id="5b7a093b41">
<path id="Vector_2" d="M11.9294 51.0879H75.2471V69.1054H11.9294V51.0879Z" fill="white"/>
</g>
</mask>
<g mask="url(#mask0_176_10642)">
<g id="Group">
<path id="Vector_3" d="M66.1666 65.0005C62.6666 65.0005 62.1666 62.0005 62.1666 60.4391C62.1666 57.5005 64.1017 56.0005 65.8842 56.0005C67.6666 56.0005 70.1666 57.0005 70.1666 60.4391C70.1666 63.8777 68.1666 65.0005 66.1666 65.0005ZM21.1666 64.5005C19.1666 64.5005 17.1666 62.3016 17.1666 60.4391C17.1666 58.0444 19.308 56.0005 21.1666 56.0005C24.1666 56.0005 25.6666 58.5005 25.6666 60.4391C25.6666 62.3777 23.6666 64.5005 21.1666 64.5005ZM65.8842 51.7725C61.9089 51.7725 58.5537 54.4238 57.5071 58.0444H29.8271C28.7804 54.4238 25.4288 51.7725 21.4571 51.7725C16.6395 51.7725 12.7395 55.6497 12.7395 60.4391C12.7395 65.2215 16.6395 69.0987 21.4571 69.0987C25.4288 69.0987 28.7804 66.4509 29.8271 62.8303H57.5071C58.5537 66.4509 61.9089 69.0987 65.8842 69.0987C70.6946 69.0987 74.5946 65.2215 74.5946 60.4391C74.5946 55.6497 70.6946 51.7725 65.8842 51.7725Z" fill="#E80008"/>
</g>
</g>
</g>
<g id="Clip path group_2">
<mask id="mask1_176_10642" style="mask-type:luminance" maskUnits="userSpaceOnUse" x="8" y="7" width="92" height="55">
<g id="22f36183c4">
<path id="Vector_4" d="M8.25879 9.52637C8.25879 8.4218 9.15422 7.52637 10.2588 7.52637H97.1059C98.2104 7.52637 99.1058 8.4218 99.1058 9.52637V59.1229C99.1058 60.2274 98.2104 61.1229 97.1058 61.1229H10.2588C9.15422 61.1229 8.25879 60.2274 8.25879 59.1229V9.52637Z" fill="white"/>
</g>
</mask>
<g mask="url(#mask1_176_10642)">
<g id="Group_2">
<path id="Vector_5" d="M41.4905 46.6388C41.4905 46.7933 41.3653 46.9186 41.2108 46.9186H34.4934L41.9275 47.6013C42.3767 47.6425 42.6305 47.0985 42.3104 46.7808L41.9673 46.4403C41.7908 46.2651 41.4905 46.3901 41.4905 46.6388ZM41.4905 49.2705H34.6734C34.574 49.2705 34.4934 49.19 34.4934 49.0906C34.4934 48.9 34.2359 48.8402 34.152 49.0113L33.9088 49.5067C33.8028 49.7228 33.9744 49.9715 34.214 49.9492L41.4905 49.2705ZM41.4905 51.1809C41.4905 51.3146 41.3821 51.4229 41.2484 51.4229H34.4934L41.838 51.9417C42.1594 51.9644 42.357 51.5969 42.1608 51.3412L41.9246 51.0335C41.7838 50.85 41.4905 50.9496 41.4905 51.1809ZM39.1856 31.6584C39.1856 32.763 38.2902 33.6584 37.1856 33.6584H34.0379C32.7909 33.6584 31.8479 32.5296 32.0699 31.3024L34.3108 18.9134C34.4829 17.9616 35.3116 17.2694 36.2788 17.2694H37.1856C38.2902 17.2694 39.1856 18.1649 39.1856 19.2694V31.6584ZM15.0365 41.7866C15.0365 42.0686 14.9756 42.3473 14.858 42.6036L13.9396 44.6058L14.97 42.6766C15.7094 41.2923 14.6394 39.6348 13.0735 39.7387L11.7422 39.827H13.0769C14.1591 39.827 15.0365 40.7043 15.0365 41.7866ZM62.1511 21.979C62.2077 21.6879 61.9848 21.4175 61.6883 21.4175C61.4512 21.4175 61.251 21.5935 61.2206 21.8286L59.3309 36.4737L62.1511 21.979ZM59.6887 41.0386C59.7832 41.0386 59.8739 41.0012 59.941 40.9346L63.2368 37.658C63.2637 37.6312 63.286 37.6002 63.3026 37.566C63.3596 37.4493 63.4781 37.3752 63.6081 37.3752H65.7464C66.4783 37.3752 67.1518 36.9754 67.5022 36.3329L79.0509 15.158C79.4014 14.5155 80.0749 14.1156 80.8068 14.1156H91.5685C92.6247 14.1156 93.4809 13.2594 93.4809 12.2032C93.4809 11.2439 92.7703 10.4331 91.8193 10.3073L77.6945 8.43884C76.8343 8.24284 75.8951 8.48517 75.232 9.16225L65.7396 18.841C65.1433 19.449 64.9974 20.3679 65.3761 21.1307L65.9553 22.2976C66.5672 23.53 68.2119 23.7909 69.1751 22.8082L77.6565 14.1545C77.6808 14.1296 77.7141 14.1156 77.7489 14.1156C77.8472 14.1156 77.9096 14.2208 77.8626 14.3071L66.3237 35.4664C66.1672 35.7534 65.8664 35.932 65.5395 35.932C64.8782 35.932 64.4462 35.2384 64.7378 34.6449L67.5059 29.0098C67.7802 28.4515 67.7791 27.7974 67.5029 27.24L64.0195 20.2094C63.9469 20.0652 63.7993 19.9742 63.6379 19.9742H60.6832C59.9363 19.9742 59.3309 19.3687 59.3309 18.6218V18.2408C59.3309 17.7043 59.7658 17.2694 60.3023 17.2694C60.8388 17.2694 61.2737 16.8345 61.2737 16.298V15.4288C61.2737 14.4123 60.4496 13.5882 59.4331 13.5882H32.2154C31.1988 13.5882 30.3748 14.4123 30.3748 15.4288V16.3771C30.3748 16.8699 30.7743 17.2694 31.2671 17.2694C31.8236 17.2694 32.2443 17.7732 32.1451 18.3208L29.6652 32.0148C29.4928 32.9664 28.6643 33.6584 27.6972 33.6584H15.3902C15.0297 33.6584 14.6758 33.7559 14.3661 33.9405L11.6965 35.532C11.0914 35.8927 10.7206 36.5453 10.7206 37.2499V45.3034C10.7206 46.408 11.6161 47.3034 12.7206 47.3034H25.2564C25.7088 47.3034 26.1477 47.1501 26.5017 46.8685L31.5846 42.8242C31.9385 42.5426 32.3775 42.3892 32.8298 42.3892H39.4618C40.5664 42.3892 41.4618 41.4938 41.4618 40.3892V19.2694C41.4618 18.1649 42.3573 17.2694 43.4618 17.2694H55.0511C56.1556 17.2694 57.0511 18.1649 57.0511 19.2694V41.7505C57.0511 42.8551 56.1556 43.7505 55.0511 43.7505H32.9919C32.5435 43.7505 32.1081 43.9012 31.7556 44.1784L26.9436 47.9624C26.5911 48.2396 26.1557 48.3903 25.7073 48.3903H8.13994C7.25005 48.3903 6.4672 48.9783 6.21919 49.8329L3.39717 59.5573C3.16415 60.3602 3.76653 61.1623 4.60261 61.1623C5.15732 61.1623 5.64625 60.7981 5.80517 60.2667L8.15395 52.4117C8.40717 51.5648 9.18624 50.9846 10.0701 50.9846H21.5936C22.3491 50.9846 23.0401 51.4103 23.3799 52.0851L25.1571 55.6144C25.4969 56.2892 26.1879 56.7149 26.9434 56.7149H47.8756C48.5207 56.7149 49.1262 56.4038 49.5017 55.8793L54.7536 48.5452C55.1292 48.0208 55.7347 47.7097 56.3797 47.7097H67.2088C68.3021 47.7097 69.1884 46.8234 69.1884 45.7301C69.1884 44.6368 68.3021 43.7505 67.2088 43.7505H60.6868C59.9379 43.7505 59.3309 43.1434 59.3309 42.3946V41.3964C59.3309 41.1988 59.4911 41.0386 59.6887 41.0386Z" fill="#E80008"/>
</g>
</g>
</g>
<path id="Vector_6" d="M59.5216 35.1571C59.5216 35.2522 59.4445 35.3293 59.3494 35.3293C59.1585 35.3293 59.1095 35.5937 59.2877 35.6622L59.7956 35.8573C59.9745 35.926 60.1666 35.794 60.1666 35.6024V33.7319C60.1666 33.5933 60.078 33.4701 59.9465 33.4261C59.7376 33.3561 59.5216 33.5116 59.5216 33.7319V35.1571ZM50.4668 32.2539C49.3622 32.2539 48.4668 33.1493 48.4668 34.2539V39.5264C48.4668 40.631 49.3622 41.5264 50.4668 41.5264H58.8192C59.9238 41.5264 60.8192 40.631 60.8192 39.5264V34.2539C60.8192 33.1493 59.9238 32.2539 58.8192 32.2539H50.4668Z" fill="#E80008"/>
</g>
</svg>
