<svg width="103" height="72" viewBox="0 0 103 72" fill="none" xmlns="http://www.w3.org/2000/svg">
<g id="heavy_machinery_4 (1) 1" clip-path="url(#clip0_176_10690)">
<g id="Clip path group">
<mask id="mask0_176_10690" style="mask-type:luminance" maskUnits="userSpaceOnUse" x="0" y="52" width="78" height="20">
<g id="307ad93172">
<path id="Vector" d="M0.227295 52.5664H77.9653V71.4997H0.227295V52.5664Z" fill="white"/>
</g>
</mask>
<g mask="url(#mask0_176_10690)">
<g id="Group">
<path id="Vector_2" d="M69.639 53.3467H8.25927C6.6797 53.3467 5.3609 53.8718 4.04584 54.6557C1.80687 56.2311 0.227295 58.9823 0.227295 62.2624C0.227295 67.1103 3.78133 71.178 8.25927 71.178H69.7694C74.117 71.178 77.8051 67.2434 77.8051 62.2624C77.8051 60.1619 77.1457 58.1983 75.9611 56.7562C74.3815 54.6557 72.1425 53.3467 69.639 53.3467ZM11.288 65.2762H7.33909C5.62541 65.2762 4.31034 63.9671 4.31034 62.2624C4.31034 60.5576 5.62541 59.2449 7.33909 59.2449H11.288C13.0017 59.2449 14.3205 60.5576 14.3205 62.2624C14.3205 63.834 13.0017 65.2762 11.288 65.2762ZM31.0476 65.2762H27.0949C25.385 65.2762 24.0662 63.9671 24.0662 62.2624C24.0662 60.5576 25.385 59.2449 27.0949 59.2449H31.0476C32.7575 59.2449 34.0763 60.5576 34.0763 62.2624C34.0763 63.834 32.7575 65.2762 31.0476 65.2762ZM50.8034 65.2762H46.8507C45.1408 65.2762 43.822 63.9671 43.822 62.2624C43.822 60.5576 45.1408 59.2449 46.8507 59.2449H50.8034C52.5171 59.2449 53.8322 60.5576 53.8322 62.2624C53.8322 63.834 52.5171 65.2762 50.8034 65.2762ZM70.5592 65.2762H66.6103C64.8966 65.2762 63.5815 63.9671 63.5815 62.2624C63.5815 60.5576 64.8966 59.2449 66.6103 59.2449H70.5592C72.2729 59.2449 73.5917 60.5576 73.5917 62.2624C73.5917 63.834 72.2729 65.2762 70.5592 65.2762Z" fill="#E80008"/>
</g>
</g>
</g>
<g id="Clip path group_2">
<mask id="mask1_176_10690" style="mask-type:luminance" maskUnits="userSpaceOnUse" x="3" y="11" width="101" height="61">
<g id="ace2f9a4d6">
<path id="Vector_3" d="M3.57642 11.1758H103.227V71.4999H3.57642V11.1758Z" fill="white"/>
</g>
</mask>
<g mask="url(#mask1_176_10690)">
<g id="Group_2">
<path id="Vector_4" d="M91.8984 36.1737C91.8984 36.1737 86.6307 40.6297 84.5221 47.1861L81.363 45.3483V31.9766H74.6423C73.9867 30.9264 72.7983 30.1424 71.3528 30.1424H69.2442C67.795 30.1424 66.6104 30.9264 65.951 31.9766H61.473V24.6362C61.473 23.586 60.5491 22.669 59.4986 22.669C58.4443 22.669 57.5204 23.586 57.5204 24.6362V31.9766H49.3543L44.8763 11.5234H14.9762V31.9766H9.57813L4.0459 45.3483V53.0843C5.36097 52.4298 6.67976 51.9047 8.25933 51.9047H69.7695C73.0628 51.9047 75.9611 53.872 77.5407 56.6232H81.4933V50.8545L83.7323 52.1672C83.6019 58.0654 86.7611 64.7513 97.4306 71.0451H103.227C103.227 71.0451 91.1086 57.1483 91.8984 36.1737ZM19.9832 30.0093V17.2922H41.3223L46.061 40.3672L19.9832 30.0093Z" fill="#E80008"/>
</g>
</g>
</g>
</g>
<defs>
<clipPath id="clip0_176_10690">
<rect width="103" height="71" fill="white" transform="translate(0 0.5)"/>
</clipPath>
</defs>
</svg>
