<svg width="113" height="42" viewBox="0 0 113 42" fill="none" xmlns="http://www.w3.org/2000/svg">
<g id="heavy_machinery_5 (1) 1" clip-path="url(#clip0_176_10704)">
<path id="Vector" d="M13.4711 29.7256C10.136 29.7256 7.42627 32.4579 7.42627 35.8299C7.42627 39.1979 10.136 41.9302 13.4711 41.9302C16.8102 41.9302 19.5159 39.1979 19.5159 35.8299C19.5159 32.4538 16.8102 29.7256 13.4711 29.7256ZM13.4711 38.9131C11.7831 38.9131 10.4139 37.5304 10.4139 35.8299C10.4139 34.1212 11.7831 32.7468 13.4711 32.7468C15.1591 32.7468 16.5282 34.1254 16.5282 35.8299C16.5282 37.5304 15.155 38.9131 13.4711 38.9131Z" fill="#E80008"/>
<g id="Clip path group">
<mask id="mask0_176_10704" style="mask-type:luminance" maskUnits="userSpaceOnUse" x="-1" y="9" width="71" height="29">
<g id="54e84b0f53">
<path id="Vector_2" d="M-0.0449219 9.77344H69.3172V37.2451H-0.0449219V9.77344Z" fill="white"/>
</g>
</mask>
<g mask="url(#mask0_176_10704)">
<g id="Group">
<path id="Vector_3" d="M68.0052 32.874H66.9834V28.1441C66.9834 27.2361 66.2518 26.4973 65.3568 26.4973H34.115C34.115 21.2225 34.115 15.4153 34.115 14.1523C34.115 11.7337 32.7581 10.7803 30.8821 10.7803C29.705 10.7803 22.0826 10.7803 20.0268 10.7803C17.971 10.7803 16.2095 14.6641 13.5651 20.0049C13.5651 20.0049 9.93985 21.1482 5.02716 22.9601C1.72479 24.1777 1.80653 27.4259 1.80653 29.2048C1.80653 30.0385 1.80653 31.5285 1.80653 32.874H0.76841C0.322917 32.874 -0.0449219 33.2496 -0.0449219 33.6995V36.1677C-0.0449219 36.6258 0.322917 36.989 0.76841 36.989H5.89363C5.83641 36.6093 5.79554 36.2254 5.79554 35.8292C5.79554 31.5533 9.23687 28.078 13.467 28.078C17.6972 28.078 21.1426 31.5491 21.1426 35.8292C21.1426 36.2254 21.1017 36.6134 21.0486 36.9931H49.2209C49.1637 36.6134 49.1228 36.2254 49.1228 35.8292C49.1228 31.5533 52.5683 28.078 56.8025 28.078C61.0326 28.078 64.474 31.5533 64.474 35.8292C64.474 36.2254 64.4372 36.6134 64.38 36.9931H68.0052C68.4548 36.9931 68.8185 36.6258 68.8185 36.1718V33.6995C68.8185 33.2496 68.4548 32.874 68.0052 32.874ZM8.17014 28.2142H3.82964C3.82964 26.4271 4.5081 25.5315 4.5081 25.5315C9.26139 25.2343 8.17014 28.2142 8.17014 28.2142ZM29.2269 19.5055H15.6291C17.0473 16.6246 19.1358 12.4271 20.0268 12.4271H27.6206C28.8222 12.4271 29.2269 12.8605 29.2269 14.1523V19.5055Z" fill="#E80008"/>
</g>
</g>
</g>
<path id="Vector_4" d="M30.3793 10.1367V9.46811C30.3793 8.56009 29.6478 7.82129 28.7527 7.82129H26.1696C25.2705 7.82129 24.543 8.56009 24.543 9.46811V10.1409C26.8236 10.1367 29.2513 10.1367 30.3793 10.1367Z" fill="#E80008"/>
<path id="Vector_5" d="M56.8023 29.7256C53.4591 29.7256 50.7534 32.4579 50.7534 35.8299C50.7534 39.1979 53.4591 41.9302 56.8023 41.9302C60.1374 41.9302 62.843 39.1979 62.843 35.8299C62.843 32.4538 60.1374 29.7256 56.8023 29.7256ZM56.8023 38.9131C55.1103 38.9131 53.7411 37.5304 53.7411 35.8299C53.7411 34.1212 55.1103 32.7468 56.8023 32.7468C58.4903 32.7468 59.8554 34.1254 59.8554 35.8299C59.8554 37.5304 58.4862 38.9131 56.8023 38.9131Z" fill="#E80008"/>
<path id="Vector_6" d="M76.0445 17.5122C73.7843 16.1956 70.9029 16.9756 69.5992 19.2498C68.2954 21.5322 69.0678 24.442 71.328 25.7628C73.5841 27.0794 76.4696 26.2952 77.7734 24.021C79.0771 21.7386 78.3006 18.8288 76.0445 17.5122ZM72.4928 23.7239C71.3484 23.0511 70.9561 21.5818 71.6182 20.4302C72.2762 19.2787 73.7353 18.8825 74.8756 19.5511C76.0159 20.2197 76.4083 21.6891 75.7502 22.8406C75.0922 23.9921 73.6331 24.3884 72.4928 23.7239Z" fill="#E80008"/>
<path id="Vector_7" d="M102.68 33.0394C100.42 31.7187 97.5343 32.5029 96.2305 34.777C94.9267 37.0595 95.6992 39.9734 97.9594 41.29C100.215 42.6066 103.101 41.8224 104.405 39.5441C105.708 37.2658 104.936 34.3519 102.68 33.0394ZM99.1242 39.2511C97.9839 38.5783 97.5915 37.1049 98.2495 35.9533C98.9116 34.8018 100.371 34.4056 101.515 35.0783C102.655 35.7428 103.044 37.2122 102.386 38.3637C101.724 39.5235 100.269 39.9115 99.1242 39.2511Z" fill="#E80008"/>
<g id="Clip path group_2">
<mask id="mask1_176_10704" style="mask-type:luminance" maskUnits="userSpaceOnUse" x="65" y="9" width="48" height="33">
<g id="95c2fe0335">
<path id="Vector_8" d="M65.1318 9.77344H112.955V41.4716H65.1318V9.77344Z" fill="white"/>
</g>
</mask>
<g mask="url(#mask1_176_10704)">
<g id="Group_2">
<path id="Vector_9" d="M112.955 33.5265L109.861 30.8148C109.861 30.8148 107.02 21.5819 103.73 19.6627C102.655 19.0394 94.8858 14.5076 93.5452 13.7275C92.2047 12.9475 79.4447 13.0878 79.4447 13.0878C79.4447 13.0878 73.5185 11.2511 70.9068 10.8177C68.3033 10.3802 65.1685 15.2299 65.426 17.9044L68.1562 19.4935C68.2665 19.2045 68.3932 18.9156 68.5526 18.6432C70.1875 15.783 73.8168 14.8048 76.6451 16.4516C79.4734 18.1025 80.4502 21.7676 78.8153 24.6238C78.6559 24.9003 78.4761 25.1562 78.2799 25.3997L94.7877 35.0247C94.8981 34.7317 95.0248 34.451 95.1841 34.1703C96.819 31.3101 100.448 30.3319 103.281 31.9828C106.109 33.6297 107.082 37.2989 105.447 40.1591C105.381 40.2664 105.308 40.3738 105.238 40.4811C106.665 40.8278 108.369 41.1868 108.696 40.9722C109.276 40.5843 111.978 37.1049 112.955 33.5265ZM71.1398 14.4828C70.4082 14.0577 68.7652 13.096 68.7652 13.096C69.7992 11.9858 70.5676 11.895 70.5676 11.895C73.4899 13.5088 71.8795 14.9162 71.1398 14.4828ZM94.052 21.908L80.9856 14.2889C86.4378 14.2682 92.0861 14.4457 92.9853 14.8089L96.8272 17.0501L94.052 21.908ZM95.2577 22.6096L98.0369 17.7517L100.71 19.316C102.631 20.4304 104.838 25.4368 106.003 28.8749L95.2577 22.6096ZM109.567 36.5271C109.125 36.267 108.97 35.6975 109.227 35.2517L109.885 34.1043C110.143 33.6503 110.707 33.4976 111.152 33.7576L111.627 34.03C111.251 35.0577 110.764 36.0524 110.266 36.9357L109.567 36.5271Z" fill="#E80008"/>
</g>
</g>
</g>
<g id="Clip path group_3">
<mask id="mask2_176_10704" style="mask-type:luminance" maskUnits="userSpaceOnUse" x="36" y="0" width="26" height="26">
<g id="41219a831a">
<path id="Vector_10" d="M36.8818 0.392578H61.9929V25.6231H36.8818V0.392578Z" fill="white"/>
</g>
</mask>
<g mask="url(#mask2_176_10704)">
<g id="Group_3">
<path id="Vector_11" d="M49.2984 24.8553L60.6156 5.58883C61.3472 4.28046 60.9466 2.65428 59.7532 1.8123C58.5598 0.962059 56.9045 1.13954 55.9399 2.28281L37.6216 24.8553H49.2984Z" fill="#E80008"/>
</g>
</g>
</g>
<path id="Vector_12" d="M68.0829 20.7487C67.9112 20.208 67.3349 19.915 66.7995 20.0884C66.2641 20.2658 65.9739 20.8437 66.1456 21.3761C66.4112 22.2139 65.9576 23.1137 65.132 23.3861C64.3064 23.6544 63.4154 23.1921 63.1416 22.3625C62.8759 21.5288 63.3296 20.6249 64.1552 20.3525C64.6947 20.1792 64.9848 19.5972 64.8132 19.0565L60.8201 6.6084L59.4346 8.96925L62.6062 18.8543C61.3187 19.7458 60.6975 21.4215 61.2084 22.994C61.8214 24.905 63.865 25.9616 65.7614 25.3384C67.6537 24.7275 68.6959 22.6638 68.0829 20.7487Z" fill="#E80008"/>
</g>
<defs>
<clipPath id="clip0_176_10704">
<rect width="113" height="42" fill="white"/>
</clipPath>
</defs>
</svg>
