<svg width="93" height="72" viewBox="0 0 93 72" fill="none" xmlns="http://www.w3.org/2000/svg">
<g id="5 (3) 1">
<g id="Clip path group">
<mask id="mask0_176_10658" style="mask-type:luminance" maskUnits="userSpaceOnUse" x="20" y="50" width="67" height="17">
<g id="c4ad5a1506">
<path id="Vector" d="M20.7883 50.4346H86.4354V66.9482H20.7883V50.4346Z" fill="white"/>
</g>
</mask>
<g mask="url(#mask0_176_10658)">
<g id="Group">
<path id="Vector_2" d="M83.0733 59.4616C83.0733 61.8366 81.0475 63.7632 78.5515 63.7632H29.0826C26.5866 63.7632 24.5579 61.8366 24.5579 59.4616V58.092C24.5579 55.7197 26.5866 53.7904 29.0826 53.7904H78.5515C81.0475 53.7904 83.0733 55.7197 83.0733 58.092V59.4616ZM78.5515 50.5947H29.0826C24.7346 50.5947 21.1958 53.9561 21.1958 58.092V59.4616C21.1958 63.5974 24.7346 66.9589 29.0826 66.9589H78.5515C82.8995 66.9589 86.4354 63.5974 86.4354 59.4616V58.092C86.4354 53.9561 82.8995 50.5947 78.5515 50.5947Z" fill="#E80008"/>
</g>
</g>
</g>
<path id="Vector_3" d="M49.8049 24.1794C48.6981 24.1794 47.9724 23.0218 48.4548 22.0256L53.3616 11.8925C53.6123 11.375 54.1367 11.0462 54.7117 11.0462H59.3462C60.1746 11.0462 60.8462 11.7178 60.8462 12.5462V22.6794C60.8462 23.5078 60.1746 24.1794 59.3462 24.1794H49.8049ZM63.533 12.5462C63.533 11.7178 64.2046 11.0462 65.033 11.0462H69.179C70.0074 11.0462 70.679 11.7178 70.679 12.5462V22.6794C70.679 23.5078 70.0074 24.1794 69.179 24.1794H65.033C64.2046 24.1794 63.533 23.5078 63.533 22.6794V12.5462ZM67.8753 45.8706C67.8753 45.3138 67.1103 45.16 66.8951 45.6735C66.7544 46.0095 67.0011 46.3805 67.3654 46.3805H71.0779H68.3852C68.1036 46.3805 67.8753 46.1522 67.8753 45.8706ZM47.1754 12.5381L45.7308 15.5653L46.4531 14.0517L47.1754 12.5381ZM17.9482 37.3196C17.9592 37.3581 17.9759 37.3948 17.9979 37.4283C18.2444 37.804 18.8268 37.5423 18.7096 37.1086L16.011 27.1233L12.1522 16.9049L17.9482 37.3196ZM84.9354 34.1495C85.7638 34.1495 86.4354 33.4779 86.4354 32.6495V22.4457C86.4354 21.6173 85.7638 20.9457 84.9354 20.9457H75.0938C74.2653 20.9457 73.5938 20.2741 73.5938 19.4457V10.2038C73.5938 9.37542 72.9222 8.70385 72.0938 8.70385H52.8225C52.2475 8.70385 51.7232 9.03249 51.4725 9.54992L44.536 23.8696C44.4373 24.0735 44.386 24.2971 44.386 24.5236V32.6495C44.386 33.4779 45.0575 34.1495 45.886 34.1495H53.3485C54.1769 34.1495 54.8485 34.8211 54.8485 35.6495V38.1115C54.8485 38.9399 54.1769 39.6115 53.3485 39.6115H40.4069C39.6806 39.6115 39.0586 39.091 38.9304 38.3761L37.4102 29.8947C37.3348 29.4739 36.9354 29.1916 36.5135 29.2609C36.0916 29.3302 35.6921 29.0479 35.6168 28.627L34.0015 19.6077C33.7843 18.3946 35.0416 17.4516 36.1454 17.9999L42.6972 21.2546C43.4471 21.6271 44.3568 21.3135 44.7179 20.5581L48.0708 13.5431C48.4779 12.6915 48.0065 11.68 47.0926 11.4439L26.1671 6.0395C25.8496 5.95749 25.514 5.9818 25.2116 6.10872L16.293 9.85182C15.8663 10.0309 15.3804 9.78632 15.2702 9.3368C15.1584 8.881 14.6615 8.63737 14.2327 8.82813L8.80383 11.2434C8.141 11.5383 7.7842 12.2653 7.95645 12.97L8.98999 17.1987C9.04201 17.4115 9.25448 17.5439 9.46846 17.4967C9.67532 17.4512 9.88219 17.5734 9.94203 17.7766L12.8489 27.6468L15.419 36.3738C15.6597 37.1911 15.1655 38.043 14.3365 38.2398C13.518 38.434 13.0237 39.2682 13.2464 40.0794L15.4794 48.2124C15.6582 48.8638 16.2504 49.3153 16.9259 49.3153H21.6565C22.0104 49.3153 22.3528 49.1902 22.6233 48.9621L28.1118 44.3351C28.4482 44.0515 28.2808 43.5031 27.8434 43.4557L23.1751 42.9502C22.585 42.8864 22.0881 42.4805 21.9076 41.915L21.4457 40.4679C21.2587 39.882 21.4483 39.2414 21.9239 38.8516L22.5945 38.3021C22.7627 38.1642 22.8225 37.9335 22.7425 37.7313L22.3638 36.7747C22.2723 36.5437 22.0251 36.4149 21.7833 36.4723L20.8601 36.6916C20.0365 36.8871 19.2144 36.3629 19.0442 35.5338L15.2667 17.1309C15.167 16.6452 15.4754 16.1694 15.9595 16.0621C16.4564 15.952 16.7657 15.4549 16.6449 14.9605L16.5643 14.6303C16.3961 13.9414 16.8386 13.2519 17.535 13.1179L23.3681 11.9952C23.6908 11.9331 24.0249 11.9787 24.3192 12.1249L30.8997 15.3951C31.3249 15.6064 31.625 16.0066 31.7087 16.474L33.933 28.899C34.0076 29.316 33.7262 29.7133 33.308 29.7813C32.8899 29.8493 32.6084 30.2466 32.6831 30.6636L34.0444 38.2663C34.17 38.9674 33.631 39.6115 32.9187 39.6115C32.2871 39.6115 31.7751 40.1235 31.7751 40.7551V47.606C31.7751 48.4344 32.4467 49.106 33.2751 49.106H81.3123C81.6931 49.106 82.0598 49.2509 82.3377 49.5113L85.2183 52.2096C85.3522 52.3351 85.5289 52.4049 85.7125 52.4049C86.1117 52.4049 86.4354 52.0813 86.4354 51.682V41.1115C86.4354 40.283 85.7638 39.6115 84.9354 39.6115H62.2892C61.4608 39.6115 60.7892 38.9399 60.7892 38.1115V35.6495C60.7892 34.8211 61.4608 34.1495 62.2892 34.1495H84.9354Z" fill="#E80008"/>
<circle id="Ellipse 72" cx="32.1665" cy="58.5" r="3.5" fill="#E80008"/>
<circle id="Ellipse 73" cx="43.1665" cy="58.5" r="3.5" fill="#E80008"/>
<circle id="Ellipse 74" cx="54.1665" cy="58.5" r="3.5" fill="#E80008"/>
<circle id="Ellipse 75" cx="65.1665" cy="58.5" r="3.5" fill="#E80008"/>
<circle id="Ellipse 76" cx="76.1665" cy="58.5" r="3.5" fill="#E80008"/>
</g>
</svg>
