<svg width="18" height="19" viewBox="0 0 18 19" fill="none" xmlns="http://www.w3.org/2000/svg">
<g id="heroicons:phone-20-solid">
<path id="Vector" fill-rule="evenodd" clip-rule="evenodd" d="M16.1999 3.6498C16.1999 3.29176 16.0577 2.94838 15.8045 2.69521C15.5514 2.44204 15.208 2.2998 14.8499 2.2998H13.8167C13.5094 2.29968 13.2113 2.4044 12.9715 2.59668C12.7318 2.78896 12.5648 3.05729 12.4982 3.3573L11.8538 6.258C11.7794 6.59381 11.8359 6.94539 12.0118 7.24094C12.1878 7.53649 12.4699 7.75373 12.8006 7.8483L13.6403 8.0886C14.0093 8.1939 14.219 8.5881 14.0723 8.9436C13.5503 10.2058 12.7844 11.3526 11.8186 12.3184C10.8527 13.2843 9.70592 14.0501 8.44375 14.5722C8.08825 14.7189 7.69405 14.5092 7.58875 14.1402L7.34845 13.3005C7.25388 12.9698 7.03664 12.6877 6.74108 12.5117C6.44553 12.3357 6.09396 12.2792 5.75815 12.3537L2.85745 12.9981C2.55743 13.0647 2.28911 13.2316 2.09683 13.4714C1.90455 13.7111 1.79982 14.0093 1.79995 14.3166V15.3498C1.79995 15.7078 1.94218 16.0512 2.19536 16.3044C2.44853 16.5576 2.79191 16.6998 3.14995 16.6998H4.49995C5.53405 16.6998 6.53665 16.5648 7.49335 16.3128C9.49029 15.7826 11.3116 14.7339 12.7726 13.273C14.2337 11.8122 15.2825 9.99098 15.8129 7.9941C16.0705 7.01687 16.2006 6.01042 16.1999 4.9998V3.6498Z" fill="white"/>
</g>
</svg>
