<svg width="161" height="75" viewBox="0 0 161 75" fill="none" xmlns="http://www.w3.org/2000/svg">
<g id="heavy_machinery (1) 1">
<g id="Clip path group">
<mask id="mask0_176_11795" style="mask-type:luminance" maskUnits="userSpaceOnUse" x="5" y="13" width="144" height="51">
<g id="8ad1cf694f">
<path id="Vector" d="M5 13.25H149V63.25H5V13.25Z" fill="white"/>
</g>
</mask>
<g mask="url(#mask0_176_11795)">
<g id="Group">
<path id="Vector_2" d="M113.911 49.0524H102.432C102.365 28.8649 102.219 25.2139 104.12 20.0003C109.594 20.0003 116.146 20.9587 122.641 26.0368H113.911V49.0524ZM110.542 24.3701C109.203 23.9118 107.844 23.7451 106.714 23.7451C106.708 23.7503 106.708 23.7503 106.708 23.7555C106.693 25.5472 106.599 26.9639 107.833 26.9639C108.802 26.9639 109.094 26.9639 110.5 26.9639C111.432 26.9639 111.125 25.7764 110.542 24.3701ZM125.807 28.8545C129.693 28.8545 129.792 29.1618 131.026 31.2087L129.854 31.2035C131.052 33.3962 133.375 37.9639 133.375 37.9639C143.875 39.6514 144.521 43.417 144.521 43.417L145.771 48.9951C146.641 50.0055 147.234 51.1722 147.646 52.4743H142.042C140.495 50.391 138.047 49.0316 135.281 49.0316C130.635 49.0316 126.849 52.8545 126.849 57.5472C126.849 57.818 126.833 58.4378 126.833 58.4378L116.698 58.443V28.8493H125.802C125.807 28.8545 125.807 28.8545 125.807 28.8545ZM120.318 35.891C120.318 38.5107 125.849 38.2139 129.859 39.2347L126.307 32.4118L120.318 32.4014C120.318 32.4014 120.318 34.8857 120.318 35.891ZM143.401 55.2868C143.599 56.0107 143.714 56.7607 143.714 57.5472C143.714 57.8493 143.698 58.141 143.667 58.4326H148.406C148.406 57.3076 148.354 56.2816 148.234 55.2868H143.401ZM5.69275 13.2451H99.5782V49.0107H5.69275V13.2451ZM129.63 57.5472C129.63 60.7035 132.161 63.2555 135.281 63.2555C138.401 63.2555 140.932 60.7035 140.932 57.5472C140.932 54.3962 138.401 51.8441 135.281 51.8441C132.161 51.8441 129.63 54.3962 129.63 57.5472ZM135.281 59.8805C134.005 59.8805 132.974 58.8337 132.974 57.5472C132.974 56.2607 134.005 55.2191 135.281 55.2191C136.552 55.2191 137.589 56.2607 137.589 57.5472C137.589 58.8337 136.552 59.8805 135.281 59.8805ZM85.4948 57.5472C85.4948 60.7035 88.0209 63.2555 91.1459 63.2555C94.2605 63.2555 96.7917 60.7035 96.7917 57.5472C96.7917 54.3962 94.2605 51.8441 91.1459 51.8441C88.0209 51.8441 85.4948 54.3962 85.4948 57.5472ZM91.1459 59.8805C89.8698 59.8805 88.8334 58.8337 88.8334 57.5472C88.8334 56.2607 89.8698 55.2191 91.1459 55.2191C92.4167 55.2191 93.448 56.2607 93.448 57.5472C93.448 58.8337 92.4167 59.8805 91.1459 59.8805ZM67.1511 57.5472C67.1511 60.7035 69.6771 63.2555 72.7969 63.2555C75.9219 63.2555 78.448 60.7035 78.448 57.5472C78.448 54.3962 75.9219 51.8441 72.7969 51.8441C69.6771 51.8441 67.1511 54.3962 67.1511 57.5472ZM72.7969 59.8805C71.5261 59.8805 70.4948 58.8337 70.4948 57.5472C70.4948 56.2607 71.5261 55.2191 72.7969 55.2191C74.073 55.2191 75.1094 56.2607 75.1094 57.5472C75.1094 58.8337 74.073 59.8805 72.7969 59.8805ZM30.7709 57.5472C30.7709 60.7035 33.2969 63.2555 36.4167 63.2555C39.5313 63.2555 42.0625 60.7035 42.0625 57.5472C42.0625 54.3962 39.5313 51.8441 36.4167 51.8441C33.2969 51.8441 30.7709 54.3962 30.7709 57.5472ZM36.4167 59.8805C35.1407 59.8805 34.1094 58.8337 34.1094 57.5472C34.1094 56.2607 35.1407 55.2191 36.4167 55.2191C37.6875 55.2191 38.724 56.2607 38.724 57.5472C38.724 58.8337 37.6875 59.8805 36.4167 59.8805ZM82.7552 58.443C82.7292 58.1514 82.7136 57.8545 82.7136 57.5472C82.7136 55.3649 83.5365 53.3701 84.8802 51.8649H79.0573C80.4063 53.3701 81.2344 55.3649 81.2344 57.5472C81.2344 57.8545 81.2136 58.1514 81.1823 58.443H82.7552ZM27.9792 57.5472C27.9792 55.3649 28.8073 53.3701 30.1563 51.8649H24.6094C25.9532 53.3701 26.7813 55.3649 26.7813 57.5472C26.7813 57.8545 26.7605 58.1514 26.7344 58.443H28.0313C28 58.1514 27.9792 57.8545 27.9792 57.5472ZM99.5261 58.4378L113.911 58.443V51.8649H97.4063C98.75 53.3701 99.5782 55.3649 99.5782 57.5472C99.5782 57.8493 99.5573 58.1462 99.5261 58.4378ZM44.8021 58.443H47.5886C47.6094 58.1514 47.6302 57.8545 47.6302 57.5472C47.6302 55.4743 47.0677 53.5368 46.099 51.8649H42.6771C44.0209 53.3701 44.849 55.3649 44.849 57.5472C44.849 57.8545 44.8282 58.1514 44.8021 58.443ZM63.1198 51.8649C62.1511 53.5368 61.5886 55.4743 61.5886 57.5472C61.5886 57.8545 61.6094 58.1514 61.6302 58.443H64.4219C64.3855 58.1514 64.3698 57.8545 64.3698 57.5472C64.3698 55.3649 65.1927 53.3701 66.5417 51.8649H63.1198ZM7.13025 57.5472C7.13025 57.8545 7.15108 58.1514 7.17712 58.443H9.96358C9.92712 58.1514 9.91671 57.8545 9.91671 57.5472C9.91671 55.3649 10.7396 53.3701 12.0834 51.8649H8.6615C7.69275 53.5368 7.13025 55.4743 7.13025 57.5472ZM12.698 57.5472C12.698 60.7035 15.2292 63.2555 18.349 63.2555C21.4636 63.2555 23.9948 60.7035 23.9948 57.5472C23.9948 54.3962 21.4636 51.8441 18.349 51.8441C15.2292 51.8441 12.698 54.3962 12.698 57.5472ZM18.349 59.8805C17.073 59.8805 16.0365 58.8337 16.0365 57.5472C16.0365 56.2607 17.073 55.2191 18.349 55.2191C19.6198 55.2191 20.6563 56.2607 20.6563 57.5472C20.6563 58.8337 19.6198 59.8805 18.349 59.8805Z" fill="white"/>
</g>
</g>
</g>
</g>
</svg>
