<svg width="441" height="155" viewBox="0 0 441 155" fill="none" xmlns="http://www.w3.org/2000/svg">
<path d="M333.933 111.081H298.568C298.36 48.9039 297.91 37.6587 303.767 21.601C320.631 21.601 340.816 24.5526 360.825 40.1933H333.933V111.081ZM323.551 35.0599C319.427 33.6483 315.239 33.1349 311.758 33.1349C311.742 33.151 311.742 33.151 311.742 33.167C311.693 38.6853 311.405 43.0487 315.207 43.0487C318.192 43.0487 319.09 43.0487 323.423 43.0487C326.295 43.0487 325.348 39.3912 323.551 35.0599ZM370.581 48.8718C382.551 48.8718 382.855 49.8183 386.658 56.1226L383.048 56.1066C386.738 62.8601 393.895 76.9287 393.895 76.9287C426.243 82.1262 428.232 93.7243 428.232 93.7243L432.083 110.905C434.763 114.017 436.592 117.61 437.86 121.621H420.595C415.829 115.204 408.288 111.017 399.767 111.017C385.455 111.017 373.79 122.792 373.79 137.245C373.79 138.08 373.742 139.988 373.742 139.988L342.517 140.005V48.8558H370.565C370.581 48.8718 370.581 48.8718 370.581 48.8718ZM353.669 70.5441C353.669 78.6131 370.709 77.6987 383.064 80.8428L372.121 59.8283L353.669 59.7962C353.669 59.7962 353.669 67.4481 353.669 70.5441ZM424.782 130.283C425.392 132.513 425.745 134.823 425.745 137.245C425.745 138.176 425.697 139.074 425.601 139.972H440.202C440.202 136.507 440.042 133.347 439.673 130.283H424.782ZM0.538086 0.794922H289.775V110.953H0.538086V0.794922ZM382.358 137.245C382.358 146.967 390.156 154.827 399.767 154.827C409.379 154.827 417.177 146.967 417.177 137.245C417.177 127.54 409.379 119.68 399.767 119.68C390.156 119.68 382.358 127.54 382.358 137.245ZM399.767 144.432C395.836 144.432 392.659 141.208 392.659 137.245C392.659 133.283 395.836 130.075 399.767 130.075C403.683 130.075 406.876 133.283 406.876 137.245C406.876 141.208 403.683 144.432 399.767 144.432ZM246.388 137.245C246.388 146.967 254.17 154.827 263.797 154.827C273.393 154.827 281.191 146.967 281.191 137.245C281.191 127.54 273.393 119.68 263.797 119.68C254.17 119.68 246.388 127.54 246.388 137.245ZM263.797 144.432C259.866 144.432 256.673 141.208 256.673 137.245C256.673 133.283 259.866 130.075 263.797 130.075C267.713 130.075 270.89 133.283 270.89 137.245C270.89 141.208 267.713 144.432 263.797 144.432ZM189.876 137.245C189.876 146.967 197.658 154.827 207.269 154.827C216.896 154.827 224.678 146.967 224.678 137.245C224.678 127.54 216.896 119.68 207.269 119.68C197.658 119.68 189.876 127.54 189.876 137.245ZM207.269 144.432C203.354 144.432 200.177 141.208 200.177 137.245C200.177 133.283 203.354 130.075 207.269 130.075C211.2 130.075 214.393 133.283 214.393 137.245C214.393 141.208 211.2 144.432 207.269 144.432ZM77.7974 137.245C77.7974 146.967 85.5795 154.827 95.1908 154.827C104.786 154.827 112.584 146.967 112.584 137.245C112.584 127.54 104.786 119.68 95.1908 119.68C85.5795 119.68 77.7974 127.54 77.7974 137.245ZM95.1908 144.432C91.2596 144.432 88.0826 141.208 88.0826 137.245C88.0826 133.283 91.2596 130.075 95.1908 130.075C99.1059 130.075 102.299 133.283 102.299 137.245C102.299 141.208 99.1059 144.432 95.1908 144.432ZM237.948 140.005C237.868 139.106 237.82 138.192 237.82 137.245C237.82 130.524 240.355 124.38 244.495 119.744H226.556C230.712 124.38 233.263 130.524 233.263 137.245C233.263 138.192 233.199 139.106 233.102 140.005H237.948ZM69.197 137.245C69.197 130.524 71.7482 124.38 75.904 119.744H58.8155C62.9553 124.38 65.5065 130.524 65.5065 137.245C65.5065 138.192 65.4423 139.106 65.3621 140.005H69.3575C69.2612 139.106 69.197 138.192 69.197 137.245ZM289.615 139.988L333.933 140.005V119.744H283.084C287.224 124.38 289.775 130.524 289.775 137.245C289.775 138.176 289.711 139.09 289.615 139.988ZM121.024 140.005H129.608C129.673 139.106 129.737 138.192 129.737 137.245C129.737 130.861 128.004 124.893 125.019 119.744H114.478C118.617 124.38 121.169 130.524 121.169 137.245C121.169 138.192 121.104 139.106 121.024 140.005ZM177.456 119.744C174.472 124.893 172.739 130.861 172.739 137.245C172.739 138.192 172.803 139.106 172.867 140.005H181.468C181.355 139.106 181.307 138.192 181.307 137.245C181.307 130.524 183.842 124.38 187.998 119.744H177.456ZM4.96666 137.245C4.96666 138.192 5.03084 139.106 5.11107 140.005H13.6954C13.5831 139.106 13.551 138.192 13.551 137.245C13.551 130.524 16.0862 124.38 20.226 119.744H9.68405C6.69957 124.893 4.96666 130.861 4.96666 137.245ZM22.1194 137.245C22.1194 146.967 29.9175 154.827 39.5288 154.827C49.124 154.827 56.9221 146.967 56.9221 137.245C56.9221 127.54 49.124 119.68 39.5288 119.68C29.9175 119.68 22.1194 127.54 22.1194 137.245ZM39.5288 144.432C35.5976 144.432 32.4045 141.208 32.4045 137.245C32.4045 133.283 35.5976 130.075 39.5288 130.075C43.4439 130.075 46.637 133.283 46.637 137.245C46.637 141.208 43.4439 144.432 39.5288 144.432Z" fill="white" fill-opacity="0.09"/>
</svg>
