<svg width="806" height="233" viewBox="0 0 806 233" fill="none" xmlns="http://www.w3.org/2000/svg">
<mask id="mask0_176_11891" style="mask-type:luminance" maskUnits="userSpaceOnUse" x="25" y="85" width="715" height="120">
<path d="M25.7872 85.4492H739.016V204.317H25.7872V85.4492Z" fill="white"/>
</mask>
<g mask="url(#mask0_176_11891)">
<path fill-rule="evenodd" clip-rule="evenodd" d="M29.0731 189.341L27.6819 189.696V187.091C26.5719 186.573 25.7135 185.449 25.7875 183.702L29.0731 115.241V182.341C28.1407 182.341 27.3859 183.081 27.3859 184.013C27.3859 184.946 28.1407 185.7 29.0731 185.7V189.341ZM55.5646 182.711L29.0731 189.341V185.7C29.9907 185.7 30.7454 184.946 30.7454 184.013C30.7454 183.081 29.9907 182.341 29.0731 182.341V115.241L30.4938 85.4795L32.1514 85.7459L32.1366 126.725L46.6108 139.053L47.1583 138.402L55.5646 145.579V149.916L45.0124 140.903L45.5304 140.311L32.1366 128.886V180.55L55.5646 174.69V182.711ZM104.493 184.546C101.843 184.546 99.6974 186.692 99.6974 189.341C99.6974 191.975 101.843 194.121 104.493 194.121V184.546ZM104.493 174.349C96.2343 174.349 89.53 181.068 89.53 189.341C89.53 197.599 96.2343 204.318 104.493 204.318V198.724C99.3126 198.724 95.1095 194.521 95.1095 189.341C95.1095 184.146 99.3126 179.943 104.493 179.943V174.349ZM104.493 172.736C99.653 172.736 95.3019 174.808 92.268 178.123V175.962H87.7096V178.937C87.7096 179.84 86.9844 180.58 86.0817 180.595L85.7413 195.927H84.5721L84.2465 180.595C83.3437 180.58 82.6037 179.84 82.6037 178.937V175.962H82.5149L55.5646 182.711V174.69L78.9778 168.829L62.4465 154.725L61.9137 155.347L55.5646 149.916V145.579L64.0597 152.846L63.5269 153.482L80.9462 168.341L82.5593 167.926H104.493V172.736ZM104.493 194.121C107.142 194.121 109.288 191.975 109.288 189.341C109.288 186.692 107.142 184.546 104.493 184.546V194.121ZM104.493 204.318C112.751 204.318 119.455 197.599 119.455 189.341C119.455 181.068 112.751 174.349 104.493 174.349V179.943C109.672 179.943 113.861 184.146 113.861 189.341C113.861 194.521 109.672 198.724 104.493 198.724V204.318ZM150.372 184.546C147.737 184.546 145.591 186.692 145.591 189.341C145.591 191.975 147.737 194.121 150.372 194.121V184.546ZM150.372 174.349C142.113 174.349 135.409 181.068 135.409 189.341C135.409 197.599 142.113 204.318 150.372 204.318V198.724C145.192 198.724 141.003 194.521 141.003 189.341C141.003 184.146 145.192 179.943 150.372 179.943V174.349ZM150.372 172.736C145.532 172.736 141.181 174.808 138.162 178.123V175.962H129.992V178.937C129.992 179.84 129.252 180.58 128.35 180.595L128.024 195.927H126.84L126.515 180.595C125.612 180.58 124.887 179.84 124.887 178.937V175.962H116.702V178.123C113.683 174.808 109.332 172.736 104.493 172.736V167.926H150.372V172.736ZM150.372 194.121C153.021 194.121 155.167 191.975 155.167 189.341C155.167 186.692 153.021 184.546 150.372 184.546V194.121ZM150.372 204.318C158.645 204.318 165.334 197.599 165.334 189.341C165.334 181.068 158.645 174.349 150.372 174.349V179.943C155.552 179.943 159.755 184.146 159.755 189.341C159.755 194.521 155.552 198.724 150.372 198.724V204.318ZM196.266 184.546C193.617 184.546 191.471 186.692 191.471 189.341C191.471 191.975 193.617 194.121 196.266 194.121V184.546ZM196.266 174.349C187.993 174.349 181.303 181.068 181.303 189.341C181.303 197.599 187.993 204.318 196.266 204.318V198.724C191.086 198.724 186.883 194.521 186.883 189.341C186.883 184.146 191.086 179.943 196.266 179.943V174.349ZM196.266 172.736C191.426 172.736 187.075 174.808 184.041 178.123V175.962H175.872V178.937C175.872 179.84 175.132 180.58 174.229 180.595L173.903 195.927H172.734L172.394 180.595C171.506 180.58 170.766 179.84 170.766 178.937V175.962H162.596V178.123C159.562 174.808 155.211 172.736 150.372 172.736V167.926H196.266V172.736ZM196.266 194.121C198.9 194.121 201.046 191.975 201.046 189.341C201.046 186.692 198.9 184.546 196.266 184.546V194.121ZM196.266 204.318C204.524 204.318 211.228 197.599 211.228 189.341C211.228 181.068 204.524 174.349 196.266 174.349V179.943C201.446 179.943 205.634 184.146 205.634 189.341C205.634 194.521 201.446 198.724 196.266 198.724V204.318ZM242.145 184.546C239.496 184.546 237.35 186.692 237.35 189.341C237.35 191.975 239.496 194.121 242.145 194.121V184.546ZM242.145 174.349C233.887 174.349 227.182 181.068 227.182 189.341C227.182 197.599 233.887 204.318 242.145 204.318V198.724C236.965 198.724 232.762 194.521 232.762 189.341C232.762 184.146 236.965 179.943 242.145 179.943V174.349ZM242.145 172.736C237.305 172.736 232.954 174.808 229.92 178.123V175.962H221.751V178.937C221.751 179.84 221.026 180.58 220.123 180.595L219.782 195.927H218.613L218.288 180.595C217.385 180.58 216.645 179.84 216.645 178.937V175.962H208.475V178.123C205.442 174.808 201.09 172.736 196.266 172.736V167.926H242.145V172.736ZM242.145 194.121C244.794 194.121 246.94 191.975 246.94 189.341C246.94 186.692 244.794 184.546 242.145 184.546V194.121ZM242.145 204.318C250.403 204.318 257.107 197.599 257.107 189.341C257.107 181.068 250.403 174.349 242.145 174.349V179.943C247.325 179.943 251.528 184.146 251.528 189.341C251.528 194.521 247.325 198.724 242.145 198.724V204.318ZM268.474 188.571H266.357V187.728H266.342V175.962H254.369V178.123C251.336 174.808 246.984 172.736 242.145 172.736V167.926H268.474V177.472C267.512 177.472 266.742 178.256 266.742 179.203C266.742 180.165 267.512 180.95 268.474 180.95V188.571ZM294.432 188.571H268.474V180.95C269.436 180.95 270.205 180.165 270.205 179.203C270.205 178.256 269.436 177.472 268.474 177.472V167.926H294.432V175.962H270.59V185.242H294.432V188.571ZM320.406 188.571H294.432V185.242H318.275V175.962H294.432V167.926H320.406V177.472C319.444 177.472 318.674 178.256 318.674 179.203C318.674 180.165 319.444 180.95 320.406 180.95V188.571ZM346.365 188.571H320.406V180.95C321.368 180.95 322.137 180.165 322.137 179.203C322.137 178.256 321.368 177.472 320.406 177.472V167.926H346.365V175.962H322.522V185.242H346.365V188.571ZM372.338 188.571H346.365V185.242H370.207V175.962H346.365V167.926H372.338V177.472C371.376 177.472 370.592 178.256 370.592 179.203C370.592 180.165 371.376 180.95 372.338 180.95V188.571ZM398.297 188.571H372.338V180.95C373.285 180.95 374.07 180.165 374.07 179.203C374.07 178.256 373.285 177.472 372.338 177.472V167.926H398.297V175.962H374.455V185.242H398.297V188.571ZM424.256 188.571H398.297V185.242H422.139V175.962H398.297V167.926H424.256V177.472C423.308 177.472 422.524 178.256 422.524 179.203C422.524 180.165 423.308 180.95 424.256 180.95V188.571ZM492.334 179.544C489.019 179.544 486.341 182.237 486.341 185.552C486.341 188.867 489.019 191.561 492.334 191.561V179.544ZM492.334 166.787C481.989 166.787 473.598 175.193 473.598 185.552C473.598 195.912 481.989 204.318 492.334 204.318V197.303C485.852 197.303 480.583 192.049 480.583 185.552C480.583 179.055 485.852 173.802 492.334 173.802V166.787ZM492.334 164.907C485.423 164.907 479.296 168.311 475.566 173.535H473.731V174.379C473.731 175.296 472.976 176.036 472.074 176.036H470.475C469.572 176.036 468.832 175.296 468.832 174.379V160.319H466.879V169.643H463.327V160.319H461.285C458.961 162.051 456.889 164.537 454.965 168.03L452.553 193.07H451.546L453.367 168.03C454.728 164.892 456.371 162.332 458.31 160.319H452.982V153.319L432.1 158.514L432.085 167.926H434.453V175.962H426.387V187.728H426.372V188.571H424.256V180.95C425.218 180.95 426.002 180.165 426.002 179.203C426.002 178.256 425.218 177.472 424.256 177.472V167.926H425.558V153.334L456.327 146.053L457.659 145.742H492.334V154.859H466.835V157.034H492.334V164.907ZM492.334 191.561C495.65 191.561 498.328 188.867 498.328 185.552C498.328 182.237 495.65 179.544 492.334 179.544V191.561ZM492.334 204.318C502.679 204.318 511.071 195.912 511.071 185.552C511.071 175.193 502.679 166.787 492.334 166.787V173.802C498.817 173.802 504.085 179.055 504.085 185.552C504.085 192.049 498.817 197.303 492.334 197.303V204.318ZM492.334 145.742H519.388V154.859H492.334V145.742ZM519.388 186.07H512.951C512.951 185.893 512.965 185.73 512.965 185.552C512.965 174.157 503.73 164.907 492.334 164.907V157.034H519.388V186.07ZM541.144 179.544C537.829 179.544 535.135 182.237 535.135 185.552C535.135 188.867 537.829 191.561 541.144 191.561V179.544ZM541.144 166.787C530.784 166.787 522.393 175.193 522.393 185.552C522.393 195.912 530.784 204.318 541.144 204.318V197.303C534.647 197.303 529.393 192.049 529.393 185.552C529.393 179.055 534.647 173.802 541.144 173.802V166.787ZM519.388 145.742H541.144V154.859H519.388V145.742ZM541.144 164.907C529.748 164.907 520.513 174.157 520.513 185.552C520.513 185.73 520.513 185.893 520.528 186.07H519.388V157.034H541.144V164.907ZM541.144 191.561C544.444 191.561 547.138 188.867 547.138 185.552C547.138 182.237 544.444 179.544 541.144 179.544V191.561ZM541.144 204.318C551.489 204.318 559.88 195.912 559.88 185.552C559.88 175.193 551.489 166.787 541.144 166.787V173.802C547.626 173.802 552.88 179.055 552.88 185.552C552.88 192.049 547.626 197.303 541.144 197.303V204.318ZM574.799 152.061V158.396C574.799 158.943 574.532 159.417 574.133 159.728H578.277V178.419H576.811C575.583 180.461 576.057 182.592 576.279 183.303H576.767V182.563C576.767 181.512 577.389 180.595 578.277 180.165V189.282C577.389 188.853 576.767 187.95 576.767 186.899V186.144H575.524C575.169 186.144 574.858 185.848 574.858 185.493V183.969C574.858 183.628 575.109 183.362 575.435 183.303C575.183 182.37 574.887 180.402 575.879 178.419H569.101C567.739 178.419 566.629 177.309 566.629 175.933V173.535H557.912C554.168 168.311 548.055 164.907 541.144 164.907V157.034H551.001L551.06 159.594C561.316 159.757 567.665 165.114 569.278 176.392H571.957C571.291 172.559 570.936 168.489 568.997 165.085C564.32 156.886 559.57 155.081 551.001 154.859H541.144V145.742H564.158V152.061H574.799ZM578.277 159.728H578.869V156.886H582.346V149.235C582.346 147.592 583.678 146.26 585.321 146.26H592.558V178.419H582.82V179.914H592.558V189.533H582.82V189.681C582.82 190.229 582.376 190.673 581.828 190.673H581.547C581 190.673 580.556 190.229 580.556 189.681V189.533H579.416C579.002 189.533 578.617 189.444 578.277 189.282V180.165C578.617 180.003 579.002 179.914 579.416 179.914H580.556V178.419H578.277V159.728ZM592.558 146.26H603.288C604.931 146.26 606.278 147.592 606.278 149.235V156.886H611.31V127.273C611.31 125.452 612.804 123.972 614.625 123.972H616.578V96.1054C616.578 94.4627 617.984 94.3295 619.731 94.3295V105.015H617.629V121.738H619.731V159.609C617.303 158.81 616.711 157.093 616.578 155.998V160.053H619.731V185.315H618.828V175.933C618.828 177.309 617.718 178.419 616.356 178.419H604.561V179.914H605.7C607.151 179.914 608.35 181.098 608.35 182.563V186.899C608.35 188.349 607.151 189.533 605.7 189.533H604.561V189.681C604.561 190.229 604.117 190.673 603.569 190.673H603.273C602.726 190.673 602.282 190.229 602.282 189.681V189.533H592.558V179.914H602.282V178.419H592.558V146.26ZM619.731 94.3295C619.997 94.3295 620.263 94.3295 620.53 94.3295H635.729V101.152C633.48 101.226 632.636 102.839 632.636 104.955V116.129C632.666 117.668 634.012 117.89 635.729 117.92V138.357H635.167C634.53 138.357 634.012 138.875 634.012 139.512V141.154H633.376C633.021 141.154 632.725 141.45 632.725 141.82V141.983C632.725 142.338 633.021 142.634 633.376 142.634H634.012V144.292C634.012 144.928 634.53 145.446 635.167 145.446H635.729V185.315H619.731V160.053H622.883C621.581 160.053 620.545 159.89 619.731 159.609V121.738H623.963C625.784 121.738 627.264 120.243 627.264 118.423V108.315C627.264 106.494 625.784 105.015 623.963 105.015H619.731V94.3295ZM662.339 175.933V169.332H662.324L662.339 169.258V122.907C662.013 123.366 661.481 123.706 660.681 123.706C659.601 123.706 654.406 123.721 652.719 123.721C647.584 123.736 649.522 117.994 645.734 117.89C643.677 117.846 638.689 117.934 636.558 117.92C636.277 117.92 635.995 117.92 635.729 117.92V138.357H637.579C638.215 138.357 638.733 138.875 638.733 139.512V144.292C638.733 144.928 638.215 145.446 637.579 145.446H635.729V185.315H659.32V183.614L662.339 183.939V180.417L659.32 180.106V175.489L662.339 175.933ZM635.729 94.3295H646.015C645.556 94.0779 645.231 93.5747 645.231 93.0123V92.4056C645.231 91.5916 645.897 90.9108 646.725 90.9108H651.254C652.246 90.9108 653.045 91.7248 653.045 92.7163C653.045 93.4119 652.63 94.0335 652.038 94.3295H660.178C660.963 94.3295 661.673 94.5811 662.339 95.025V97.9553C661.939 98.0885 661.747 98.3697 662.013 98.9172L662.339 99.6276V118.023C661.703 113.909 660.533 107.264 660.016 104.807C659.557 102.617 657.958 101.152 655.635 101.152H635.729V94.3295ZM670.183 116.247C670.035 116.04 669.887 115.788 669.739 115.463L668.91 113.702L667.845 111.408C665.995 107.442 663.967 103.061 662.339 99.6276V118.023C662.62 119.74 662.798 121.013 662.798 121.353C662.813 121.856 662.679 122.448 662.339 122.907V169.258C663.641 165.795 665.299 162.717 667.223 160.053C668.155 158.766 669.147 157.582 670.183 156.486V137.825C669.532 137.573 669.058 136.937 669.058 136.197C669.058 135.442 669.517 134.806 670.183 134.569V122.67C670.138 122.67 670.094 122.67 670.065 122.67H668.91V129.359C668.91 129.655 668.673 129.907 668.377 129.907H667.845V108.611H668.377C668.673 108.611 668.91 108.848 668.91 109.144V118.497H670.065C670.094 118.497 670.138 118.512 670.183 118.512V116.247ZM662.339 180.417L670.183 181.26V184.783L662.339 183.939V180.417ZM670.183 177.057L662.339 175.933V169.332H668.481C669.014 168.311 669.591 167.334 670.183 166.402V177.057ZM662.339 95.025C663.863 96.0462 665.121 98.0145 666.172 100.057C667.667 102.957 668.94 105.843 670.183 108.714V110.461C668.703 106.998 667.223 103.535 665.432 100.057C665.047 99.3168 664.648 98.5917 664.204 97.9109C663.508 97.8517 662.798 97.8073 662.339 97.9553V95.025ZM670.183 134.569C670.316 134.51 670.464 134.48 670.612 134.465V122.552C670.479 122.611 670.331 122.655 670.183 122.67V134.569ZM693.196 179.544C689.881 179.544 687.203 182.237 687.203 185.552C687.203 188.867 689.881 191.561 693.196 191.561V179.544ZM693.196 166.787V173.802C686.714 173.802 681.46 179.055 681.46 185.552C681.46 192.049 686.714 197.303 693.196 197.303V204.318C682.852 204.318 674.46 195.912 674.46 185.552C674.46 175.193 682.852 166.787 693.196 166.787ZM670.183 181.26L672.965 181.571C672.743 182.696 672.61 183.85 672.58 185.049L670.183 184.783V181.26ZM693.196 164.907V153.379C684.627 153.112 675.97 157.448 670.183 166.402V177.057L674.149 177.635C677.257 170.161 684.613 164.907 693.196 164.907ZM670.183 108.714C671.515 111.807 672.788 114.886 674.238 117.979C675.437 120.524 678.782 121.027 681.534 121.708C683.34 122.167 687.75 123.04 693.196 124.061V146.749L693.019 146.734C692.871 146.734 692.723 146.734 692.575 146.734C692.383 146.734 692.19 146.734 691.998 146.734C691.776 146.749 691.539 146.749 691.317 146.763C691.125 146.763 690.932 146.778 690.74 146.778C690.577 146.793 690.414 146.808 690.266 146.823C690.103 146.823 689.955 146.837 689.793 146.852C689.63 146.867 689.467 146.882 689.304 146.897C689.156 146.911 689.008 146.941 688.86 146.956C688.697 146.971 688.52 147 688.357 147.015C688.209 147.045 688.061 147.059 687.913 147.089C687.75 147.104 687.587 147.133 687.425 147.163C687.277 147.193 687.114 147.222 686.966 147.252C686.803 147.281 686.655 147.296 686.492 147.326C686.329 147.37 686.167 147.4 685.989 147.444C685.708 147.503 685.427 147.577 685.145 147.637C684.997 147.681 684.849 147.711 684.701 147.755C684.539 147.799 684.361 147.844 684.198 147.903C684.065 147.932 683.917 147.977 683.784 148.021C683.621 148.066 683.443 148.125 683.281 148.169C683.147 148.214 683.014 148.258 682.881 148.302C682.703 148.362 682.541 148.421 682.363 148.48C682.245 148.524 682.112 148.584 681.978 148.628C681.815 148.687 681.638 148.746 681.475 148.82C681.342 148.865 681.209 148.924 681.061 148.983C680.913 149.057 680.75 149.116 680.587 149.19C680.454 149.25 680.306 149.309 680.173 149.368C679.892 149.501 679.61 149.62 679.329 149.753C679.181 149.827 679.033 149.901 678.885 149.975C678.737 150.049 678.574 150.138 678.412 150.226C678.293 150.286 678.16 150.36 678.027 150.434C677.864 150.508 677.716 150.596 677.553 150.685C677.435 150.759 677.302 150.833 677.168 150.907C677.02 150.996 676.872 151.1 676.71 151.188C676.576 151.262 676.458 151.351 676.325 151.44C676.177 151.529 676.029 151.618 675.881 151.721C675.748 151.795 675.614 151.884 675.496 151.973C675.348 152.076 675.2 152.18 675.052 152.269C674.919 152.372 674.786 152.461 674.652 152.565C674.519 152.668 674.371 152.757 674.238 152.861C672.817 153.926 671.456 155.14 670.183 156.486V137.825C670.375 137.884 670.582 137.928 670.79 137.928C671.752 137.928 672.521 137.159 672.521 136.197C672.521 135.294 671.84 134.554 670.967 134.465V122.285C671.189 122.063 671.337 121.738 671.337 121.397V119.784C671.337 119.118 670.819 118.571 670.183 118.512V116.247C670.849 117.15 671.53 116.884 673.039 116.972C672.033 114.797 671.115 112.636 670.183 110.461V108.714ZM693.196 191.561V179.544C696.512 179.544 699.205 182.237 699.205 185.552C699.205 188.867 696.512 191.561 693.196 191.561ZM707.907 173.92C704.474 169.584 699.161 166.787 693.196 166.787V173.802C699.694 173.802 704.948 179.055 704.948 185.552C704.948 192.049 699.694 197.303 693.196 197.303V204.318C699.161 204.318 704.474 201.521 707.907 197.17V173.92ZM707.907 171.079C704.178 167.275 698.968 164.907 693.196 164.907V153.379C698.347 153.541 703.468 155.362 707.907 158.84V171.079ZM693.196 124.061C697.696 124.905 702.905 125.852 707.907 126.77V140.592L702.358 148.421L699.99 151.766L700.508 151.943L702.89 148.598L707.907 141.524V151.011C707.789 150.937 707.671 150.863 707.552 150.804L707.212 150.611C707.049 150.508 706.871 150.419 706.694 150.33L706.324 150.123C706.161 150.034 705.983 149.945 705.806 149.856C705.687 149.812 705.569 149.753 705.451 149.694C705.243 149.59 705.036 149.501 704.829 149.398C704.74 149.368 704.651 149.324 704.563 149.279C704.281 149.161 703.985 149.028 703.69 148.909C703.586 148.88 703.497 148.835 703.408 148.806C703.231 148.732 703.053 148.672 702.89 148.598L702.772 148.569C702.654 148.524 702.52 148.48 702.402 148.436L702.358 148.421C702.195 148.362 702.032 148.302 701.869 148.243C701.736 148.199 701.603 148.154 701.455 148.11C701.292 148.066 701.114 148.006 700.937 147.962C700.804 147.918 700.67 147.873 700.537 147.844C700.36 147.784 700.167 147.74 699.99 147.696C699.856 147.666 699.738 147.637 699.605 147.592C699.412 147.548 699.22 147.503 699.028 147.459C698.909 147.444 698.791 147.415 698.658 147.385C698.391 147.326 698.125 147.281 697.858 147.222C697.725 147.207 697.592 147.178 697.459 147.148C697.237 147.119 697.03 147.089 696.808 147.045C696.689 147.03 696.556 147.015 696.423 147C696.245 146.971 696.053 146.956 695.875 146.926C695.727 146.911 695.594 146.897 695.446 146.882C695.268 146.867 695.106 146.852 694.928 146.837C694.78 146.823 694.632 146.808 694.484 146.808C694.321 146.793 694.144 146.778 693.966 146.778C693.818 146.763 693.685 146.763 693.537 146.749C693.418 146.749 693.315 146.749 693.196 146.749V124.061ZM707.907 197.17V173.92C710.438 177.117 711.948 181.157 711.948 185.552C711.948 189.948 710.438 193.973 707.907 197.17ZM721.464 184.309V169.332H716.432C714.138 164.922 711.208 161.429 707.907 158.84V171.079C710.394 173.609 712.229 176.776 713.161 180.313H716.432V184.309H721.464ZM707.907 126.77L712.022 127.524L713.398 127.776L714.419 127.968L715.13 128.101C717.438 128.531 719.599 128.945 721.464 129.3V152.52L721.079 152.491L720.354 161.725L721.464 161.814V166.624C721.375 166.402 721.272 166.18 721.168 165.958L720.961 165.529C720.842 165.307 720.739 165.085 720.635 164.878C720.561 164.744 720.487 164.611 720.428 164.478C720.295 164.241 720.176 164.019 720.058 163.797C719.984 163.679 719.925 163.561 719.851 163.442C719.703 163.161 719.54 162.88 719.362 162.599L719.274 162.451C719.081 162.125 718.889 161.814 718.682 161.503C718.622 161.4 718.548 161.311 718.489 161.207C718.341 161 718.193 160.778 718.045 160.556C717.971 160.453 717.897 160.334 717.808 160.231C717.675 160.038 717.542 159.846 717.394 159.654C717.305 159.535 717.231 159.432 717.142 159.313C717.009 159.136 716.861 158.958 716.728 158.795C716.639 158.677 716.55 158.558 716.447 158.44C716.299 158.262 716.151 158.07 716.003 157.892C715.929 157.804 715.84 157.715 715.766 157.626C715.574 157.389 715.367 157.167 715.174 156.96L715.056 156.827C714.804 156.56 714.567 156.294 714.316 156.043C714.257 155.983 714.182 155.924 714.123 155.85C713.946 155.673 713.753 155.495 713.576 155.317C713.472 155.229 713.383 155.14 713.28 155.051C713.132 154.903 712.969 154.755 712.806 154.607L712.495 154.341C712.333 154.193 712.185 154.059 712.022 153.926C711.918 153.837 711.8 153.749 711.696 153.66C711.533 153.527 711.371 153.408 711.223 153.275C711.104 153.186 711.001 153.112 710.897 153.023C710.705 152.89 710.527 152.742 710.335 152.609C710.246 152.55 710.172 152.491 710.083 152.417C709.817 152.224 709.535 152.047 709.269 151.854C709.18 151.81 709.091 151.751 709.017 151.692C708.81 151.573 708.618 151.44 708.425 151.322C708.322 151.248 708.218 151.188 708.115 151.129L707.907 151.011V141.524L714.419 132.349V153.423H715.13V120.095C715.544 119.888 715.84 119.459 715.84 118.955V118.201C715.84 117.49 715.263 116.913 714.567 116.913H713.398V112.71C713.398 112.325 713.087 112.015 712.703 112.015H712.022V128.427H712.703C713.073 128.427 713.369 128.146 713.398 127.776V120.228H714.419V131.416L707.907 140.592V126.77ZM723.388 184.309H721.464V169.332H722.589C722.441 168.947 722.293 168.563 722.145 168.178L721.997 167.823C721.878 167.571 721.775 167.305 721.671 167.053L721.479 166.639L721.464 166.624V161.814L722.959 161.933C723.107 161.947 723.255 161.947 723.388 161.933V184.309ZM721.464 129.3C722.145 129.433 722.796 129.552 723.388 129.67V152.668L721.464 152.52V129.3ZM723.388 129.67C725.8 130.159 727.561 130.529 728.316 130.751C733.393 132.216 735.509 135.116 735.968 138.787C736.086 139.763 736.057 140.74 736.057 141.717V169.332H736.501V176.392H734.887V181.645H736.501V184.309H723.388V161.933C724.838 161.844 726.037 160.689 726.156 159.195L726.422 155.909C726.555 154.267 725.327 152.816 723.684 152.698L723.388 152.668V129.67ZM736.501 169.332H737.359C738.276 169.332 739.016 170.087 739.016 170.99V182.652C739.016 183.569 738.276 184.309 737.359 184.309H736.501V181.645H738.114V176.392H736.501V169.332Z" fill="#E80008" fill-opacity="0.12"/>
</g>
<mask id="mask1_176_11891" style="mask-type:luminance" maskUnits="userSpaceOnUse" x="131" y="45" width="247" height="125">
<path d="M131.606 45.2578H377.873V169.542H131.606V45.2578Z" fill="white"/>
</mask>
<g mask="url(#mask1_176_11891)">
<path fill-rule="evenodd" clip-rule="evenodd" d="M206.344 49.6822C205.841 49.6822 205.397 49.8746 205.072 50.215C204.731 50.5406 204.524 51.0141 204.494 51.5173L202.881 84.8601V84.9489C202.881 85.4225 203.074 85.8369 203.384 86.1476C203.695 86.4584 204.11 86.6508 204.583 86.6656H209.556C210.059 86.6656 210.518 86.4584 210.858 86.1328C211.184 85.7925 211.391 85.3337 211.391 84.8305V51.5173C211.391 51.0141 211.184 50.5554 210.858 50.215C210.518 49.8894 210.059 49.6822 209.556 49.6822H206.344ZM238.919 49.8746H218.806C218.362 49.8746 217.962 50.0522 217.666 50.3334C217.385 50.6294 217.207 51.0289 217.207 51.4729V85.0525C217.207 85.4965 217.385 85.8961 217.666 86.1772C217.962 86.4732 218.362 86.6508 218.806 86.6508H238.919C239.363 86.6508 239.762 86.4732 240.043 86.1772C240.339 85.8961 240.517 85.4965 240.517 85.0525V51.4729C240.517 51.0289 240.339 50.6294 240.043 50.3334C239.762 50.0522 239.363 49.8746 238.919 49.8746ZM256.9 89.2851L251.069 50.6885H245.253C244.809 50.6885 244.409 50.8661 244.128 51.1473C243.832 51.4433 243.654 51.8429 243.654 52.2869V93.7249C243.654 94.1689 243.832 94.5684 244.128 94.8496C244.409 95.1456 244.809 95.3232 245.253 95.3232H250.3C250.581 95.3232 250.951 95.2936 251.321 95.1456C251.705 94.9976 252.105 94.7312 252.49 94.2725V94.2577L256.9 89.2851ZM155.196 98.5199H149.883C149.469 98.5199 149.084 98.6826 148.818 98.9638C148.537 99.2302 148.374 99.615 148.374 100.029V101.006C148.374 101.421 148.537 101.79 148.818 102.072C149.084 102.338 149.469 102.516 149.883 102.516H155.196C155.344 102.516 155.478 102.456 155.581 102.353C155.67 102.264 155.729 102.131 155.729 101.983V99.0526C155.729 98.9046 155.67 98.7714 155.581 98.6678C155.478 98.579 155.344 98.5199 155.196 98.5199ZM235.825 101.465V96.3592H235.411C235.204 96.3592 235.026 96.4332 234.893 96.5663C234.76 96.6995 234.671 96.8919 234.671 97.0991V100.725C234.671 100.932 234.76 101.11 234.893 101.243C235.026 101.376 235.204 101.465 235.411 101.465H235.825ZM236.817 96.3592V101.465H237.217C237.424 101.465 237.601 101.376 237.735 101.243C237.868 101.11 237.957 100.932 237.957 100.725V97.0991C237.957 96.8919 237.868 96.6995 237.735 96.5663C237.601 96.4332 237.424 96.3592 237.217 96.3592H236.817ZM237.646 149.563V109.56H241.168V108.435H219.797V109.56H223.216V149.563H224.563V145.004H236.299V149.563H237.646ZM208.742 104.203H197.672V107.399H208.875L208.934 107.385H208.949C209.038 107.385 210.799 107.37 212.101 109.575C214.173 113.053 216.482 116.871 216.882 117.552L219.62 115.939L219.516 115.746C218.791 114.547 216.038 109.945 214.854 107.947C213.789 106.156 212.427 105.224 211.258 104.736C210.103 104.247 209.127 104.203 208.875 104.203H208.742ZM256.575 124.419H253.94V127.245H259.239V123.368H256.693V124.419H256.575ZM259.239 133.372V129.524H253.94V132.336H256.693V133.372H259.239ZM243.684 142.637V145.656H239.274V146.144H247.887C248.109 146.144 248.242 146.144 248.376 146.129C248.509 146.114 248.642 146.055 248.849 145.981C249.204 145.818 249.648 145.537 249.959 145.019C250.196 144.634 250.359 144.146 250.374 143.48L250.388 143.051V142.637H243.684ZM247.295 135.044C247.443 134.601 247.547 134.142 247.606 133.668C248.05 130.605 244.646 128.089 242.574 126.86H239.274V135.044H247.295ZM243.684 140.298C244.483 139.588 245.578 138.448 246.407 136.998H239.274V139.603H243.684V140.298ZM248.45 135.044C248.716 134.349 248.834 133.683 248.805 133.017C248.716 131.004 247.206 129.066 244.098 126.86H243.788C245.948 128.311 248.686 130.768 248.257 133.757C248.198 134.201 248.094 134.63 247.976 135.044H248.45ZM246.082 138.656C246.585 138.078 247.014 137.531 247.384 136.998H247.147C246.822 137.605 246.466 138.152 246.082 138.656ZM248.168 136.998C247.473 138.078 246.511 139.218 245.282 140.461H250.403V136.998H248.168ZM245.194 126.86C247.991 128.977 249.367 130.93 249.456 132.987C249.486 133.668 249.382 134.349 249.145 135.044H250.403C250.403 132.099 250.388 129.11 250.388 127.304L250.374 126.86H245.194ZM256.501 120.778C251.543 120.63 246.348 119.49 244.246 118.987C243.743 119.668 243.122 120.334 242.293 120.334H241.997L239.274 120.393V121.71H253.2C253.289 121.71 253.348 121.71 253.393 121.71C253.437 121.71 253.496 121.696 253.6 121.696L253.763 121.681C254.384 121.622 255.405 121.34 256.501 120.778ZM244.764 118.262C247.014 118.795 251.942 119.846 256.589 119.979C252.223 119.224 247.576 118.321 245.075 117.818L244.764 118.262ZM224.8 132.218V143.643H236.047V132.218H224.8ZM224.8 119.165V130.59H236.047V119.165H224.8ZM224.8 109.812V117.552H236.047V109.812H224.8ZM284.339 93.1033L297.747 93.5621C297.007 93.1477 296.282 92.7185 295.587 92.3041C294.003 91.3866 292.656 90.5874 291.902 90.3802C290.895 90.0843 289.815 90.0843 288.764 90.2914C287.639 90.5134 286.544 91.0018 285.612 91.653C285.168 91.9786 284.724 92.4965 284.339 93.1033ZM353.468 147.846C353.394 149.385 353.587 150.377 353.986 151.087C354.386 151.797 354.993 152.197 355.718 152.537C357.124 153.203 364.08 154.565 364.109 154.58L364.317 154.624L364.243 154.417L359.684 141.497L359.625 141.364L359.492 141.438C359.477 141.438 353.616 144.753 353.468 147.846ZM360.528 137.013C359.388 137.664 351.027 142.681 350.805 147.298C350.686 149.785 350.997 151.398 351.633 152.508C352.255 153.603 353.202 154.239 354.342 154.772C356.473 155.793 366.403 157.776 367.987 158.102L360.528 137.013ZM344.929 140.106C344.811 139.987 344.618 139.899 344.426 139.899C344.233 139.899 344.056 139.987 343.923 140.106C343.789 140.239 343.715 140.417 343.715 140.609C343.715 140.816 343.789 140.994 343.923 141.127C344.056 141.245 344.233 141.334 344.426 141.334C344.618 141.334 344.811 141.245 344.929 141.127C345.062 140.994 345.136 140.816 345.136 140.609C345.136 140.417 345.062 140.239 344.929 140.106ZM342.546 148.467C342.295 148.201 341.925 148.038 341.54 148.038C341.14 148.038 340.77 148.201 340.519 148.467C340.252 148.719 340.09 149.089 340.09 149.474C340.09 149.873 340.252 150.243 340.519 150.495C340.77 150.761 341.14 150.924 341.54 150.924C341.925 150.924 342.295 150.761 342.546 150.495C342.813 150.243 342.975 149.873 342.975 149.474C342.975 149.089 342.813 148.719 342.546 148.467ZM323.958 96.3296C323.662 96.0336 323.262 95.856 322.818 95.856C322.374 95.856 321.975 96.0336 321.693 96.3296C321.397 96.6107 321.22 97.0103 321.22 97.4543C321.22 97.8983 321.397 98.2979 321.693 98.579C321.975 98.875 322.374 99.0526 322.818 99.0526C323.262 99.0526 323.662 98.875 323.958 98.579C324.239 98.2979 324.417 97.8983 324.417 97.4543C324.417 97.0103 324.239 96.6107 323.958 96.3296ZM326.755 112.712C326.444 112.416 326.03 112.224 325.571 112.224C325.142 112.224 324.757 112.387 324.461 112.653L324.446 112.668H324.431V112.683H324.417V112.698H324.402V112.712H324.387V112.727H324.372V112.742L324.283 112.831V112.846H324.269V112.86H324.254V112.875L324.239 112.89V112.905H324.224V112.92H324.209V112.949H324.195V112.964H324.18V112.979L324.15 113.008V113.038H324.135V113.068H324.121V113.082L324.106 113.097V113.112L324.091 113.127V113.142C324.061 113.171 324.047 113.216 324.032 113.245L324.002 113.319L323.987 113.364V113.378L323.973 113.408V113.452H323.958V113.497L323.943 113.512V113.571L323.928 113.586V113.66H323.913V113.837H323.899V113.896C323.899 114.355 324.091 114.769 324.387 115.08C324.698 115.376 325.112 115.569 325.571 115.569H325.719V115.554H325.823L325.837 115.539H325.897C325.956 115.524 326 115.509 326.045 115.495L326.104 115.48H326.119L326.193 115.45H326.207V115.435H326.222L326.267 115.421L326.281 115.406C326.311 115.391 326.341 115.391 326.355 115.376L326.37 115.361H326.385L326.429 115.332H326.444V115.317L326.474 115.302H326.489V115.287H326.503L326.518 115.273C326.607 115.213 326.681 115.154 326.755 115.08C327.051 114.769 327.243 114.355 327.243 113.896C327.243 113.438 327.051 113.023 326.755 112.712ZM269.672 93.7545C269.436 93.5177 269.14 93.3105 268.814 93.1773C268.503 93.0589 268.163 92.9849 267.808 92.9849C267.438 92.9849 267.097 93.0589 266.786 93.1773C266.461 93.3105 266.165 93.5177 265.928 93.7545C265.676 94.0061 265.484 94.3021 265.351 94.6276C265.218 94.9384 265.144 95.2788 265.144 95.634C265.144 96.004 265.218 96.3444 265.351 96.6551C265.484 96.9807 265.676 97.2767 265.928 97.5135C266.165 97.7651 266.461 97.9575 266.786 98.0907C267.097 98.2239 267.438 98.2979 267.808 98.2979C268.163 98.2979 268.503 98.2239 268.814 98.0907C269.14 97.9575 269.436 97.7651 269.672 97.5135C269.924 97.2767 270.116 96.9807 270.25 96.6551C270.383 96.3444 270.457 96.004 270.457 95.634C270.457 95.2788 270.383 94.9384 270.25 94.6276C270.116 94.3021 269.924 94.0061 269.672 93.7545ZM274.778 105.046C274.911 105.624 275.045 106.201 275.207 106.748C275.429 107.636 275.696 108.465 275.977 109.235C276.865 108.524 277.575 108.583 277.649 108.583H281.483C279.115 107.34 276.791 106.112 274.778 105.046ZM320.213 108.539L319.385 98.9342L310.712 98.653L310.668 99.9258V100.059H310.534L286.559 99.245L291.665 101.687C291.68 101.702 297.688 104.425 302.128 105.668C306.494 106.911 315.063 108.139 315.3 108.169L320.213 108.539ZM335.368 139.795L335.605 139.973V139.987H335.635V140.002H335.664L335.679 140.017H335.709L335.724 140.032H335.768L335.783 140.047H335.886V140.061H335.916C336.123 140.061 336.301 139.973 336.434 139.839C336.552 139.721 336.641 139.543 336.641 139.336C336.641 139.144 336.552 138.966 336.434 138.833C336.301 138.7 336.123 138.626 335.916 138.626C335.724 138.626 335.546 138.7 335.413 138.833C335.294 138.966 335.206 139.144 335.206 139.336V139.425L335.22 139.44V139.514H335.235V139.558L335.25 139.573V139.603H335.265V139.632H335.28V139.662L335.294 139.677V139.691L335.309 139.706V139.721H335.324V139.736L335.339 139.751V139.765H335.354V139.78H335.368V139.795ZM328.635 130.886L328.738 131.374C329.33 134.068 331.298 136.317 333.637 138.36C333.119 137.205 332.527 136.051 331.802 135.044C330.736 133.579 329.685 132.203 328.783 131.063L328.635 130.886ZM338.343 140.861C338.462 141.379 338.55 141.867 338.58 142.281C339.128 142.711 339.675 143.14 340.178 143.569C340.534 142.814 340.978 142.059 341.525 141.334L338.343 140.861ZM295.705 128.089C287.18 128.089 280.269 135 280.269 143.539C280.269 152.064 287.18 158.99 295.705 158.99C304.23 158.99 311.141 152.064 311.141 143.539C311.141 135 304.23 128.089 295.705 128.089ZM295.705 140.032C293.781 140.032 292.212 141.601 292.212 143.539C292.212 145.463 293.781 147.032 295.705 147.032C297.644 147.032 299.198 145.463 299.198 143.539C299.198 141.601 297.644 140.032 295.705 140.032ZM295.705 134.038C290.466 134.038 286.233 138.3 286.233 143.539C286.233 148.778 290.466 153.026 295.705 153.026C300.944 153.026 305.192 148.778 305.192 143.539C305.192 138.3 300.944 134.038 295.705 134.038ZM295.705 118.884C282.104 118.884 271.078 129.924 271.078 143.539C271.078 157.155 282.104 168.195 295.705 168.195C309.306 168.195 320.332 157.155 320.332 143.539C320.332 129.924 309.306 118.884 295.705 118.884ZM186.572 128.089C178.047 128.089 171.136 135 171.136 143.539C171.136 152.064 178.047 158.99 186.572 158.99C195.097 158.99 202.008 152.064 202.008 143.539C202.008 135 195.097 128.089 186.572 128.089ZM186.572 140.032C184.648 140.032 183.079 141.601 183.079 143.539C183.079 145.463 184.648 147.032 186.572 147.032C188.496 147.032 190.065 145.463 190.065 143.539C190.065 141.601 188.496 140.032 186.572 140.032ZM186.572 134.038C181.333 134.038 177.085 138.3 177.085 143.539C177.085 148.778 181.333 153.026 186.572 153.026C191.811 153.026 196.058 148.778 196.058 143.539C196.058 138.3 191.811 134.038 186.572 134.038ZM186.572 118.884C172.971 118.884 161.945 129.924 161.945 143.539C161.945 157.155 172.971 168.195 186.572 168.195C200.173 168.195 211.199 157.155 211.199 143.539C211.199 129.924 200.173 118.884 186.572 118.884ZM204.894 45.3164H248.923C249.841 45.3164 250.67 45.6864 251.262 46.2784C251.868 46.8851 252.238 47.7139 252.238 48.6166L261.34 108.953V108.968C261.355 109.087 261.355 109.205 261.355 109.323C261.355 111.04 260.585 112.624 259.401 113.793C258.217 114.962 256.619 115.731 254.961 115.85C254.828 115.85 254.695 115.85 254.577 115.85H246.466L245.593 117.093C248.524 117.67 253.881 118.706 258.499 119.461C259.594 118.543 260.585 117.285 261.133 115.643C262.953 110.226 262.864 105.12 262.776 99.9702C262.746 98.2831 262.717 96.5959 262.746 94.8792C262.776 94.1097 262.953 93.3401 263.234 92.6741C263.545 91.9786 263.974 91.3718 264.448 90.9574C265.292 90.2323 266.416 89.9067 267.512 89.9659C268.607 90.0251 269.672 90.469 270.368 91.2682C270.501 91.4162 270.634 91.5642 270.753 91.727C271.004 91.8306 271.256 91.9342 271.522 92.0526C271.73 92.1414 271.937 92.2302 272.203 92.3485L272.973 92.7185L283.599 93.0737C284.087 92.2746 284.635 91.5494 285.242 91.1202C286.233 90.4098 287.417 89.8919 288.631 89.6551C289.785 89.4183 290.969 89.4331 292.079 89.7439C292.923 89.9955 294.299 90.8094 295.912 91.7418C296.948 92.3485 298.088 93.0145 299.213 93.6065L310.742 93.9913L310.875 94.0061L310.86 94.1245L310.816 95.486L319.385 95.782C319.444 95.486 319.503 95.2048 319.607 94.9384C319.991 93.9321 320.746 93.2217 322.123 92.9997H322.137C323.514 92.7777 324.461 93.2069 325.127 94.0209C325.808 94.8348 326.207 96.0336 326.533 97.3507L330.78 114.695C330.795 114.769 330.81 114.858 330.825 114.932C330.973 115.805 330.721 116.649 330.218 117.345C329.833 117.877 329.301 118.307 328.664 118.573C328.783 119.076 328.812 119.594 328.575 120.008C327.939 121.178 327.613 122.288 327.51 123.412C327.702 123.605 327.924 123.841 328.161 124.137C329.404 125.647 331.062 127.837 332.527 129.85C334.214 132.173 335.664 134.275 336.005 134.911C336.419 135.696 337.026 137.042 337.559 138.419L343.538 139.292C344.041 138.907 344.589 138.537 345.166 138.167C347.401 136.761 349.887 135.651 350.464 135.385C355.674 130.56 361.949 127.008 362.097 126.92L366.477 123.841L366.492 123.827C366.522 123.812 366.551 123.782 366.581 123.767C366.729 123.679 366.818 123.693 366.936 123.886L367.232 124.374C367.306 124.507 367.217 124.685 367.173 124.803L367.158 124.818L366.877 125.425C365.885 127.467 365.545 128.178 365.486 131.744C365.471 132.987 365.515 134.023 365.575 134.852C365.708 136.406 365.915 137.22 365.945 137.309L374.588 161.742L374.691 161.624L374.839 161.491L374.898 161.668L376.97 167.381L377.044 167.588L376.822 167.544L370.311 166.212L370.089 166.167L370.414 165.842C366.818 165.087 362.156 164.066 358.16 163.074C355.23 162.349 352.64 161.639 351.115 161.047C348.57 160.618 346.291 159.626 344.426 158.25C341.569 157.421 338.906 156.178 336.449 154.609C333.755 152.892 331.298 150.761 329.079 148.364C326.637 145.73 324.52 142.696 322.522 139.647C320.702 126.949 310.09 117.093 297.067 116.457C296.652 116.264 296.268 116.087 295.912 115.924C295.32 115.657 294.832 115.435 294.418 115.228C292.716 114.414 289.992 113.023 286.944 111.44C285.908 111.528 284.768 111.647 283.762 111.75C283.022 111.81 282.356 111.884 281.838 111.928C280.802 112.032 279.825 112.624 278.967 113.378C279.544 113.541 280.284 113.674 281.113 113.822C283.762 114.281 287.18 114.888 288.572 117.33L288.66 117.478L288.498 117.522C282.741 119.12 277.753 122.583 274.231 127.216C270.782 131.744 268.74 137.398 268.74 143.539C268.74 144.797 268.829 146.026 268.992 147.239C269.154 148.467 269.421 149.681 269.746 150.85L269.791 151.013H269.628L264.67 150.954H239.274V151.723H220.715L220.7 151.634L219.723 147.432H213.345L213.359 147.284C213.448 146.677 213.522 146.04 213.567 145.419C213.596 144.797 213.626 144.176 213.626 143.539C213.626 138.7 212.353 134.171 210.133 130.25C207.839 126.18 204.509 122.776 200.513 120.378L200.498 120.364L200.454 120.334L200.424 120.319L200.232 120.201L200.025 120.097L200.01 120.082L199.862 119.994H199.847L199.803 119.964L199.788 119.949L199.226 119.653L199.211 119.638L199.152 119.609L199.078 119.579C197.198 118.602 195.2 117.833 193.099 117.315C191.041 116.812 188.881 116.545 186.661 116.545H186.572C181.244 116.545 176.271 118.085 172.083 120.763C167.761 123.516 164.283 127.482 162.108 132.173L161.989 132.41L161.886 132.662L161.812 132.825L161.723 133.047L161.619 133.269L161.605 133.313L161.545 133.476L161.412 133.816L161.338 133.979L161.324 134.038L161.25 134.245L161.176 134.438L160.968 135.059L160.865 135.385L160.776 135.651L160.672 136.006L160.598 136.258L160.48 136.672L160.436 136.894L160.317 137.368L160.273 137.516L160.228 137.768L160.169 138.019L160.14 138.167L160.08 138.448L160.036 138.715L160.021 138.818L159.962 139.085L159.918 139.366L159.903 139.484C159.873 139.691 159.844 139.884 159.829 140.061L159.814 140.121L159.784 140.446L159.74 140.757V140.801L159.681 141.453V141.467L159.666 141.808L159.636 142.148L159.607 142.829V143.539C159.607 143.702 159.607 143.865 159.607 144.013C159.607 144.176 159.622 144.338 159.622 144.486L159.636 144.708L159.444 144.605L159.34 144.56L159.281 144.516L159.237 144.501L159.118 144.442L159.104 144.427L159.015 144.383L158.911 144.338L158.896 144.324L158.763 144.25L158.719 144.235L158.645 144.19L158.512 144.116L158.378 144.057L158.304 144.013L158.068 143.894L157.964 143.835L157.846 143.761L157.816 143.746L157.653 143.672L157.594 143.643L157.505 143.584L157.342 143.51L157.328 143.495L157.091 143.376L157.017 143.332L156.854 143.243L156.824 143.229L156.691 143.155L156.558 143.095L156.514 143.066L156.351 142.977L156.277 142.947L156.173 142.888L155.996 142.785H155.966L155.803 142.696L155.7 142.637L155.626 142.592L155.448 142.503L155.404 142.474L155.108 142.326L155.063 142.296L154.871 142.207L154.797 142.163L154.693 142.104L154.501 142L154.294 141.897L154.19 141.823L154.101 141.793L153.909 141.689L153.864 141.66L153.716 141.571L153.554 141.497L153.509 141.467L153.317 141.364L153.11 141.26L152.917 141.157V141.142L152.503 140.935L152.31 140.816L152.266 140.801L151.94 140.624L151.896 140.609L151.704 140.491H151.689L151.615 140.446L151.289 140.283V140.269H151.274L151.082 140.165L150.964 140.106L150.89 140.061L150.682 139.943L150.638 139.928L150.49 139.839L150.327 139.751L150.283 139.721L150.076 139.617L150.002 139.573L149.883 139.514L149.691 139.395H149.676L149.484 139.292L149.365 139.233L149.291 139.188L149.099 139.07L149.055 139.055L148.907 138.966L148.744 138.892L148.714 138.863L148.522 138.759L148.448 138.715L148.329 138.656L148.167 138.567H143.268C140.87 138.567 138.695 137.575 137.111 135.992C135.528 134.408 134.551 132.233 134.551 129.82V124.389C134.551 123.649 134.847 122.968 135.335 122.48C135.824 121.977 136.504 121.681 137.244 121.681H141.773C141.773 121.459 142.528 101.406 142.809 98.0019C142.809 97.9131 142.824 97.8243 142.824 97.7503C142.839 97.6763 142.839 97.6171 142.853 97.5727C143.12 95.9744 143.712 94.5684 144.6 93.3993C145.503 92.2006 146.701 91.2534 148.152 90.5874L148.211 90.5578H148.226L148.344 90.4986H148.359L148.418 90.469L148.492 90.4394L148.551 90.4246H148.566V90.4098H148.581L148.625 90.395H148.655L148.699 90.3654H148.729L148.818 90.3358C152.858 89.0779 163.129 88.2491 168.901 87.7904L169.537 87.7312V82.4182H168.516V80.5387H174.347V82.4182H173.326V87.45L174.406 87.3612L174.984 87.3168L175.546 87.2724L176.123 87.2428L177.278 87.154L177.485 87.1392L177.84 87.1244L178.417 87.08L178.98 87.0356L179.557 87.006L179.794 86.9912L180.119 86.9616L180.682 86.932L180.933 86.9024L181.244 86.8876L181.806 86.858L182.073 86.8284H182.191V64.2299C182.191 64.0523 182.191 64.0375 182.191 64.0079C182.191 63.9783 182.206 63.9339 182.206 63.6675C182.221 62.2616 182.25 60.1601 181.259 59.4793L178.136 57.3038L178.077 57.2742V52.3017L178.106 52.2721L178.18 52.1537L178.254 52.0649L178.343 52.1241L178.55 52.2721C179.32 52.8048 182.102 54.7436 183.745 55.8831C185.195 56.8895 185.906 58.2658 186.246 59.7013C186.587 61.0481 186.587 62.4392 186.572 63.5787C186.572 63.6379 186.572 63.6971 186.572 63.7563C186.572 63.9043 186.572 64.0523 186.572 64.2299V86.5472H186.661L187.179 86.5176L187.519 86.488H187.697L188.703 86.4288L190.168 86.34L190.523 86.3104H190.642L191.115 86.2808C193.128 86.1624 194.963 86.0589 196.502 85.9849C199.078 85.8517 200.824 85.7629 201.327 85.7333L203.044 48.6166V47.1515C203.044 46.6483 203.251 46.1896 203.592 45.8492C203.917 45.5236 204.376 45.3164 204.894 45.3164Z" fill="#E80008" fill-opacity="0.12"/>
</g>
</svg>
