<svg width="284" height="82" viewBox="0 0 284 82" fill="none" xmlns="http://www.w3.org/2000/svg">
<mask id="mask0_176_11535" style="mask-type:luminance" maskUnits="userSpaceOnUse" x="9" y="30" width="252" height="42">
<path d="M9.427 30.0723H260.427V71.9056H9.427V30.0723Z" fill="white"/>
</mask>
<g mask="url(#mask0_176_11535)">
<path fill-rule="evenodd" clip-rule="evenodd" d="M10.5834 66.6351L10.0938 66.7601V65.8434C9.70315 65.6611 9.40106 65.2653 9.4271 64.6507L10.5834 40.557V64.1716C10.2552 64.1716 9.9896 64.432 9.9896 64.7601C9.9896 65.0882 10.2552 65.3538 10.5834 65.3538V66.6351ZM19.9063 64.3018L10.5834 66.6351V65.3538C10.9063 65.3538 11.1719 65.0882 11.1719 64.7601C11.1719 64.432 10.9063 64.1716 10.5834 64.1716V40.557L11.0834 30.083L11.6667 30.1768L11.6615 44.5986L16.7552 48.9372L16.9479 48.708L19.9063 51.2341V52.7601L16.1927 49.5882L16.375 49.3799L11.6615 45.359V63.5413L19.9063 61.4788V64.3018ZM37.125 64.9476C36.1927 64.9476 35.4375 65.7028 35.4375 66.6351C35.4375 67.5622 36.1927 68.3174 37.125 68.3174V64.9476ZM37.125 61.3591C34.2188 61.3591 31.8594 63.7236 31.8594 66.6351C31.8594 69.5413 34.2188 71.9059 37.125 71.9059V69.9372C35.3021 69.9372 33.8229 68.458 33.8229 66.6351C33.8229 64.807 35.3021 63.3278 37.125 63.3278V61.3591ZM37.125 60.7913C35.4219 60.7913 33.8906 61.5205 32.8229 62.6872V61.9268H31.2188V62.9736C31.2188 63.2913 30.9636 63.5518 30.6459 63.557L30.5261 68.9528H30.1146L30 63.557C29.6823 63.5518 29.4219 63.2913 29.4219 62.9736V61.9268H29.3906L19.9063 64.3018V61.4788L28.1459 59.4163L22.3281 54.4528L22.1406 54.6716L19.9063 52.7601V51.2341L22.8959 53.7913L22.7084 54.0153L28.8386 59.2445L29.4063 59.0986H37.125V60.7913ZM37.125 68.3174C38.0573 68.3174 38.8125 67.5622 38.8125 66.6351C38.8125 65.7028 38.0573 64.9476 37.125 64.9476V68.3174ZM37.125 71.9059C40.0313 71.9059 42.3906 69.5413 42.3906 66.6351C42.3906 63.7236 40.0313 61.3591 37.125 61.3591V63.3278C38.9479 63.3278 40.4219 64.807 40.4219 66.6351C40.4219 68.458 38.9479 69.9372 37.125 69.9372V71.9059ZM53.2709 64.9476C52.3438 64.9476 51.5886 65.7028 51.5886 66.6351C51.5886 67.5622 52.3438 68.3174 53.2709 68.3174V64.9476ZM53.2709 61.3591C50.3646 61.3591 48.0052 63.7236 48.0052 66.6351C48.0052 69.5413 50.3646 71.9059 53.2709 71.9059V69.9372C51.4479 69.9372 49.974 68.458 49.974 66.6351C49.974 64.807 51.4479 63.3278 53.2709 63.3278V61.3591ZM53.2709 60.7913C51.5677 60.7913 50.0365 61.5205 48.974 62.6872V61.9268H46.099V62.9736C46.099 63.2913 45.8386 63.5518 45.5209 63.557L45.4063 68.9528H44.9896L44.875 63.557C44.5573 63.5518 44.3021 63.2913 44.3021 62.9736V61.9268H41.4219V62.6872C40.3594 61.5205 38.8281 60.7913 37.125 60.7913V59.0986H53.2709V60.7913ZM53.2709 68.3174C54.2031 68.3174 54.9584 67.5622 54.9584 66.6351C54.9584 65.7028 54.2031 64.9476 53.2709 64.9476V68.3174ZM53.2709 71.9059C56.1823 71.9059 58.5365 69.5413 58.5365 66.6351C58.5365 63.7236 56.1823 61.3591 53.2709 61.3591V63.3278C55.0938 63.3278 56.5729 64.807 56.5729 66.6351C56.5729 68.458 55.0938 69.9372 53.2709 69.9372V71.9059ZM69.4219 64.9476C68.4896 64.9476 67.7344 65.7028 67.7344 66.6351C67.7344 67.5622 68.4896 68.3174 69.4219 68.3174V64.9476ZM69.4219 61.3591C66.5104 61.3591 64.1563 63.7236 64.1563 66.6351C64.1563 69.5413 66.5104 71.9059 69.4219 71.9059V69.9372C67.599 69.9372 66.1198 68.458 66.1198 66.6351C66.1198 64.807 67.599 63.3278 69.4219 63.3278V61.3591ZM69.4219 60.7913C67.7188 60.7913 66.1875 61.5205 65.1198 62.6872V61.9268H62.2448V62.9736C62.2448 63.2913 61.9844 63.5518 61.6667 63.557L61.5521 68.9528H61.1406L61.0209 63.557C60.7084 63.5518 60.4479 63.2913 60.4479 62.9736V61.9268H57.5729V62.6872C56.5052 61.5205 54.974 60.7913 53.2709 60.7913V59.0986H69.4219V60.7913ZM69.4219 68.3174C70.349 68.3174 71.1042 67.5622 71.1042 66.6351C71.1042 65.7028 70.349 64.9476 69.4219 64.9476V68.3174ZM69.4219 71.9059C72.3281 71.9059 74.6875 69.5413 74.6875 66.6351C74.6875 63.7236 72.3281 61.3591 69.4219 61.3591V63.3278C71.2448 63.3278 72.7188 64.807 72.7188 66.6351C72.7188 68.458 71.2448 69.9372 69.4219 69.9372V71.9059ZM85.5677 64.9476C84.6354 64.9476 83.8802 65.7028 83.8802 66.6351C83.8802 67.5622 84.6354 68.3174 85.5677 68.3174V64.9476ZM85.5677 61.3591C82.6615 61.3591 80.3021 63.7236 80.3021 66.6351C80.3021 69.5413 82.6615 71.9059 85.5677 71.9059V69.9372C83.7448 69.9372 82.2656 68.458 82.2656 66.6351C82.2656 64.807 83.7448 63.3278 85.5677 63.3278V61.3591ZM85.5677 60.7913C83.8646 60.7913 82.3334 61.5205 81.2656 62.6872V61.9268H78.3906V62.9736C78.3906 63.2913 78.1354 63.5518 77.8177 63.557L77.6979 68.9528H77.2865L77.1719 63.557C76.8542 63.5518 76.5938 63.2913 76.5938 62.9736V61.9268H73.7188V62.6872C72.6511 61.5205 71.1198 60.7913 69.4219 60.7913V59.0986H85.5677V60.7913ZM85.5677 68.3174C86.5 68.3174 87.2552 67.5622 87.2552 66.6351C87.2552 65.7028 86.5 64.9476 85.5677 64.9476V68.3174ZM85.5677 71.9059C88.474 71.9059 90.8334 69.5413 90.8334 66.6351C90.8334 63.7236 88.474 61.3591 85.5677 61.3591V63.3278C87.3906 63.3278 88.8698 64.807 88.8698 66.6351C88.8698 68.458 87.3906 69.9372 85.5677 69.9372V71.9059ZM94.8334 66.3643H94.0886V66.0674H94.0834V61.9268H89.8698V62.6872C88.8021 61.5205 87.2709 60.7913 85.5677 60.7913V59.0986H94.8334V62.458C94.4948 62.458 94.224 62.7341 94.224 63.0674C94.224 63.4059 94.4948 63.682 94.8334 63.682V66.3643ZM103.969 66.3643H94.8334V63.682C95.1719 63.682 95.4427 63.4059 95.4427 63.0674C95.4427 62.7341 95.1719 62.458 94.8334 62.458V59.0986H103.969V61.9268H95.5781V65.1924H103.969V66.3643ZM113.109 66.3643H103.969V65.1924H112.359V61.9268H103.969V59.0986H113.109V62.458C112.771 62.458 112.5 62.7341 112.5 63.0674C112.5 63.4059 112.771 63.682 113.109 63.682V66.3643ZM122.245 66.3643H113.109V63.682C113.448 63.682 113.719 63.4059 113.719 63.0674C113.719 62.7341 113.448 62.458 113.109 62.458V59.0986H122.245V61.9268H113.854V65.1924H122.245V66.3643ZM131.385 66.3643H122.245V65.1924H130.635V61.9268H122.245V59.0986H131.385V62.458C131.047 62.458 130.771 62.7341 130.771 63.0674C130.771 63.4059 131.047 63.682 131.385 63.682V66.3643ZM140.521 66.3643H131.385V63.682C131.719 63.682 131.995 63.4059 131.995 63.0674C131.995 62.7341 131.719 62.458 131.385 62.458V59.0986H140.521V61.9268H132.13V65.1924H140.521V66.3643ZM149.656 66.3643H140.521V65.1924H148.911V61.9268H140.521V59.0986H149.656V62.458C149.323 62.458 149.047 62.7341 149.047 63.0674C149.047 63.4059 149.323 63.682 149.656 63.682V66.3643ZM173.615 63.1872C172.448 63.1872 171.505 64.1351 171.505 65.3018C171.505 66.4684 172.448 67.4163 173.615 67.4163V63.1872ZM173.615 58.6976C169.974 58.6976 167.021 61.6559 167.021 65.3018C167.021 68.9476 169.974 71.9059 173.615 71.9059V69.4372C171.333 69.4372 169.479 67.5882 169.479 65.3018C169.479 63.0153 171.333 61.1663 173.615 61.1663V58.6976ZM173.615 58.0361C171.182 58.0361 169.026 59.234 167.714 61.0726H167.068V61.3695C167.068 61.6924 166.802 61.9528 166.484 61.9528H165.922C165.604 61.9528 165.344 61.6924 165.344 61.3695V56.4216H164.656V59.7028H163.406V56.4216H162.688C161.87 57.0309 161.141 57.9059 160.464 59.1351L159.615 67.9476H159.26L159.901 59.1351C160.38 58.0309 160.958 57.1299 161.641 56.4216H159.766V53.958L152.417 55.7861L152.411 59.0986H153.245V61.9268H150.406V66.0674H150.401V66.3643H149.656V63.682C149.995 63.682 150.271 63.4059 150.271 63.0674C150.271 62.7341 149.995 62.458 149.656 62.458V59.0986H150.115V53.9632L160.943 51.4007L161.411 51.2913H173.615V54.4997H164.641V55.2653H173.615V58.0361ZM173.615 67.4163C174.781 67.4163 175.724 66.4684 175.724 65.3018C175.724 64.1351 174.781 63.1872 173.615 63.1872V67.4163ZM173.615 71.9059C177.255 71.9059 180.208 68.9476 180.208 65.3018C180.208 61.6559 177.255 58.6976 173.615 58.6976V61.1663C175.896 61.1663 177.75 63.0153 177.75 65.3018C177.75 67.5882 175.896 69.4372 173.615 69.4372V71.9059ZM173.615 51.2913H183.135V54.4997H173.615V51.2913ZM183.135 65.4841H180.87C180.87 65.4216 180.875 65.3643 180.875 65.3018C180.875 61.2913 177.625 58.0361 173.615 58.0361V55.2653H183.135V65.4841ZM190.792 63.1872C189.625 63.1872 188.677 64.1351 188.677 65.3018C188.677 66.4684 189.625 67.4163 190.792 67.4163V63.1872ZM190.792 58.6976C187.146 58.6976 184.193 61.6559 184.193 65.3018C184.193 68.9476 187.146 71.9059 190.792 71.9059V69.4372C188.505 69.4372 186.656 67.5882 186.656 65.3018C186.656 63.0153 188.505 61.1663 190.792 61.1663V58.6976ZM183.135 51.2913H190.792V54.4997H183.135V51.2913ZM190.792 58.0361C186.781 58.0361 183.531 61.2913 183.531 65.3018C183.531 65.3643 183.531 65.4216 183.536 65.4841H183.135V55.2653H190.792V58.0361ZM190.792 67.4163C191.953 67.4163 192.901 66.4684 192.901 65.3018C192.901 64.1351 191.953 63.1872 190.792 63.1872V67.4163ZM190.792 71.9059C194.432 71.9059 197.385 68.9476 197.385 65.3018C197.385 61.6559 194.432 58.6976 190.792 58.6976V61.1663C193.073 61.1663 194.922 63.0153 194.922 65.3018C194.922 67.5882 193.073 69.4372 190.792 69.4372V71.9059ZM202.635 53.5153V55.7445C202.635 55.9372 202.542 56.1038 202.401 56.2132H203.859V62.7913H203.344C202.911 63.5101 203.078 64.2601 203.156 64.5101H203.328V64.2497C203.328 63.8799 203.547 63.557 203.859 63.4059V66.6143C203.547 66.4632 203.328 66.1455 203.328 65.7757V65.5101H202.891C202.766 65.5101 202.656 65.4059 202.656 65.2809V64.7445C202.656 64.6247 202.745 64.5309 202.859 64.5101C202.771 64.182 202.667 63.4893 203.016 62.7913H200.63C200.151 62.7913 199.76 62.4007 199.76 61.9163V61.0726H196.693C195.375 59.234 193.224 58.0361 190.792 58.0361V55.2653H194.26L194.281 56.1663C197.891 56.2236 200.125 58.109 200.693 62.0778H201.635C201.401 60.7288 201.276 59.2965 200.594 58.0986C198.948 55.2132 197.276 54.5778 194.26 54.4997H190.792V51.2913H198.891V53.5153H202.635ZM203.859 56.2132H204.068V55.2132H205.292V52.5205C205.292 51.9424 205.76 51.4736 206.339 51.4736H208.885V62.7913H205.458V63.3174H208.885V66.7028H205.458V66.7549C205.458 66.9476 205.302 67.1038 205.109 67.1038H205.01C204.818 67.1038 204.661 66.9476 204.661 66.7549V66.7028H204.26C204.115 66.7028 203.979 66.6716 203.859 66.6143V63.4059C203.979 63.3486 204.115 63.3174 204.26 63.3174H204.661V62.7913H203.859V56.2132ZM208.885 51.4736H212.661C213.24 51.4736 213.714 51.9424 213.714 52.5205V55.2132H215.484V44.7913C215.484 44.1507 216.01 43.6299 216.651 43.6299H217.339V33.8226C217.339 33.2445 217.833 33.1976 218.448 33.1976V36.958H217.708V42.8434H218.448V56.1716C217.594 55.8903 217.385 55.2861 217.339 54.9007V56.3278H218.448V65.2184H218.13V61.9163C218.13 62.4007 217.74 62.7913 217.26 62.7913H213.109V63.3174H213.51C214.021 63.3174 214.443 63.7341 214.443 64.2497V65.7757C214.443 66.2861 214.021 66.7028 213.51 66.7028H213.109V66.7549C213.109 66.9476 212.953 67.1038 212.76 67.1038H212.656C212.464 67.1038 212.307 66.9476 212.307 66.7549V66.7028H208.885V63.3174H212.307V62.7913H208.885V51.4736ZM218.448 33.1976C218.542 33.1976 218.635 33.1976 218.729 33.1976H224.078V35.5986C223.286 35.6247 222.99 36.1924 222.99 36.9372V40.8695C223 41.4111 223.474 41.4893 224.078 41.4997V48.6924H223.88C223.656 48.6924 223.474 48.8747 223.474 49.0986V49.6768H223.25C223.125 49.6768 223.021 49.7809 223.021 49.9111V49.9684C223.021 50.0934 223.125 50.1976 223.25 50.1976H223.474V50.7809C223.474 51.0049 223.656 51.1872 223.88 51.1872H224.078V65.2184H218.448V56.3278H219.557C219.099 56.3278 218.734 56.2705 218.448 56.1716V42.8434H219.938C220.578 42.8434 221.099 42.3174 221.099 41.6768V38.1195C221.099 37.4788 220.578 36.958 219.938 36.958H218.448V33.1976ZM233.443 61.9163V59.5934H233.438L233.443 59.5674V43.2549C233.328 43.4163 233.141 43.5361 232.859 43.5361C232.479 43.5361 230.651 43.5413 230.057 43.5413C228.25 43.5465 228.932 41.5257 227.599 41.4893C226.875 41.4736 225.12 41.5049 224.37 41.4997C224.271 41.4997 224.172 41.4997 224.078 41.4997V48.6924H224.729C224.953 48.6924 225.135 48.8747 225.135 49.0986V50.7809C225.135 51.0049 224.953 51.1872 224.729 51.1872H224.078V65.2184H232.38V64.6195L233.443 64.7341V63.4945L232.38 63.3851V61.7601L233.443 61.9163ZM224.078 33.1976H227.698C227.536 33.109 227.422 32.932 227.422 32.734V32.5205C227.422 32.234 227.656 31.9945 227.948 31.9945H229.542C229.891 31.9945 230.172 32.2809 230.172 32.6299C230.172 32.8747 230.026 33.0934 229.818 33.1976H232.682C232.958 33.1976 233.208 33.2861 233.443 33.4424V34.4736C233.302 34.5205 233.234 34.6195 233.328 34.8122L233.443 35.0622V41.5361C233.219 40.0882 232.807 37.7497 232.625 36.8851C232.464 36.1143 231.901 35.5986 231.083 35.5986H224.078V33.1976ZM236.203 40.9111C236.151 40.8382 236.099 40.7497 236.047 40.6351L235.755 40.0153L235.38 39.208C234.729 37.8122 234.016 36.2705 233.443 35.0622V41.5361C233.542 42.1403 233.604 42.5882 233.604 42.708C233.609 42.8851 233.563 43.0934 233.443 43.2549V59.5674C233.901 58.3486 234.484 57.2653 235.161 56.3278C235.49 55.8747 235.839 55.458 236.203 55.0726V48.5049C235.974 48.4163 235.807 48.1924 235.807 47.932C235.807 47.6663 235.969 47.4424 236.203 47.3591V43.1715C236.188 43.1715 236.172 43.1715 236.161 43.1715H235.755V45.5257C235.755 45.6299 235.672 45.7184 235.568 45.7184H235.38V38.2236H235.568C235.672 38.2236 235.755 38.307 235.755 38.4111V41.7028H236.161C236.172 41.7028 236.188 41.708 236.203 41.708V40.9111ZM233.443 63.4945L236.203 63.7913V65.0309L233.443 64.7341V63.4945ZM236.203 62.3122L233.443 61.9163V59.5934H235.604C235.792 59.2341 235.995 58.8903 236.203 58.5622V62.3122ZM233.443 33.4424C233.979 33.8018 234.422 34.4945 234.792 35.2132C235.318 36.234 235.766 37.2497 236.203 38.2601V38.8747C235.682 37.6559 235.161 36.4372 234.531 35.2132C234.396 34.9528 234.255 34.6976 234.099 34.458C233.854 34.4372 233.604 34.4215 233.443 34.4736V33.4424ZM236.203 47.3591C236.25 47.3382 236.302 47.3278 236.354 47.3226V43.1299C236.307 43.1507 236.255 43.1663 236.203 43.1715V47.3591ZM244.302 63.1872C243.135 63.1872 242.193 64.1351 242.193 65.3018C242.193 66.4684 243.135 67.4163 244.302 67.4163V63.1872ZM244.302 58.6976V61.1663C242.021 61.1663 240.172 63.0153 240.172 65.3018C240.172 67.5882 242.021 69.4372 244.302 69.4372V71.9059C240.661 71.9059 237.708 68.9476 237.708 65.3018C237.708 61.6559 240.661 58.6976 244.302 58.6976ZM236.203 63.7913L237.182 63.9007C237.104 64.2966 237.057 64.7028 237.047 65.1247L236.203 65.0309V63.7913ZM244.302 58.0361V53.9788C241.286 53.8851 238.24 55.4111 236.203 58.5622V62.3122L237.599 62.5153C238.693 59.8851 241.281 58.0361 244.302 58.0361ZM236.203 38.2601C236.672 39.3486 237.12 40.432 237.63 41.5205C238.052 42.4163 239.229 42.5934 240.198 42.833C240.833 42.9945 242.385 43.3018 244.302 43.6611V51.6455L244.24 51.6403C244.188 51.6403 244.135 51.6403 244.083 51.6403C244.016 51.6403 243.948 51.6403 243.88 51.6403C243.802 51.6455 243.719 51.6455 243.641 51.6507C243.573 51.6507 243.505 51.6559 243.438 51.6559C243.38 51.6611 243.323 51.6663 243.271 51.6716C243.214 51.6716 243.161 51.6768 243.104 51.682C243.047 51.6872 242.99 51.6924 242.932 51.6976C242.88 51.7028 242.828 51.7132 242.776 51.7184C242.719 51.7236 242.656 51.734 242.599 51.7393C242.547 51.7497 242.495 51.7549 242.443 51.7653C242.385 51.7705 242.328 51.7809 242.271 51.7913C242.219 51.8018 242.161 51.8122 242.109 51.8226C242.052 51.833 242 51.8382 241.943 51.8486C241.885 51.8643 241.828 51.8747 241.766 51.8903C241.667 51.9111 241.568 51.9372 241.469 51.958C241.417 51.9736 241.365 51.9841 241.313 51.9997C241.255 52.0153 241.193 52.0309 241.135 52.0518C241.089 52.0622 241.036 52.0778 240.99 52.0934C240.932 52.1091 240.87 52.1299 240.813 52.1455C240.766 52.1611 240.719 52.1768 240.672 52.1924C240.609 52.2132 240.552 52.2341 240.49 52.2549C240.448 52.2705 240.401 52.2913 240.354 52.307C240.297 52.3278 240.234 52.3486 240.177 52.3747C240.13 52.3903 240.083 52.4111 240.031 52.432C239.979 52.458 239.922 52.4788 239.865 52.5049C239.818 52.5257 239.766 52.5466 239.719 52.5674C239.62 52.6143 239.521 52.6559 239.422 52.7028C239.37 52.7288 239.318 52.7549 239.266 52.7809C239.214 52.807 239.156 52.8382 239.099 52.8695C239.057 52.8903 239.01 52.9163 238.964 52.9424C238.906 52.9684 238.854 52.9997 238.797 53.0309C238.755 53.057 238.708 53.083 238.661 53.1091C238.609 53.1403 238.557 53.1768 238.5 53.208C238.453 53.2341 238.411 53.2653 238.365 53.2966C238.313 53.3278 238.26 53.3591 238.208 53.3955C238.161 53.4216 238.115 53.4528 238.073 53.4841C238.021 53.5205 237.969 53.557 237.917 53.5882C237.87 53.6247 237.823 53.6559 237.776 53.6924C237.729 53.7288 237.677 53.7601 237.63 53.7966C237.13 54.1716 236.651 54.5986 236.203 55.0726V48.5049C236.271 48.5257 236.344 48.5413 236.417 48.5413C236.755 48.5413 237.026 48.2705 237.026 47.932C237.026 47.6143 236.786 47.3538 236.479 47.3226V43.0361C236.557 42.958 236.609 42.8434 236.609 42.7236V42.1559C236.609 41.9215 236.427 41.7288 236.203 41.708V40.9111C236.438 41.2288 236.677 41.1351 237.208 41.1663C236.854 40.4007 236.531 39.6403 236.203 38.8747V38.2601ZM244.302 67.4163V63.1872C245.469 63.1872 246.417 64.1351 246.417 65.3018C246.417 66.4684 245.469 67.4163 244.302 67.4163ZM249.479 61.208C248.271 59.682 246.401 58.6976 244.302 58.6976V61.1663C246.589 61.1663 248.438 63.0153 248.438 65.3018C248.438 67.5882 246.589 69.4372 244.302 69.4372V71.9059C246.401 71.9059 248.271 70.9216 249.479 69.3903V61.208ZM249.479 60.208C248.167 58.8695 246.333 58.0361 244.302 58.0361V53.9788C246.115 54.0361 247.917 54.6768 249.479 55.9007V60.208ZM244.302 43.6611C245.885 43.958 247.719 44.2913 249.479 44.6143V49.4788L247.526 52.2341L246.693 53.4111L246.875 53.4736L247.714 52.2966L249.479 49.807V53.1455C249.438 53.1195 249.396 53.0934 249.354 53.0726L249.234 53.0049C249.177 52.9684 249.115 52.9372 249.052 52.9059L248.922 52.833C248.865 52.8018 248.802 52.7705 248.74 52.7393C248.698 52.7236 248.656 52.7028 248.615 52.682C248.542 52.6455 248.469 52.6143 248.396 52.5778C248.365 52.5674 248.333 52.5518 248.302 52.5361C248.203 52.4945 248.099 52.4476 247.995 52.4059C247.958 52.3955 247.927 52.3799 247.896 52.3695C247.833 52.3434 247.771 52.3226 247.714 52.2966L247.672 52.2861C247.63 52.2705 247.583 52.2549 247.542 52.2393L247.526 52.2341C247.469 52.2132 247.411 52.1924 247.354 52.1716C247.307 52.1559 247.26 52.1403 247.208 52.1247C247.151 52.1091 247.089 52.0882 247.026 52.0726C246.979 52.057 246.932 52.0413 246.885 52.0309C246.823 52.0101 246.755 51.9945 246.693 51.9788C246.646 51.9684 246.604 51.958 246.557 51.9424C246.49 51.9268 246.422 51.9111 246.354 51.8955C246.313 51.8903 246.271 51.8799 246.224 51.8695C246.13 51.8486 246.036 51.833 245.943 51.8122C245.896 51.807 245.849 51.7965 245.802 51.7861C245.724 51.7757 245.651 51.7653 245.573 51.7497C245.531 51.7445 245.484 51.7393 245.438 51.7341C245.375 51.7236 245.307 51.7184 245.245 51.708C245.193 51.7028 245.146 51.6976 245.094 51.6924C245.031 51.6872 244.974 51.682 244.911 51.6768C244.859 51.6716 244.807 51.6663 244.755 51.6663C244.698 51.6611 244.635 51.6559 244.573 51.6559C244.521 51.6507 244.474 51.6507 244.422 51.6455C244.38 51.6455 244.344 51.6455 244.302 51.6455V43.6611ZM249.479 69.3903V61.208C250.37 62.333 250.901 63.7549 250.901 65.3018C250.901 66.8486 250.37 68.2653 249.479 69.3903ZM254.25 64.8643V59.5934H252.479C251.672 58.0413 250.641 56.8122 249.479 55.9007V60.208C250.354 61.0986 251 62.2132 251.328 63.458H252.479V64.8643H254.25ZM249.479 44.6143L250.927 44.8799L251.411 44.9684L251.771 45.0361L252.021 45.083C252.833 45.234 253.594 45.3799 254.25 45.5049V53.6768L254.115 53.6663L253.859 56.9163L254.25 56.9476V58.6403C254.219 58.5622 254.182 58.484 254.146 58.4059L254.073 58.2549C254.031 58.1768 253.995 58.0986 253.958 58.0257C253.932 57.9788 253.906 57.932 253.885 57.8851C253.839 57.8018 253.797 57.7236 253.755 57.6455C253.729 57.6038 253.708 57.5622 253.682 57.5205C253.63 57.4216 253.573 57.3226 253.51 57.2236L253.479 57.1716C253.411 57.057 253.344 56.9476 253.271 56.8382C253.25 56.8018 253.224 56.7705 253.203 56.7341C253.151 56.6611 253.099 56.583 253.047 56.5049C253.021 56.4684 252.995 56.4268 252.964 56.3903C252.917 56.3226 252.87 56.2549 252.818 56.1872C252.786 56.1455 252.76 56.1091 252.729 56.0674C252.682 56.0049 252.63 55.9424 252.583 55.8851C252.552 55.8434 252.521 55.8018 252.484 55.7601C252.432 55.6976 252.38 55.6299 252.328 55.5674C252.302 55.5361 252.271 55.5049 252.245 55.4736C252.177 55.3903 252.104 55.3122 252.036 55.2393L251.995 55.1924C251.906 55.0986 251.823 55.0049 251.734 54.9163C251.714 54.8955 251.688 54.8747 251.667 54.8486C251.604 54.7861 251.536 54.7236 251.474 54.6611C251.438 54.6299 251.406 54.5986 251.37 54.5674C251.318 54.5153 251.26 54.4632 251.203 54.4111L251.094 54.3174C251.036 54.2653 250.984 54.2184 250.927 54.1716C250.891 54.1403 250.849 54.109 250.813 54.0778C250.755 54.0309 250.698 53.9893 250.646 53.9424C250.604 53.9111 250.568 53.8851 250.531 53.8538C250.464 53.807 250.401 53.7549 250.333 53.708C250.302 53.6872 250.276 53.6663 250.245 53.6403C250.151 53.5726 250.052 53.5101 249.958 53.4424C249.927 53.4268 249.896 53.4059 249.87 53.3851C249.797 53.3434 249.729 53.2966 249.661 53.2549C249.625 53.2288 249.589 53.208 249.552 53.1872L249.479 53.1455V49.807L251.771 46.5778V53.9945H252.021V42.2653C252.167 42.1924 252.271 42.0413 252.271 41.8643V41.5986C252.271 41.3486 252.068 41.1455 251.823 41.1455H251.411V39.6663C251.411 39.5309 251.302 39.4215 251.167 39.4215H250.927V45.1976H251.167C251.297 45.1976 251.401 45.0986 251.411 44.9684V42.3122H251.771V46.2497L249.479 49.4788V44.6143ZM254.927 64.8643H254.25V59.5934H254.646C254.594 59.458 254.542 59.3226 254.49 59.1872L254.438 59.0622C254.396 58.9736 254.359 58.8799 254.323 58.7913L254.255 58.6455L254.25 58.6403V56.9476L254.776 56.9893C254.828 56.9945 254.88 56.9945 254.927 56.9893V64.8643ZM254.25 45.5049C254.49 45.5518 254.719 45.5934 254.927 45.6351V53.7288L254.25 53.6768V45.5049ZM254.927 45.6351C255.776 45.807 256.396 45.9372 256.661 46.0153C258.448 46.5309 259.193 47.5518 259.354 48.8434C259.396 49.1872 259.385 49.5309 259.385 49.8747V59.5934H259.542V62.0778H258.974V63.9268H259.542V64.8643H254.927V56.9893C255.438 56.958 255.859 56.5518 255.901 56.0257L255.995 54.8695C256.042 54.2913 255.609 53.7809 255.031 53.7393L254.927 53.7288V45.6351ZM259.542 59.5934H259.844C260.167 59.5934 260.427 59.8591 260.427 60.1768V64.2809C260.427 64.6038 260.167 64.8643 259.844 64.8643H259.542V63.9268H260.109V62.0778H259.542V59.5934Z" fill="#E80008"/>
</g>
<mask id="mask1_176_11535" style="mask-type:luminance" maskUnits="userSpaceOnUse" x="46" y="15" width="88" height="45">
<path d="M46.6667 15.9277H133.333V59.6673H46.6667V15.9277Z" fill="white"/>
</mask>
<g mask="url(#mask1_176_11535)">
<path fill-rule="evenodd" clip-rule="evenodd" d="M72.9688 17.4847C72.7917 17.4847 72.6354 17.5524 72.5208 17.6722C72.401 17.7868 72.3281 17.9535 72.3177 18.1305L71.75 29.8649V29.8962C71.75 30.0628 71.8177 30.2087 71.9271 30.318C72.0365 30.4274 72.1823 30.4951 72.349 30.5003H74.099C74.276 30.5003 74.4375 30.4274 74.5573 30.3128C74.6719 30.193 74.7448 30.0316 74.7448 29.8545V18.1305C74.7448 17.9535 74.6719 17.792 74.5573 17.6722C74.4375 17.5576 74.276 17.4847 74.099 17.4847H72.9688ZM84.4323 17.5524H77.3542C77.1979 17.5524 77.0573 17.6149 76.9531 17.7139C76.8542 17.818 76.7917 17.9587 76.7917 18.1149V29.9326C76.7917 30.0889 76.8542 30.2295 76.9531 30.3285C77.0573 30.4326 77.1979 30.4951 77.3542 30.4951H84.4323C84.5885 30.4951 84.7292 30.4326 84.8281 30.3285C84.9323 30.2295 84.9948 30.0889 84.9948 29.9326V18.1149C84.9948 17.9587 84.9323 17.818 84.8281 17.7139C84.7292 17.6149 84.5885 17.5524 84.4323 17.5524ZM90.7604 31.4222L88.7083 17.8389H86.6615C86.5052 17.8389 86.3646 17.9014 86.2656 18.0003C86.1615 18.1045 86.099 18.2451 86.099 18.4014V32.9847C86.099 33.141 86.1615 33.2816 86.2656 33.3805C86.3646 33.4847 86.5052 33.5472 86.6615 33.5472H88.4375C88.5365 33.5472 88.6667 33.5368 88.7969 33.4847C88.9323 33.4326 89.0729 33.3389 89.2083 33.1774V33.1722L90.7604 31.4222ZM54.9688 34.6722H53.099C52.9531 34.6722 52.8177 34.7295 52.724 34.8285C52.625 34.9222 52.5677 35.0576 52.5677 35.2035V35.5472C52.5677 35.693 52.625 35.8232 52.724 35.9222C52.8177 36.016 52.9531 36.0785 53.099 36.0785H54.9688C55.0208 36.0785 55.0677 36.0576 55.1042 36.0212C55.1354 35.9899 55.1562 35.943 55.1562 35.891V34.8597C55.1562 34.8076 55.1354 34.7607 55.1042 34.7243C55.0677 34.693 55.0208 34.6722 54.9688 34.6722ZM83.3438 35.7087V33.9118H83.1979C83.125 33.9118 83.0625 33.9378 83.0156 33.9847C82.9688 34.0316 82.9375 34.0993 82.9375 34.1722V35.4482C82.9375 35.5212 82.9688 35.5837 83.0156 35.6305C83.0625 35.6774 83.125 35.7087 83.1979 35.7087H83.3438ZM83.6927 33.9118V35.7087H83.8333C83.9062 35.7087 83.9688 35.6774 84.0156 35.6305C84.0625 35.5837 84.0938 35.5212 84.0938 35.4482V34.1722C84.0938 34.0993 84.0625 34.0316 84.0156 33.9847C83.9688 33.9378 83.9062 33.9118 83.8333 33.9118H83.6927ZM83.9844 52.6357V38.5576H85.224V38.1618H77.7031V38.5576H78.9062V52.6357H79.3802V51.0316H83.5104V52.6357H83.9844ZM73.8125 36.6722H69.9167V37.7972H73.8594L73.8802 37.792H73.8854C73.9167 37.792 74.5365 37.7868 74.9948 38.5628C75.724 39.7868 76.5365 41.1305 76.6771 41.3701L77.6406 40.8024L77.6042 40.7347C77.349 40.3128 76.3802 38.693 75.9635 37.9899C75.5885 37.3597 75.1094 37.0316 74.6979 36.8597C74.2917 36.6878 73.9479 36.6722 73.8594 36.6722H73.8125ZM90.6458 43.7868H89.7188V44.7816H91.5833V43.417H90.6875V43.7868H90.6458ZM91.5833 46.9378V45.5837H89.7188V46.5732H90.6875V46.9378H91.5833ZM86.1094 50.1982V51.2607H84.5573V51.4326H87.5885C87.6667 51.4326 87.7135 51.4326 87.7604 51.4274C87.8073 51.4222 87.8542 51.4014 87.9271 51.3753C88.0521 51.318 88.2083 51.2191 88.3177 51.0368C88.401 50.9014 88.4583 50.7295 88.4635 50.4951L88.4688 50.3441V50.1982H86.1094ZM87.3802 47.5264C87.4323 47.3701 87.4688 47.2087 87.4896 47.042C87.6458 45.9639 86.4479 45.0785 85.7188 44.6462H84.5573V47.5264H87.3802ZM86.1094 49.3753C86.3906 49.1253 86.776 48.7243 87.0677 48.2139H84.5573V49.1305H86.1094V49.3753ZM87.7865 47.5264C87.8802 47.2816 87.9219 47.0472 87.9115 46.8128C87.8802 46.1045 87.349 45.4222 86.2552 44.6462H86.1458C86.9062 45.1566 87.8698 46.0212 87.7188 47.0732C87.6979 47.2295 87.6615 47.3805 87.6198 47.5264H87.7865ZM86.9531 48.7972C87.1302 48.5941 87.2812 48.4014 87.4115 48.2139H87.3281C87.2135 48.4274 87.0885 48.6201 86.9531 48.7972ZM87.6875 48.2139C87.4427 48.5941 87.1042 48.9951 86.6719 49.4326H88.474V48.2139H87.6875ZM86.6406 44.6462C87.625 45.391 88.1094 46.0785 88.1406 46.8024C88.151 47.042 88.1146 47.2816 88.0312 47.5264H88.474C88.474 46.4899 88.4688 45.4378 88.4688 44.8024L88.4635 44.6462H86.6406ZM90.6198 42.5055C88.875 42.4535 87.0469 42.0524 86.3073 41.8753C86.1302 42.1149 85.9115 42.3493 85.6198 42.3493H85.5156L84.5573 42.3701V42.8337H89.4583C89.4896 42.8337 89.5104 42.8337 89.526 42.8337C89.5417 42.8337 89.5625 42.8285 89.599 42.8285L89.6562 42.8232C89.875 42.8024 90.2344 42.7035 90.6198 42.5055ZM86.4896 41.6201C87.2812 41.8076 89.0156 42.1774 90.651 42.2243C89.1146 41.9587 87.4792 41.641 86.599 41.4639L86.4896 41.6201ZM79.4635 46.5316V50.5524H83.4219V46.5316H79.4635ZM79.4635 41.9378V45.9587H83.4219V41.9378H79.4635ZM79.4635 38.6462V41.3701H83.4219V38.6462H79.4635ZM100.417 32.766L105.135 32.9274C104.875 32.7816 104.62 32.6305 104.375 32.4847C103.818 32.1618 103.344 31.8805 103.078 31.8076C102.724 31.7035 102.344 31.7035 101.974 31.7764C101.578 31.8545 101.193 32.0264 100.865 32.2555C100.708 32.3701 100.552 32.5524 100.417 32.766ZM124.745 52.0316C124.719 52.5732 124.786 52.9222 124.927 53.1722C125.068 53.4222 125.281 53.5628 125.536 53.6826C126.031 53.917 128.479 54.3962 128.49 54.4014L128.562 54.417L128.536 54.3441L126.932 49.7972L126.911 49.7503L126.865 49.7764C126.859 49.7764 124.797 50.943 124.745 52.0316ZM127.229 48.2191C126.828 48.4482 123.885 50.2139 123.807 51.8389C123.766 52.7139 123.875 53.2816 124.099 53.6722C124.318 54.0576 124.651 54.2816 125.052 54.4691C125.802 54.8285 129.297 55.5264 129.854 55.641L127.229 48.2191ZM121.74 49.3076C121.698 49.266 121.63 49.2347 121.562 49.2347C121.495 49.2347 121.432 49.266 121.385 49.3076C121.339 49.3545 121.312 49.417 121.312 49.4847C121.312 49.5576 121.339 49.6201 121.385 49.667C121.432 49.7087 121.495 49.7399 121.562 49.7399C121.63 49.7399 121.698 49.7087 121.74 49.667C121.786 49.6201 121.812 49.5576 121.812 49.4847C121.812 49.417 121.786 49.3545 121.74 49.3076ZM120.901 52.2503C120.812 52.1566 120.682 52.0993 120.547 52.0993C120.406 52.0993 120.276 52.1566 120.188 52.2503C120.094 52.3389 120.036 52.4691 120.036 52.6045C120.036 52.7451 120.094 52.8753 120.188 52.9639C120.276 53.0576 120.406 53.1149 120.547 53.1149C120.682 53.1149 120.812 53.0576 120.901 52.9639C120.995 52.8753 121.052 52.7451 121.052 52.6045C121.052 52.4691 120.995 52.3389 120.901 52.2503ZM114.359 33.9014C114.255 33.7972 114.115 33.7347 113.958 33.7347C113.802 33.7347 113.661 33.7972 113.562 33.9014C113.458 34.0003 113.396 34.141 113.396 34.2972C113.396 34.4535 113.458 34.5941 113.562 34.693C113.661 34.7972 113.802 34.8597 113.958 34.8597C114.115 34.8597 114.255 34.7972 114.359 34.693C114.458 34.5941 114.521 34.4535 114.521 34.2972C114.521 34.141 114.458 34.0003 114.359 33.9014ZM115.344 39.667C115.234 39.5628 115.089 39.4951 114.927 39.4951C114.776 39.4951 114.641 39.5524 114.536 39.6462L114.531 39.6514H114.526V39.6566H114.521V39.6618H114.516V39.667H114.51V39.6722H114.505V39.6774L114.474 39.7087V39.7139H114.469V39.7191H114.464V39.7243L114.458 39.7295V39.7347H114.453V39.7399H114.448V39.7503H114.443V39.7555H114.438V39.7607L114.427 39.7712V39.7816H114.422V39.792H114.417V39.7972L114.411 39.8024V39.8076L114.406 39.8128V39.818C114.396 39.8285 114.391 39.8441 114.385 39.8545L114.375 39.8805L114.37 39.8962V39.9014L114.365 39.9118V39.9274H114.359V39.943L114.354 39.9482V39.9691L114.349 39.9743V40.0003H114.344V40.0628H114.339V40.0837C114.339 40.2451 114.406 40.391 114.51 40.5003C114.62 40.6045 114.766 40.6722 114.927 40.6722H114.979V40.667H115.016L115.021 40.6618H115.042C115.062 40.6566 115.078 40.6514 115.094 40.6462L115.115 40.641H115.12L115.146 40.6305H115.151V40.6253H115.156L115.172 40.6201L115.177 40.6149C115.188 40.6097 115.198 40.6097 115.203 40.6045L115.208 40.5993H115.214L115.229 40.5889H115.234V40.5837L115.245 40.5785H115.25V40.5732H115.255L115.26 40.568C115.292 40.5472 115.318 40.5264 115.344 40.5003C115.448 40.391 115.516 40.2451 115.516 40.0837C115.516 39.9222 115.448 39.7764 115.344 39.667ZM95.2552 32.9951C95.1719 32.9118 95.0677 32.8389 94.9531 32.792C94.8438 32.7503 94.724 32.7243 94.599 32.7243C94.4688 32.7243 94.349 32.7503 94.2396 32.792C94.125 32.8389 94.0208 32.9118 93.9375 32.9951C93.849 33.0837 93.7813 33.1878 93.7344 33.3024C93.6875 33.4118 93.6615 33.5316 93.6615 33.6566C93.6615 33.7868 93.6875 33.9066 93.7344 34.016C93.7813 34.1305 93.849 34.2347 93.9375 34.318C94.0208 34.4066 94.125 34.4743 94.2396 34.5212C94.349 34.568 94.4688 34.5941 94.599 34.5941C94.724 34.5941 94.8438 34.568 94.9531 34.5212C95.0677 34.4743 95.1719 34.4066 95.2552 34.318C95.3438 34.2347 95.4115 34.1305 95.4583 34.016C95.5052 33.9066 95.5312 33.7868 95.5312 33.6566C95.5312 33.5316 95.5052 33.4118 95.4583 33.3024C95.4115 33.1878 95.3438 33.0837 95.2552 32.9951ZM97.0521 36.9691C97.099 37.1722 97.1458 37.3753 97.2031 37.568C97.2812 37.8805 97.375 38.1722 97.474 38.443C97.7865 38.193 98.0365 38.2139 98.0625 38.2139H99.4115C98.5781 37.7764 97.7604 37.3441 97.0521 36.9691ZM113.042 38.1982L112.75 34.818L109.698 34.7191L109.682 35.167V35.2139H109.635L101.198 34.9274L102.995 35.7868C103 35.792 105.115 36.7503 106.677 37.1878C108.214 37.6253 111.229 38.0576 111.312 38.068L113.042 38.1982ZM118.375 49.1982L118.458 49.2607V49.266H118.469V49.2712H118.479L118.484 49.2764H118.495L118.5 49.2816H118.516L118.521 49.2868H118.557V49.292H118.568C118.641 49.292 118.703 49.2607 118.75 49.2139C118.792 49.1722 118.823 49.1097 118.823 49.0368C118.823 48.9691 118.792 48.9066 118.75 48.8597C118.703 48.8128 118.641 48.7868 118.568 48.7868C118.5 48.7868 118.438 48.8128 118.391 48.8597C118.349 48.9066 118.318 48.9691 118.318 49.0368V49.068L118.323 49.0732V49.0993H118.328V49.1149L118.333 49.1201V49.1305H118.339V49.141H118.344V49.1514L118.349 49.1566V49.1618L118.354 49.167V49.1722H118.359V49.1774L118.365 49.1826V49.1878H118.37V49.193H118.375V49.1982ZM116.005 46.0628L116.042 46.2347C116.25 47.1826 116.943 47.9743 117.766 48.693C117.583 48.2868 117.375 47.8805 117.12 47.5264C116.745 47.0107 116.375 46.5264 116.057 46.1253L116.005 46.0628ZM119.422 49.5732C119.464 49.7555 119.495 49.9274 119.505 50.0732C119.698 50.2243 119.891 50.3753 120.068 50.5264C120.193 50.2607 120.349 49.9951 120.542 49.7399L119.422 49.5732ZM104.417 45.0785C101.417 45.0785 98.9844 47.5107 98.9844 50.516C98.9844 53.516 101.417 55.9535 104.417 55.9535C107.417 55.9535 109.849 53.516 109.849 50.516C109.849 47.5107 107.417 45.0785 104.417 45.0785ZM104.417 49.2816C103.74 49.2816 103.188 49.8337 103.188 50.516C103.188 51.193 103.74 51.7451 104.417 51.7451C105.099 51.7451 105.646 51.193 105.646 50.516C105.646 49.8337 105.099 49.2816 104.417 49.2816ZM104.417 47.1722C102.573 47.1722 101.083 48.6722 101.083 50.516C101.083 52.3597 102.573 53.8545 104.417 53.8545C106.26 53.8545 107.755 52.3597 107.755 50.516C107.755 48.6722 106.26 47.1722 104.417 47.1722ZM104.417 41.8389C99.6302 41.8389 95.75 45.7243 95.75 50.516C95.75 55.3076 99.6302 59.193 104.417 59.193C109.203 59.193 113.083 55.3076 113.083 50.516C113.083 45.7243 109.203 41.8389 104.417 41.8389ZM66.0104 45.0785C63.0104 45.0785 60.5781 47.5107 60.5781 50.516C60.5781 53.516 63.0104 55.9535 66.0104 55.9535C69.0104 55.9535 71.4427 53.516 71.4427 50.516C71.4427 47.5107 69.0104 45.0785 66.0104 45.0785ZM66.0104 49.2816C65.3333 49.2816 64.7812 49.8337 64.7812 50.516C64.7812 51.193 65.3333 51.7451 66.0104 51.7451C66.6875 51.7451 67.2396 51.193 67.2396 50.516C67.2396 49.8337 66.6875 49.2816 66.0104 49.2816ZM66.0104 47.1722C64.1667 47.1722 62.6719 48.6722 62.6719 50.516C62.6719 52.3597 64.1667 53.8545 66.0104 53.8545C67.8542 53.8545 69.349 52.3597 69.349 50.516C69.349 48.6722 67.8542 47.1722 66.0104 47.1722ZM66.0104 41.8389C61.224 41.8389 57.3438 45.7243 57.3438 50.516C57.3438 55.3076 61.224 59.193 66.0104 59.193C70.7969 59.193 74.6771 55.3076 74.6771 50.516C74.6771 45.7243 70.7969 41.8389 66.0104 41.8389ZM72.4583 15.9482H87.9531C88.276 15.9482 88.5677 16.0785 88.776 16.2868C88.9896 16.5003 89.1198 16.792 89.1198 17.1097L92.3229 38.3441V38.3493C92.3281 38.391 92.3281 38.4326 92.3281 38.4743C92.3281 39.0785 92.0573 39.6357 91.6406 40.0472C91.224 40.4587 90.6615 40.7295 90.0781 40.7712C90.0312 40.7712 89.9844 40.7712 89.9427 40.7712H87.0885L86.7812 41.2087C87.8125 41.4118 89.6979 41.7764 91.3229 42.042C91.7083 41.7191 92.0573 41.2764 92.25 40.6982C92.8906 38.792 92.8594 36.9951 92.8281 35.1826C92.8177 34.5889 92.8073 33.9951 92.8177 33.391C92.8281 33.1201 92.8906 32.8493 92.9896 32.6149C93.099 32.3701 93.25 32.1566 93.4167 32.0107C93.7135 31.7555 94.1094 31.641 94.4948 31.6618C94.8802 31.6826 95.2552 31.8389 95.5 32.1201C95.5469 32.1722 95.5938 32.2243 95.6354 32.2816C95.724 32.318 95.8125 32.3545 95.9062 32.3962C95.9792 32.4274 96.0521 32.4587 96.1458 32.5003L96.4167 32.6305L100.156 32.7555C100.328 32.4743 100.521 32.2191 100.734 32.068C101.083 31.818 101.5 31.6357 101.927 31.5524C102.333 31.4691 102.75 31.4743 103.141 31.5837C103.438 31.6722 103.922 31.9587 104.49 32.2868C104.854 32.5003 105.255 32.7347 105.651 32.943L109.708 33.0785L109.755 33.0837L109.75 33.1253L109.734 33.6045L112.75 33.7087C112.771 33.6045 112.792 33.5055 112.828 33.4118C112.964 33.0576 113.229 32.8076 113.714 32.7295H113.719C114.203 32.6514 114.536 32.8024 114.771 33.0889C115.01 33.3753 115.151 33.7972 115.266 34.2607L116.76 40.3649C116.766 40.391 116.771 40.4222 116.776 40.4482C116.828 40.7555 116.74 41.0524 116.562 41.2972C116.427 41.4847 116.24 41.6357 116.016 41.7295C116.057 41.9066 116.068 42.0889 115.984 42.2347C115.76 42.6462 115.646 43.0368 115.609 43.4326C115.677 43.5003 115.755 43.5837 115.839 43.6878C116.276 44.2191 116.859 44.9899 117.375 45.6982C117.969 46.516 118.479 47.2555 118.599 47.4795C118.745 47.7555 118.958 48.2295 119.146 48.7139L121.25 49.0212C121.427 48.8857 121.62 48.7555 121.823 48.6253C122.609 48.1305 123.484 47.7399 123.688 47.6462C125.521 45.9482 127.729 44.6982 127.781 44.667L129.323 43.5837L129.328 43.5785C129.339 43.5732 129.349 43.5628 129.359 43.5576C129.411 43.5264 129.443 43.5316 129.484 43.5993L129.589 43.7712C129.615 43.818 129.583 43.8805 129.568 43.9222L129.562 43.9274L129.464 44.141C129.115 44.8597 128.995 45.1097 128.974 46.3649C128.969 46.8024 128.984 47.167 129.005 47.4587C129.052 48.0055 129.125 48.292 129.135 48.3232L132.177 56.9222L132.214 56.8805L132.266 56.8337L132.286 56.8962L133.016 58.9066L133.042 58.9795L132.964 58.9639L130.672 58.4951L130.594 58.4795L130.708 58.3649C129.443 58.0993 127.802 57.7399 126.396 57.391C125.365 57.1357 124.453 56.8857 123.917 56.6774C123.021 56.5264 122.219 56.1774 121.562 55.693C120.557 55.4014 119.62 54.9639 118.755 54.4118C117.807 53.8076 116.943 53.0576 116.161 52.2139C115.302 51.2868 114.557 50.2191 113.854 49.1462C113.214 44.6774 109.479 41.2087 104.896 40.9847C104.75 40.917 104.615 40.8545 104.49 40.7972C104.281 40.7035 104.109 40.6253 103.964 40.5524C103.365 40.266 102.406 39.7764 101.333 39.2191C100.969 39.2503 100.568 39.292 100.214 39.3285C99.9531 39.3493 99.7188 39.3753 99.5365 39.391C99.1719 39.4274 98.8281 39.6357 98.526 39.9014C98.7292 39.9587 98.9896 40.0055 99.2812 40.0576C100.214 40.2191 101.417 40.4326 101.906 41.292L101.938 41.3441L101.88 41.3597C99.8542 41.9222 98.099 43.141 96.8594 44.7712C95.6458 46.3649 94.9271 48.3545 94.9271 50.516C94.9271 50.9587 94.9583 51.391 95.0156 51.818C95.0729 52.2503 95.1667 52.6774 95.2812 53.0889L95.2969 53.1462H95.2396L93.4948 53.1253H84.5573V53.3962H78.026L78.0208 53.3649L77.6771 51.8857H75.4323L75.4375 51.8337C75.4688 51.6201 75.4948 51.3962 75.5104 51.1774C75.5208 50.9587 75.5312 50.7399 75.5312 50.516C75.5312 48.8128 75.0833 47.2191 74.3021 45.8389C73.4948 44.4066 72.3229 43.2087 70.9167 42.3649L70.9115 42.3597L70.8958 42.3493L70.8854 42.3441L70.8177 42.3024L70.7448 42.266L70.7396 42.2607L70.6875 42.2295H70.6823L70.6667 42.2191L70.6615 42.2139L70.4635 42.1097L70.4583 42.1045L70.4375 42.0941L70.4115 42.0837C69.75 41.7399 69.0469 41.4691 68.3073 41.2868C67.5833 41.1097 66.8229 41.016 66.0417 41.016H66.0104C64.1354 41.016 62.3854 41.5576 60.9115 42.5003C59.3906 43.4691 58.1667 44.8649 57.401 46.516L57.3594 46.5993L57.3229 46.6878L57.2969 46.7451L57.2656 46.8232L57.2292 46.9014L57.224 46.917L57.2031 46.9743L57.1562 47.0941L57.1302 47.1514L57.125 47.1722L57.099 47.2451L57.0729 47.3128L57 47.5316L56.9635 47.6462L56.9323 47.7399L56.8958 47.8649L56.8698 47.9535L56.8281 48.0993L56.8125 48.1774L56.7708 48.3441L56.7552 48.3962L56.7396 48.4847L56.7188 48.5732L56.7083 48.6253L56.6875 48.7243L56.6719 48.818L56.6667 48.8545L56.6458 48.9482L56.6302 49.0472L56.625 49.0889C56.6146 49.1618 56.6042 49.2295 56.599 49.292L56.5938 49.3128L56.5833 49.4274L56.5677 49.5368V49.5524L56.5469 49.7816V49.7868L56.5417 49.9066L56.5312 50.0264L56.5208 50.266V50.516C56.5208 50.5732 56.5208 50.6305 56.5208 50.6826C56.5208 50.7399 56.526 50.7972 56.526 50.8493L56.5312 50.9274L56.4635 50.891L56.4271 50.8753L56.4062 50.8597L56.3906 50.8545L56.349 50.8337L56.3438 50.8285L56.3125 50.8128L56.276 50.7972L56.2708 50.792L56.224 50.766L56.2083 50.7607L56.1823 50.7451L56.1354 50.7191L56.0885 50.6982L56.0625 50.6826L55.9792 50.641L55.9427 50.6201L55.901 50.5941L55.8906 50.5889L55.8333 50.5628L55.8125 50.5524L55.7812 50.5316L55.724 50.5055L55.7188 50.5003L55.6354 50.4587L55.6094 50.443L55.5521 50.4118L55.5417 50.4066L55.4948 50.3805L55.4479 50.3597L55.4323 50.3493L55.375 50.318L55.349 50.3076L55.3125 50.2868L55.25 50.2503H55.2396L55.1823 50.2191L55.1458 50.1982L55.1198 50.1826L55.0573 50.1514L55.0417 50.141L54.9375 50.0889L54.9219 50.0785L54.8542 50.0472L54.8281 50.0316L54.7917 50.0107L54.724 49.9743L54.651 49.9378L54.6146 49.9118L54.5833 49.9014L54.5156 49.8649L54.5 49.8545L54.4479 49.8232L54.3906 49.7972L54.375 49.7868L54.3073 49.7503L54.2344 49.7139L54.1667 49.6774V49.6722L54.0208 49.5993L53.9531 49.5576L53.9375 49.5524L53.8229 49.4899L53.8073 49.4847L53.7396 49.443H53.7344L53.7083 49.4274L53.5938 49.3701V49.3649H53.5885L53.5208 49.3285L53.4792 49.3076L53.4531 49.292L53.3802 49.2503L53.3646 49.2451L53.3125 49.2139L53.2552 49.1826L53.2396 49.1722L53.1667 49.1357L53.1406 49.1201L53.099 49.0993L53.0312 49.0576H53.026L52.9583 49.0212L52.9167 49.0003L52.8906 48.9847L52.8229 48.943L52.8073 48.9378L52.7552 48.9066L52.6979 48.8805L52.6875 48.8701L52.6198 48.8337L52.5938 48.818L52.5521 48.7972L52.4948 48.766H50.7708C49.9271 48.766 49.1615 48.417 48.6042 47.8597C48.0469 47.3024 47.7031 46.5368 47.7031 45.6878V43.7764C47.7031 43.516 47.8073 43.2764 47.9792 43.1045C48.151 42.9274 48.3906 42.8232 48.651 42.8232H50.2448C50.2448 42.7451 50.5104 35.6878 50.6094 34.4899C50.6094 34.4587 50.6146 34.4274 50.6146 34.4014C50.6198 34.3753 50.6198 34.3545 50.625 34.3389C50.7187 33.7764 50.9271 33.2816 51.2396 32.8701C51.5573 32.4482 51.9792 32.1149 52.4896 31.8805L52.5104 31.8701H52.5156L52.5573 31.8493H52.5625L52.5833 31.8389L52.6094 31.8285L52.6302 31.8232H52.6354V31.818H52.6406L52.6562 31.8128H52.6667L52.6823 31.8024H52.6927L52.724 31.792C54.1458 31.3493 57.7604 31.0576 59.7917 30.8962L60.0156 30.8753V29.0055H59.6562V28.3441H61.7083V29.0055H61.349V30.7764L61.7292 30.7451L61.9323 30.7295L62.1302 30.7139L62.3333 30.7035L62.7396 30.6722L62.8125 30.667L62.9375 30.6618L63.1406 30.6462L63.3385 30.6305L63.5417 30.6201L63.625 30.6149L63.7396 30.6045L63.9375 30.5941L64.026 30.5837L64.1354 30.5785L64.3333 30.568L64.4271 30.5576H64.4688V22.6045C64.4688 22.542 64.4688 22.5368 64.4688 22.5264C64.4688 22.516 64.474 22.5003 64.474 22.4066C64.4792 21.9118 64.4896 21.1722 64.1406 20.9326L63.0417 20.167L63.0208 20.1566V18.4066L63.0312 18.3962L63.0573 18.3545L63.0833 18.3232L63.1146 18.3441L63.1875 18.3962C63.4583 18.5837 64.4375 19.266 65.0156 19.667C65.526 20.0212 65.776 20.5055 65.8958 21.0107C66.0156 21.4847 66.0156 21.9743 66.0104 22.3753C66.0104 22.3962 66.0104 22.417 66.0104 22.4378C66.0104 22.4899 66.0104 22.542 66.0104 22.6045V30.4587H66.0417L66.224 30.4482L66.3438 30.4378H66.4062L66.7604 30.417L67.276 30.3857L67.401 30.3753H67.4427L67.6094 30.3649C68.3177 30.3232 68.9635 30.2868 69.5052 30.2607C70.4115 30.2139 71.026 30.1826 71.2031 30.1722L71.8073 17.1097V16.5941C71.8073 16.417 71.8802 16.2555 72 16.1357C72.1146 16.0212 72.276 15.9482 72.4583 15.9482Z" fill="#E80008"/>
</g>
</svg>
