<svg width="17" height="16" viewBox="0 0 17 16" fill="none" xmlns="http://www.w3.org/2000/svg">
<g id="Telegram">
<path id="Vector" d="M8.50062 0.639648C12.5656 0.639648 15.8606 3.93469 15.8606 7.99965C15.8606 12.0646 12.5656 15.3596 8.50062 15.3596C4.43566 15.3596 1.14062 12.0646 1.14062 7.99965C1.14062 3.93469 4.43566 0.639648 8.50062 0.639648ZM11.0395 10.9996C11.1749 10.5843 11.8091 6.44477 11.8875 5.62909C11.9112 5.38205 11.8331 5.21789 11.6801 5.14461C11.4952 5.05565 11.2213 5.10013 10.9035 5.21469C10.4677 5.37181 4.89582 7.73757 4.5739 7.87453C4.26863 8.00413 3.97998 8.14557 3.97998 8.35037C3.97998 8.49437 4.06543 8.57533 4.30095 8.65949C4.54607 8.74685 5.16334 8.93405 5.52782 9.03453C5.87886 9.13149 6.27854 9.04733 6.50254 8.90813C6.73998 8.76061 9.48015 6.92701 9.67694 6.76637C9.87342 6.60573 10.0302 6.81149 9.86959 6.97245C9.70894 7.13309 7.82798 8.95869 7.57998 9.21149C7.27886 9.51837 7.49263 9.83645 7.69455 9.96381C7.92527 10.1091 9.58447 11.222 9.83438 11.4006C10.0843 11.5792 10.3377 11.6601 10.5697 11.6601C10.8017 11.6601 10.924 11.3545 11.0395 10.9996Z" fill="#A5B0BE"/>
</g>
</svg>
