<svg width="32" height="32" viewBox="0 0 32 32" fill="none" xmlns="http://www.w3.org/2000/svg">
<g id="heroicons:phone-20-solid">
<path id="Vector" fill-rule="evenodd" clip-rule="evenodd" d="M28.8 5.6002C28.8 4.96368 28.5472 4.35323 28.0971 3.90314C27.647 3.45305 27.0366 3.2002 26.4 3.2002H24.5632C24.0169 3.19997 23.4868 3.38615 23.0606 3.72798C22.6344 4.06981 22.3376 4.54683 22.2192 5.0802L21.0736 10.237C20.9412 10.834 21.0417 11.459 21.3545 11.9844C21.6673 12.5099 22.1689 12.8961 22.7568 13.0642L24.2496 13.4914C24.9056 13.6786 25.2784 14.3794 25.0176 15.0114C24.0895 17.2553 22.728 19.2941 21.0109 21.0111C19.2939 22.7281 17.2551 24.0897 15.0112 25.0178C14.3792 25.2786 13.6784 24.9058 13.4912 24.2498L13.064 22.757C12.8959 22.1691 12.5097 21.6675 11.9843 21.3547C11.4589 21.0418 10.8338 20.9414 10.2368 21.0738L5.08004 22.2194C4.54667 22.3378 4.06966 22.6346 3.72783 23.0608C3.386 23.487 3.19981 24.017 3.20004 24.5634V26.4002C3.20004 27.0367 3.4529 27.6472 3.90299 28.0972C4.35308 28.5473 4.96352 28.8002 5.60004 28.8002H8.00004C9.83844 28.8002 11.6208 28.5602 13.3216 28.1122C16.8718 27.1696 20.1096 25.3053 22.707 22.7082C25.3044 20.111 27.1691 16.8734 28.112 13.3234C28.57 11.5861 28.8012 9.79684 28.8 8.0002V5.6002Z" fill="#E80008"/>
</g>
</svg>
