<svg width="24" height="25" viewBox="0 0 24 25" fill="none" xmlns="http://www.w3.org/2000/svg">
<g id="mdi:youtube">
<path id="Vector" d="M10 15.7856L15.19 12.7856L10 9.78564V15.7856ZM21.56 7.95564C21.69 8.42564 21.78 9.05564 21.84 9.85564C21.91 10.6556 21.94 11.3456 21.94 11.9456L22 12.7856C22 14.9756 21.84 16.5856 21.56 17.6156C21.31 18.5156 20.73 19.0956 19.83 19.3456C19.36 19.4756 18.5 19.5656 17.18 19.6256C15.88 19.6956 14.69 19.7256 13.59 19.7256L12 19.7856C7.81 19.7856 5.2 19.6256 4.17 19.3456C3.27 19.0956 2.69 18.5156 2.44 17.6156C2.31 17.1456 2.22 16.5156 2.16 15.7156C2.09 14.9156 2.06 14.2256 2.06 13.6256L2 12.7856C2 10.5956 2.16 8.98564 2.44 7.95564C2.69 7.05564 3.27 6.47564 4.17 6.22564C4.64 6.09564 5.5 6.00564 6.82 5.94564C8.12 5.87564 9.31 5.84564 10.41 5.84564L12 5.78564C16.19 5.78564 18.8 5.94564 19.83 6.22564C20.73 6.47564 21.31 7.05564 21.56 7.95564Z" fill="#155CB0"/>
</g>
</svg>
